<svg width="48" height="48" viewBox="0 0 48 48" fill="none" xmlns="http://www.w3.org/2000/svg">
<path d="M39.9599 10.3387C36.1387 7.26372 30.0937 6.74247 29.8349 6.72372C29.4337 6.68997 29.0512 6.91497 28.8862 7.28622C28.8712 7.30872 28.7399 7.61247 28.5937 8.08497C31.1212 8.51247 34.2262 9.37122 37.0349 11.115C37.4849 11.3925 37.6237 11.985 37.3462 12.435C37.1624 12.7312 36.8512 12.8925 36.5287 12.8925C36.3562 12.8925 36.1799 12.8437 36.0224 12.7462C31.1924 9.74997 25.1624 9.59997 23.9999 9.59997C22.8374 9.59997 16.8037 9.74997 11.9774 12.7462C11.5274 13.0275 10.9349 12.8887 10.6574 12.4387C10.3762 11.985 10.5149 11.3962 10.9649 11.115C13.7737 9.37497 16.8787 8.51247 19.4062 8.08872C19.2599 7.61247 19.1287 7.31247 19.1174 7.28622C18.9487 6.91497 18.5699 6.68247 18.1649 6.72372C17.9062 6.74247 11.8612 7.26372 7.98742 10.38C5.96617 12.2512 1.91992 23.1862 1.91992 32.64C1.91992 32.8087 1.96492 32.97 2.04742 33.1162C4.83742 38.0212 12.4537 39.3037 14.1899 39.36C14.1974 39.36 14.2087 39.36 14.2199 39.36C14.5274 39.36 14.8162 39.2137 14.9962 38.9662L16.7512 36.5512C12.0149 35.3287 9.59617 33.2512 9.45742 33.1275C9.05992 32.7787 9.02242 32.1712 9.37492 31.7737C9.72367 31.3762 10.3312 31.3387 10.7287 31.6875C10.7849 31.74 15.2399 35.52 23.9999 35.52C32.7749 35.52 37.2299 31.725 37.2749 31.6875C37.6724 31.3425 38.2762 31.3762 38.6287 31.7775C38.9774 32.175 38.9399 32.7787 38.5424 33.1275C38.4037 33.2512 35.9849 35.3287 31.2487 36.5512L33.0037 38.9662C33.1837 39.2137 33.4724 39.36 33.7799 39.36C33.7912 39.36 33.8024 39.36 33.8099 39.36C35.5462 39.3037 43.1624 38.0212 45.9524 33.1162C46.0349 32.97 46.0799 32.8087 46.0799 32.64C46.0799 23.1862 42.0337 12.2512 39.9599 10.3387ZM17.7599 28.8C15.9037 28.8 14.3999 27.0825 14.3999 24.96C14.3999 22.8375 15.9037 21.12 17.7599 21.12C19.6162 21.12 21.1199 22.8375 21.1199 24.96C21.1199 27.0825 19.6162 28.8 17.7599 28.8ZM30.2399 28.8C28.3837 28.8 26.8799 27.0825 26.8799 24.96C26.8799 22.8375 28.3837 21.12 30.2399 21.12C32.0962 21.12 33.5999 22.8375 33.5999 24.96C33.5999 27.0825 32.0962 28.8 30.2399 28.8Z" fill="#fff"/>
</svg>
