<svg width="50" height="50" viewBox="0 0 50 50" fill="none" xmlns="http://www.w3.org/2000/svg">
<path d="M10.2878 4C7.882 4 7 4.88856 7 7.28781V36.2717C7 36.5461 7.01444 36.7981 7.03544 37.0317C7.09712 37.558 7.09712 38.0712 7.588 38.6447C7.63525 38.713 8.12875 39.0753 8.12875 39.0753C8.39519 39.2052 8.57894 39.301 8.8795 39.4231L23.4679 45.5341C24.22 45.8766 24.5429 46.021 25.0889 46H25.0954C25.648 46.021 25.9709 45.8779 26.7229 45.5341L41.3035 39.4231C41.6119 39.301 41.7878 39.2039 42.0608 39.0753C42.0608 39.0753 42.5543 38.6986 42.6016 38.6447C43.0938 38.0712 43.0937 37.558 43.1541 37.0317C43.1751 36.7994 43.1896 36.5474 43.1896 36.2796V7.28913C43.1896 4.88988 42.301 4.00131 39.9017 4.00131L10.2878 4ZM33.6608 9.44031H34.8486C36.8318 9.44031 37.8031 10.405 37.8031 12.4158V15.7036H35.3972V12.5444C35.3972 11.9026 35.1032 11.6086 34.4798 11.6086H34.0703C33.4285 11.6086 33.1345 11.9026 33.1345 12.5444V22.7149C33.1345 23.3567 33.4285 23.6508 34.0703 23.6508H34.5284C35.1426 23.6508 35.4366 23.3567 35.4366 22.7149V19.078H37.8424V22.8317C37.8424 24.8333 36.8594 25.819 34.8696 25.819H33.6608C31.6645 25.819 30.6854 24.8267 30.6854 22.8317V12.4328C30.6854 10.4313 31.6632 9.44031 33.6608 9.44031ZM12.3314 9.57944H17.7796V11.8146H14.7779V16.3664H17.6706V18.5963H14.7779V23.4486H17.8216V25.6851H12.3314V9.57944ZM19.0094 9.57944H22.8524C24.8408 9.57944 25.8252 10.5704 25.8252 12.5719V16.852C25.8252 18.8536 24.8395 19.8392 22.8524 19.8392H21.4651V25.6838H19.0094V9.57944ZM26.9329 9.57944H29.3794V25.6851H26.9329V9.57944ZM21.4572 11.7451V17.6776H22.4691C23.0847 17.6776 23.3787 17.3783 23.3787 16.7339V12.6874C23.3787 12.0456 23.0847 11.7438 22.4691 11.7438L21.4572 11.7451ZM14.7096 29.5111H15.0719L15.1546 29.5255H15.2858L15.3541 29.5465H15.4223L15.484 29.5662L15.5522 29.5806L15.6061 29.5951L15.7281 29.6226L15.7977 29.6423L15.8449 29.6568L15.8988 29.6777L15.967 29.6987L16.0143 29.7184L16.0838 29.746L16.1455 29.7736L16.1993 29.8064L16.261 29.8339L16.3083 29.8668L16.3778 29.9022L16.4316 29.935L16.4854 29.9626L16.5393 30.0033L16.5957 30.0387L16.6429 30.0794L16.807 30.2041L16.765 30.2579L16.7178 30.3051L16.6758 30.3537L16.6285 30.4075L16.5957 30.4548L16.5537 30.5033L16.5064 30.5506L16.4644 30.6044L16.4316 30.6516L16.3831 30.7081L16.3424 30.7553L16.2951 30.8091L16.2531 30.8577L16.2203 30.9115L16.1717 30.9588L16.1311 31.0152L16.0838 31.0624L16.0418 31.1097L15.9946 31.0769L15.9408 31.0283L15.8843 30.9955L15.7833 30.9273L15.7216 30.8918L15.6651 30.859L15.6034 30.8236L15.5562 30.796L15.5024 30.7697L15.3921 30.7278L15.3239 30.7159L15.2701 30.7015L15.2084 30.6871L15.1388 30.6726L15.0706 30.6661H15.0023L14.9223 30.6516H14.791L14.7227 30.6582H14.6545L14.5862 30.6792L14.5324 30.6936L14.4708 30.7146L14.4091 30.7264L14.3526 30.754L14.2844 30.7816L14.1899 30.8498L14.1334 30.8826L14.0862 30.9246L14.0389 30.9574L13.9904 30.9994L13.9576 31.0467L13.9011 31.0939L13.8329 31.1897L13.8001 31.2436L13.7725 31.3053L13.7397 31.3538L13.7042 31.4155L13.6833 31.4772L13.657 31.531L13.636 31.5992L13.6294 31.6675L13.6098 31.7305L13.5953 31.7988V31.867L13.5888 31.9353V32.0927L13.5953 32.161V32.2148L13.6019 32.2831L13.6137 32.3448L13.6347 32.3986L13.6413 32.4681L13.6623 32.5219L13.6819 32.5692L13.7095 32.6374L13.7449 32.7057L13.7712 32.7543L13.8394 32.8632L13.8814 32.917L13.9142 32.9656L13.9707 33.0063L14.0035 33.0535L14.0507 33.0955L14.161 33.1782L14.2082 33.2044L14.2621 33.2399L14.3251 33.2674L14.3933 33.2937L14.4406 33.3213L14.5771 33.3619L14.6388 33.3685L14.707 33.3895L14.7752 33.3961H15.0693L15.1519 33.3895H15.2136L15.2832 33.3619L15.3514 33.3554L15.4197 33.3357L15.4735 33.3213L15.5352 33.2937L15.589 33.2674L15.6507 33.2399L15.6927 33.2123L15.7465 33.1795V32.5705H14.7818V31.594H16.9619V33.7819L16.9146 33.8147L16.8674 33.8554L16.8188 33.8909L16.765 33.9316L16.7112 33.9591L16.6639 34.0011L16.5537 34.0694L16.4854 34.1022L16.3765 34.1704L16.3069 34.198L16.2531 34.2242L16.1914 34.2518L16.0549 34.3056L16.0011 34.3332L15.8764 34.3739L15.8148 34.3883L15.7531 34.4093L15.6848 34.4303L15.631 34.4421L15.4263 34.4841L15.3633 34.4907L15.2268 34.5051L15.1519 34.5117L15.0837 34.5169L15.0089 34.5235H14.6676L14.5994 34.5117H14.5311L14.4629 34.4973H14.4012L14.3329 34.4762L14.1334 34.4356L14.0796 34.4146L14.0179 34.408L13.9497 34.3804L13.825 34.3397L13.7029 34.2859L13.6347 34.2584L13.5874 34.2308L13.5192 34.2046L13.4706 34.1626L13.4024 34.1363L13.3617 34.1009L13.3079 34.0681L13.1976 33.9854L13.1438 33.9499L13.1018 33.9093L13.048 33.8673L12.9587 33.7793L12.9115 33.7373L12.8708 33.6901L12.8222 33.6415L12.7894 33.5877L12.7474 33.547L12.7146 33.4906L12.6726 33.4367L12.6398 33.3895L12.6044 33.3357L12.5716 33.2727L12.544 33.2189L12.5164 33.1572L12.4902 33.1034L12.4364 32.9787L12.4154 32.9314L12.3878 32.8698L12.3734 32.8081L12.3616 32.7543L12.3471 32.686L12.3261 32.623L12.3117 32.5548L12.3051 32.5009L12.2933 32.4327L12.2789 32.3106L12.2644 32.1741V31.8119L12.2789 31.7423V31.6741L12.2999 31.6058V31.5376L12.3196 31.4759L12.3406 31.4076L12.3681 31.2856L12.3878 31.2173L12.4088 31.1556L12.4915 30.9706L12.5178 30.9167L12.5453 30.8551L12.5807 30.7921L12.607 30.7382L12.6424 30.691L12.7107 30.5808L12.7514 30.5269L12.7934 30.4797L12.8262 30.4259L12.9154 30.3366L12.9561 30.2881L13.0047 30.2408L13.0454 30.1936L13.1018 30.1516L13.1963 30.0689L13.2501 30.0282L13.3066 29.9928L13.3538 29.9521L13.4076 29.9166L13.4641 29.8904L13.5258 29.8549L13.594 29.8221L13.6413 29.7867L13.7095 29.7604L13.7712 29.7329L13.8329 29.7001L13.8893 29.6856L13.9576 29.6646L14.0114 29.6371L14.0731 29.6253L14.1347 29.6042L14.203 29.5898L14.2594 29.5688L14.3277 29.5544H14.3959L14.4576 29.5347H14.5259L14.5941 29.5203H14.6558L14.7096 29.5111ZM35.6899 29.5255H36.0522L36.1349 29.5399H36.2648L36.3331 29.5596H36.4079L36.4761 29.5806L36.5982 29.6082L36.6664 29.6226L36.7281 29.6344L36.7977 29.6554L36.8594 29.6764L36.9132 29.6909L36.9749 29.7106L37.0431 29.7316L37.0969 29.7591L37.1652 29.7854L37.2282 29.8129L37.2899 29.8484L37.3371 29.8746L37.3988 29.9101L37.4605 29.9363L37.5169 29.9718L37.5786 30.0124L37.6259 30.0479L37.7361 30.1306L37.7899 30.1634L37.7479 30.2172L37.7151 30.2736L37.6744 30.3209L37.6324 30.3747L37.5996 30.4364L37.5642 30.4928L37.5235 30.5401L37.4815 30.5939L37.4487 30.6503L37.4067 30.7041L37.3739 30.7514L37.3319 30.8052L37.2991 30.8682L37.2571 30.922L37.2164 30.9693L37.1744 31.0231L37.1416 31.0795L37.0877 31.0375L37.0247 31.0047L36.9775 30.9693L36.9237 30.9364L36.862 30.9089L36.8056 30.8734L36.7439 30.8472L36.6966 30.8196L36.6284 30.7934L36.5798 30.7658L36.526 30.7448L36.4039 30.7041L36.2674 30.6621L36.0627 30.6214L35.9944 30.6149L35.8697 30.6004H35.7267L35.6519 30.6149L35.5836 30.6293L35.5219 30.6437L35.4681 30.67L35.4196 30.6976L35.3657 30.7448L35.3251 30.8065L35.2975 30.8695V31.0323L35.3329 31.1071L35.3592 31.1491L35.4012 31.1897L35.4694 31.2252L35.5232 31.258L35.5849 31.2856L35.6532 31.3118L35.7424 31.3328L35.7897 31.3538L35.8461 31.3682L35.9144 31.3827L35.9682 31.4024L36.0299 31.4168L36.1047 31.4378L36.1729 31.4588L36.2477 31.4785L36.3226 31.4929L36.3842 31.5139L36.4591 31.5336L36.5273 31.5481L36.589 31.5625L36.7951 31.6242L36.8489 31.6452L36.9171 31.6662L36.9788 31.6924L37.0471 31.7279L37.1836 31.7817L37.2452 31.8171L37.3555 31.8854L37.4566 31.9602L37.5196 32.0009L37.5668 32.0481L37.6141 32.1046L37.6626 32.1518L37.6954 32.1991L37.744 32.2673L37.7768 32.3159L37.8044 32.3841L37.8306 32.4248L37.8516 32.4931L37.8726 32.5495L37.8871 32.6112L37.9133 32.7477L37.9199 32.8159L37.9264 32.8776V33.0417L37.9199 33.1165L37.9054 33.253L37.891 33.3213L37.8713 33.3829L37.8569 33.4512L37.8359 33.5194L37.8162 33.5811L37.7886 33.6297L37.7611 33.6914L37.7282 33.7452L37.6862 33.7938L37.618 33.9027L37.5353 33.9985L37.4881 34.0313L37.4342 34.0799L37.3923 34.1206L37.3384 34.1612L37.2846 34.1888L37.2308 34.2308L37.1678 34.2636L37.0458 34.3253L36.9775 34.3529L36.9158 34.3791L36.8476 34.4001L36.7859 34.4211L36.7294 34.4356L36.5929 34.4618L36.5457 34.4762L36.4774 34.4907H36.4092L36.3475 34.5051H36.2792L36.211 34.5196H35.7241L35.5193 34.4986L35.4511 34.4841L35.3894 34.4776L35.2529 34.4513L35.1781 34.4369L35.1164 34.4224L35.0481 34.4014L34.9786 34.387L34.9169 34.3673L34.8486 34.3463L34.7804 34.3188L34.7266 34.2991L34.6583 34.2781L34.5901 34.2505L34.5415 34.2242L34.4732 34.2032L34.4194 34.1678L34.3512 34.1416L34.2974 34.1061L34.2488 34.0733L34.1806 34.0379L34.1333 34.0116L34.0795 33.9696L34.0257 33.9368L33.9692 33.8948L33.922 33.8541L33.8682 33.8121L33.8196 33.7793L33.7658 33.7308L33.8078 33.6769L33.8551 33.6297L33.8957 33.5811L33.9443 33.5273L33.9771 33.4801L34.0191 33.4263L34.0664 33.3777L34.1071 33.3304L34.1556 33.2766L34.1884 33.2281L34.237 33.1808L34.2777 33.127L34.3197 33.0784L34.3669 33.0246L34.3997 32.9774L34.4483 32.9288L34.4956 32.875L34.5428 32.917L34.6058 32.9577L34.6531 32.9984L34.7213 33.0338L34.7686 33.0693L34.8302 33.1099L34.8867 33.1454L34.9484 33.1716L34.9956 33.2071L35.0573 33.2267L35.1256 33.2543L35.182 33.2819L35.2437 33.3016L35.2975 33.3291L35.3657 33.3501L35.4274 33.3698L35.4957 33.3908L35.5639 33.3974L35.6269 33.4184L35.6952 33.4249H35.77L35.8317 33.4446H36.2005L36.2622 33.4328L36.3304 33.4184L36.3777 33.4118L36.4341 33.3908L36.4814 33.3646L36.5431 33.3226L36.5785 33.2753L36.6047 33.2215L36.6257 33.1585V33.001L36.5982 32.9393L36.5654 32.8855L36.5234 32.8448L36.4617 32.8028L36.4144 32.7831L36.3527 32.7556L36.2845 32.728L36.2097 32.6952L36.1611 32.6807L36.1073 32.6663L36.0391 32.6453L35.9918 32.6335L35.9236 32.6125L35.8553 32.6059L35.7857 32.5784L35.7175 32.5718L35.6427 32.5521L35.581 32.5377L35.5127 32.5167L35.4445 32.5022L35.3762 32.4826L35.3146 32.4616L35.2463 32.4471L35.1925 32.4261L35.0678 32.3854L34.9996 32.3579L34.9313 32.3382L34.7948 32.2818L34.7331 32.2489L34.6649 32.2135L34.6176 32.1807L34.5546 32.1453L34.5074 32.1124L34.4457 32.077L34.3564 31.9877L34.3092 31.9471L34.2265 31.8512L34.1911 31.804L34.1648 31.7568L34.1228 31.6938L34.1031 31.6465L34.0401 31.4824L34.0283 31.4142L34.0139 31.3525V31.2908L33.9994 31.2226V30.943L34.0139 30.8065L34.0283 30.7501L34.0401 30.6884L34.0611 30.6346L34.0756 30.5663L34.1031 30.5191L34.1294 30.4495L34.1569 30.3957L34.1832 30.3274L34.2186 30.2802L34.2659 30.2264L34.3013 30.1699L34.3551 30.1227L34.3958 30.0754L34.4378 30.019L34.4995 29.9718L34.5415 29.9363L34.5953 29.8956L34.7042 29.8274L34.7659 29.7919L34.8906 29.7303L34.9444 29.7106L35.0061 29.6896L35.0744 29.662L35.1426 29.6423L35.1912 29.6279L35.2529 29.6134L35.3067 29.599L35.3684 29.5846L35.4366 29.5701L35.5731 29.5583L35.6361 29.5518L35.6899 29.5255ZM19.5226 29.5727H20.7603L20.8167 29.6974L20.8429 29.7513L20.8639 29.8195L20.8915 29.8812L20.9112 29.935L20.9466 29.9967L20.9873 30.1214L21.0228 30.1831L21.0766 30.3051L21.091 30.3589L21.1999 30.6057L21.2209 30.6674L21.2485 30.7238L21.2813 30.7855L21.2958 30.8472L21.3312 30.9154L21.343 30.9771L21.406 31.0992L21.4323 31.1478L21.4598 31.216L21.4808 31.2843L21.5005 31.3315L21.5359 31.3997L21.5569 31.4562L21.5832 31.5244L21.6042 31.5717L21.6318 31.6399L21.6934 31.762L21.7131 31.8237L21.7276 31.8867L21.7551 31.9484L21.7879 32.0022L21.8155 32.0704L21.8431 32.1321L21.8628 32.1859L21.9192 32.3106L21.9389 32.3723L21.9664 32.434L21.9874 32.4957L22.0137 32.5495L22.0491 32.6125L22.0754 32.6742L22.1029 32.728L22.1174 32.7963L22.1712 32.9183L22.1987 32.9748L22.2184 33.0364L22.2749 33.1585L22.3077 33.2267L22.3221 33.2806L22.3576 33.3501L22.3694 33.3974L22.3969 33.4656L22.4324 33.5339L22.4586 33.5811L22.4796 33.6494L22.5072 33.7058L22.5269 33.7741L22.5623 33.8213L22.603 33.9578L22.6306 34.0064L22.6568 34.0746L22.6923 34.1284L22.7198 34.1967L22.7316 34.2584L22.7526 34.3122L22.7802 34.3739L22.813 34.4303H21.4467L21.4139 34.3739L21.3929 34.3122L21.3653 34.2505L21.3391 34.1823L21.3246 34.1284L21.2682 34.0064L21.2485 33.9499L21.1947 33.8279L21.1737 33.7741L21.1461 33.7058L21.1054 33.5811L21.0779 33.5273H19.1774L19.1511 33.589L19.1301 33.6454L19.1026 33.7137L19.0763 33.7754L19.0619 33.8292L19.0343 33.8974L19.0081 33.9512L18.9871 34.0129L18.9595 34.0694L18.9333 34.1376L18.9123 34.1849L18.8847 34.2531L18.865 34.3214L18.8374 34.3699L18.8164 34.4382H17.4633L17.4829 34.3752L17.5394 34.2531L17.5591 34.1849L17.5801 34.1311L17.6155 34.0694L17.6417 34.0077L17.6693 33.9512L17.6838 33.8896L17.71 33.8213L17.7454 33.7675L17.7717 33.7058L17.8137 33.5811L17.8754 33.4591L17.8964 33.3974L17.9226 33.3436L17.9436 33.2806L18.0263 33.0968L18.0539 33.0286L18.0736 32.9748L18.0946 32.9131L18.13 32.8566L18.1562 32.7884L18.1772 32.7267L18.1983 32.6729L18.2245 32.6046L18.2599 32.5561L18.2809 32.4878L18.3072 32.434L18.3282 32.3723L18.3558 32.3041L18.3886 32.2503L18.4096 32.182L18.4358 32.1334L18.4568 32.0652L18.4844 31.9969L18.5106 31.9497L18.5382 31.8814L18.5592 31.825L18.5854 31.7568L18.6064 31.7095L18.6419 31.6412L18.6681 31.573L18.6957 31.5192L18.7101 31.4575L18.7364 31.3945L18.7718 31.3328L18.7981 31.279L18.8125 31.2108L18.8401 31.1491L18.8676 31.0926L18.9214 30.9706L18.9411 30.9167L18.9976 30.7802L19.0238 30.7317L19.0514 30.6634L19.0724 30.6096L19.0921 30.5414L19.1196 30.4797L19.1551 30.4259L19.1813 30.3576L19.2023 30.3091L19.2233 30.2408L19.2496 30.187L19.285 30.1253L19.306 30.0571L19.3257 30.0006L19.3533 29.9324L19.3795 29.8851L19.4149 29.8169L19.4359 29.7486L19.4556 29.7014L19.4832 29.6331L19.5226 29.5727ZM23.3656 29.6082H24.7188L24.7608 29.662L24.829 29.7722L24.8618 29.8339L24.8973 29.8812L24.9301 29.9429L24.9655 29.9967L24.9983 30.0597L25.0338 30.1135L25.0666 30.1607L25.102 30.2224L25.1348 30.2789L25.1834 30.3327L25.2031 30.3865L25.2451 30.4482L25.2779 30.5046L25.3199 30.5519L25.3474 30.6136L25.3803 30.6674L25.4223 30.7238L25.4419 30.7776L25.4905 30.8393L25.5916 31.0034L25.6191 31.0572L25.6598 31.111L25.6953 31.1648L25.7281 31.2278L25.8318 31.3906L25.8646 31.4536L25.9 31.5074L25.9407 31.4536L25.9683 31.384L26.0089 31.3367L26.0444 31.2751L26.0772 31.2278L26.1048 31.1596L26.152 31.111L26.1874 31.0493L26.215 31.0021L26.2478 30.9456L26.2898 30.8839L26.3226 30.8367L26.3581 30.7684L26.3909 30.7212L26.4329 30.6582L26.4591 30.6109L26.4946 30.5427L26.5274 30.502L26.5628 30.4456L26.6035 30.3773L26.6389 30.3301L26.6652 30.2684L26.7072 30.2198L26.74 30.1516L26.7754 30.1109L26.8161 30.0571L26.8516 29.9888L26.8844 29.9402L26.9198 29.8786L26.9526 29.8313L26.9881 29.7631L27.0288 29.7145L27.0563 29.6528L27.0917 29.6056H28.4659V34.4868H27.1797V31.615L27.1469 31.6636L27.1049 31.7318L27.0721 31.7725L27.0301 31.8263L27.0038 31.8946L26.9618 31.9431L26.929 31.9904L26.887 32.0586L26.8187 32.1544L26.7781 32.2083L26.7426 32.2765L26.7019 32.3251L26.6665 32.3723L26.6402 32.4406L26.5983 32.4878L26.5654 32.5364L26.5234 32.6046L26.4906 32.6519L26.4486 32.7057L26.4158 32.7674L26.3883 32.8159L26.3476 32.8698L26.3121 32.9314L26.2714 32.9787L26.2294 33.0351L26.2032 33.0889L26.1678 33.1506L26.1271 33.1992L26.0851 33.253L26.0588 33.3213L26.0103 33.3619L25.984 33.4158L25.942 33.4853L25.9092 33.5326H25.8816L25.8409 33.4709L25.8055 33.4144L25.7727 33.3528L25.7373 33.3055L25.6966 33.2438L25.6611 33.19L25.6204 33.1336L25.585 33.0798L25.5522 33.0181L25.5168 32.9708L25.4695 32.9078L25.4419 32.854L25.4012 32.7923L25.3658 32.7451L25.333 32.6834L25.291 32.6269L25.2582 32.5587L25.2162 32.5114L25.1834 32.4498L25.1479 32.3933L25.1151 32.3316L25.0731 32.2844L25.0403 32.2227L24.9983 32.1689L24.9721 32.1124L24.9301 32.0586L24.8973 31.9969L24.8553 31.9497L24.8224 31.8867L24.7804 31.8329L24.7542 31.7712L24.7056 31.7239L24.6794 31.6609L24.6374 31.6071V34.4854H23.3734V29.6515L23.3656 29.6082ZM29.4346 29.6082H33.2841V30.7094H30.7129V31.4956H33.0229V32.5351H30.7129V33.3685H33.3169V34.4762H29.4411V29.6502L29.4346 29.6082ZM20.1237 31.1044L20.1027 31.1661L20.083 31.2226L20.0554 31.2908L20.0279 31.3525L20.0082 31.4142L19.9518 31.5362L19.9255 31.6045L19.9045 31.6609L19.8835 31.7292L19.8573 31.7764L19.8363 31.8447L19.8087 31.9129L19.7824 31.9615L19.7614 32.0298L19.7352 32.0836L19.7142 32.1518L19.6787 32.2135L19.6643 32.2673L19.6381 32.3356L19.6105 32.3986L19.5895 32.4524L19.5633 32.5206H20.6907L20.6644 32.4524L20.6434 32.3907L20.5896 32.266L20.5686 32.2043L20.5411 32.1505L20.5214 32.0822L20.4938 32.0206L20.4728 31.9589L20.4466 31.9024L20.4256 31.8407L20.398 31.7725L20.3783 31.7187L20.3219 31.5966L20.3101 31.5336L20.2825 31.4719L20.2549 31.4037L20.2353 31.3564L20.1788 31.2199L20.1591 31.1582L20.1237 31.1044ZM18.1156 40.2447H32.1344L24.9786 42.6033L18.1156 40.2447Z" fill="white"/>
</svg>
