<svg width="48" height="48" viewBox="0 0 48 48" fill="none" xmlns="http://www.w3.org/2000/svg">
	<path d="M24 4C12.972 4 4 12.972 4 24C4 34.006 11.394 42.295 21 43.75V29H17C16.448 29 16 28.553 16 28V25C16 24.447 16.448 24 17 24H21V20.368C21 15.617 23.427 13 27.834 13C29.62 13 31.029 13.124 31.088 13.129C31.604 13.175 32 13.607 32 14.125V17.5C32 18.053 31.552 18.5 31 18.5H29C27.897 18.5 27 19.397 27 20.5V24H31C31.287 24 31.56 24.123 31.75 24.338C31.94 24.554 32.028 24.84 31.993 25.124L31.618 28.124C31.555 28.624 31.129 29 30.625 29H27V43.75C36.606 42.295 44 34.006 44 24C44 12.972 35.028 4 24 4Z" fill="white"/>
</svg>
