<svg width="48" height="48" viewBox="0 0 48 48" fill="none" xmlns="http://www.w3.org/2000/svg">
	<path d="M16.5 5C10.159 5 5 10.159 5 16.5V31.5C5 37.841 10.159 43 16.5 43H31.5C37.841 43 43 37.841 43 31.5V16.5C43 10.159 37.841 5 31.5 5H16.5ZM34 12C35.105 12 36 12.895 36 14C36 15.104 35.105 16 34 16C32.895 16 32 15.104 32 14C32 12.895 32.895 12 34 12ZM24 14C29.514 14 34 18.486 34 24C34 29.514 29.514 34 24 34C18.486 34 14 29.514 14 24C14 18.486 18.486 14 24 14ZM24 17C23.0807 17 22.1705 17.1811 21.3212 17.5328C20.4719 17.8846 19.7003 18.4002 19.0503 19.0503C18.4002 19.7003 17.8846 20.4719 17.5328 21.3212C17.1811 22.1705 17 23.0807 17 24C17 24.9193 17.1811 25.8295 17.5328 26.6788C17.8846 27.5281 18.4002 28.2997 19.0503 28.9497C19.7003 29.5998 20.4719 30.1154 21.3212 30.4672C22.1705 30.8189 23.0807 31 24 31C24.9193 31 25.8295 30.8189 26.6788 30.4672C27.5281 30.1154 28.2997 29.5998 28.9497 28.9497C29.5998 28.2997 30.1154 27.5281 30.4672 26.6788C30.8189 25.8295 31 24.9193 31 24C31 23.0807 30.8189 22.1705 30.4672 21.3212C30.1154 20.4719 29.5998 19.7003 28.9497 19.0503C28.2997 18.4002 27.5281 17.8846 26.6788 17.5328C25.8295 17.1811 24.9193 17 24 17Z" fill="white"/>
</svg>
