<svg width="50" height="50" viewBox="0 0 50 50" fill="none" xmlns="http://www.w3.org/2000/svg">
    <path d="M26.8094 18.8388C26.8094 16.7527 28.5038 15.0614 30.5923 15.0614C32.6808 15.0614 34.3751 16.7527 34.3751 18.8374C34.3751 20.9235 32.6821 22.6135 30.5923 22.6135C30.5923 22.6135 30.5923 22.6135 30.5909 22.6135C28.5024 22.6135 26.8094 20.9235 26.8094 18.8388C26.8094 18.8388 26.8081 18.8388 26.8081 18.8374L26.8094 18.8388ZM35.6138 18.8468C35.6138 16.0711 33.3596 13.8209 30.5789 13.8209C27.7982 13.8209 25.544 16.0711 25.544 18.8468C25.544 21.6225 27.7982 23.8726 30.5789 23.8726C33.3583 23.8686 35.6098 21.6198 35.6138 18.8468ZM16.5539 34.3525L14.0939 33.3361C14.7941 34.774 16.2465 35.7476 17.9262 35.7476C19.686 35.7476 21.1973 34.6793 21.8413 33.156L21.852 33.128C22.0591 32.6452 22.1807 32.0823 22.1807 31.4927C22.1807 29.1492 20.2779 27.2499 17.9302 27.2499C17.389 27.2499 16.8719 27.3512 16.3962 27.534L16.4256 27.5246L18.9684 28.5743C20.1069 29.0599 20.8913 30.1696 20.8913 31.4607C20.8913 33.1894 19.4869 34.5912 17.7551 34.5912C17.3222 34.5912 16.9106 34.5032 16.5352 34.3458L16.5552 34.3538L16.5539 34.3525ZM23.9659 4C13.4672 4.00133 4.85652 12.0643 4.00535 22.3241L4 22.3961L14.7406 26.827C15.6332 26.2108 16.7383 25.844 17.9302 25.844C17.9315 25.844 17.9329 25.844 17.9329 25.844C18.0384 25.844 18.1413 25.8507 18.2469 25.8547L23.0239 18.9508V18.8521C23.0279 14.6906 26.4086 11.3187 30.5776 11.3187C34.7493 11.3187 38.1313 14.6946 38.1313 18.8588C38.1313 23.023 34.7493 26.3989 30.5776 26.3989H30.4025L23.5958 31.2513C23.5958 31.338 23.6025 31.4261 23.6025 31.5168C23.6025 31.5181 23.6025 31.5194 23.6025 31.5208C23.6025 34.6446 21.065 37.1775 17.9355 37.1775C15.2003 37.1775 12.9167 35.2421 12.3862 32.6692L12.3795 32.6332L4.68949 29.4547C7.14949 37.9178 14.8462 44 23.9646 44C35.0299 44 44 35.0461 44 24.0007C44 12.9553 35.0299 4.00133 23.9646 4.00133L23.9659 4Z" fill="white"/>
</svg>
