<svg xmlns="http://www.w3.org/2000/svg" width="20" height="20" viewBox="0 0 20 20" fill="none">
	<path d="M14.0623 5.88541C12.9946 4.79166 11.5363 4.16666 9.9738 4.16666C6.79671 4.16666 4.19255 6.77083 4.19255 9.94791C4.19255 10.9896 4.479 11.9792 4.9738 12.8385L4.1665 15.8333L7.21338 15.0521C8.07275 15.4948 9.01025 15.7552 9.9738 15.7552C13.1769 15.7552 15.8332 13.151 15.8332 9.97396C15.8332 8.41146 15.1561 6.97916 14.0623 5.88541ZM9.9738 14.7656C9.11442 14.7656 8.28109 14.5312 7.52588 14.0885L7.36963 13.9844L5.54671 14.4792L6.0415 12.7083L5.9113 12.526C5.44255 11.7448 5.18213 10.8594 5.18213 9.94791C5.18213 7.31771 7.34359 5.15625 9.99984 5.15625C11.2759 5.15625 12.4738 5.65104 13.3853 6.5625C14.2967 7.47396 14.8436 8.67187 14.8436 9.97396C14.8436 12.6042 12.63 14.7656 9.9738 14.7656ZM12.63 11.1719C12.4738 11.0937 11.7707 10.7552 11.6405 10.7031C11.5103 10.651 11.4061 10.625 11.3019 10.7812C11.2238 10.9115 10.9373 11.25 10.8592 11.3542C10.755 11.4323 10.6769 11.4583 10.5467 11.3802C9.68734 10.9635 9.14046 10.625 8.56755 9.66146C8.4113 9.40104 8.7238 9.42708 8.98421 8.88021C9.0363 8.77604 9.01025 8.69791 8.98421 8.61979C8.95817 8.54166 8.64567 7.83854 8.5415 7.55208C8.4113 7.26562 8.30713 7.29166 8.20296 7.29166C8.12484 7.29166 8.02067 7.29166 7.94255 7.29166C7.83838 7.29166 7.68213 7.31771 7.55192 7.47396C7.42171 7.63021 7.05713 7.96875 7.05713 8.67187C7.05713 9.40104 7.55192 10.0781 7.63005 10.1823C7.70817 10.2604 8.64567 11.7187 10.104 12.3437C11.0155 12.7604 11.38 12.7865 11.8488 12.7083C12.1092 12.6823 12.6821 12.3698 12.8123 12.0312C12.9425 11.6927 12.9425 11.4062 12.8905 11.3542C12.8644 11.276 12.7603 11.25 12.63 11.1719Z" fill="white"/>
</svg>
