<svg width="981" height="981" viewBox="0 0 981 981" fill="none" xmlns="http://www.w3.org/2000/svg">
<path d="M367.77 204.586H286.06C263.496 204.586 245.204 222.878 245.204 245.441V735.706C245.204 758.27 263.496 776.562 286.06 776.562H367.77C390.334 776.562 408.626 758.27 408.626 735.706V245.441C408.626 222.878 390.334 204.586 367.77 204.586Z" stroke="white" stroke-width="81.7108" stroke-linecap="round" stroke-linejoin="round"/>
<path d="M694.613 204.586H612.902C590.338 204.586 572.047 222.878 572.047 245.441V735.706C572.047 758.27 590.338 776.562 612.902 776.562H694.613C717.177 776.562 735.469 758.27 735.469 735.706V245.441C735.469 222.878 717.177 204.586 694.613 204.586Z" stroke="white" stroke-width="81.7108" stroke-linecap="round" stroke-linejoin="round"/>
</svg>
