<svg viewBox="0 0 29 55" fill="none" xmlns="http://www.w3.org/2000/svg">
  <path
    d="M28.3501 3.81758L5.2482 27.5024L28.3501 51.1873C28.7637 51.6104 28.9953 52.1785 28.9953 52.7701C28.9953 53.3616 28.7637 53.9297 28.3501 54.3528C28.1492 54.5577 27.9095 54.7205 27.6449 54.8316C27.3802 54.9428 27.0961 55 26.809 55C26.522 55 26.2379 54.9428 25.9732 54.8316C25.7086 54.7205 25.4689 54.5577 25.268 54.3528L0.686616 29.1563C0.255048 28.7138 0.0135133 28.1203 0.0135134 27.5024C0.0135134 26.8845 0.255049 26.291 0.686616 25.8486L25.2632 0.652016C25.4643 0.44567 25.7046 0.281663 25.9701 0.169677C26.2356 0.0576908 26.5209 -1.50587e-06 26.8091 -1.49327e-06C27.0972 -1.48068e-06 27.3825 0.0576908 27.648 0.169677C27.9135 0.281663 28.1538 0.44567 28.3549 0.652016C28.7685 1.07519 29 1.64326 29 2.2348C29 2.82634 28.7685 3.39441 28.3549 3.81758L28.3501 3.81758Z"
    fill="white" fill-opacity="0.5"/>
</svg>
