<svg xmlns="http://www.w3.org/2000/svg" width="14" height="15" viewBox="0 0 14 15" fill="none">
	<path fill-rule="evenodd" clip-rule="evenodd" d="M0.333008 7.50004C0.333008 3.81814 3.31778 0.833374 6.99967 0.833374C10.6816 0.833374 13.6663 3.81814 13.6663 7.50004C13.6663 11.1819 10.6816 14.1667 6.99967 14.1667C3.31778 14.1667 0.333008 11.1819 0.333008 7.50004ZM9.47108 6.63811C9.73143 6.37776 9.73143 5.95565 9.47108 5.6953C9.21073 5.43495 8.78862 5.43495 8.52827 5.6953L6.33301 7.89057L5.47108 7.02864C5.21073 6.76829 4.78862 6.76829 4.52827 7.02864C4.26792 7.28899 4.26792 7.7111 4.52827 7.97145L5.8616 9.30478C6.12195 9.56513 6.54406 9.56513 6.80441 9.30478L9.47108 6.63811Z" fill="#14B87E"/>
</svg>
