<svg xmlns="http://www.w3.org/2000/svg" width="25" height="25" viewBox="0 0 25 25" fill="none">
	<path fill-rule="evenodd" clip-rule="evenodd"
		  d="M17.52 6.05917C16.7786 5.3177 15.5598 5.3143 14.7977 6.07635L14.3372 6.53687C13.9459 6.92815 13.3115 6.92815 12.9202 6.53687C12.5289 6.14558 12.5289 5.51117 12.9202 5.11988L13.3807 4.65936C14.9142 3.12585 17.4019 3.10707 18.937 4.64219L20.4828 6.18799C22.0179 7.7231 21.9991 10.2108 20.4656 11.7443L16.8287 15.3812C15.2952 16.9147 12.8075 16.9335 11.2724 15.3984L10.4995 14.6255C10.1082 14.2342 10.1082 13.5998 10.4995 13.2085C10.8908 12.8172 11.5252 12.8172 11.9165 13.2085L12.6894 13.9814C13.4309 14.7229 14.6497 14.7263 15.4117 13.9642L19.0487 10.3273C19.8107 9.56525 19.8073 8.34644 19.0658 7.60497L17.52 6.05917ZM12.5606 11.0186C11.8191 10.2771 10.6003 10.2737 9.83827 11.0358L6.20135 14.6727C5.4393 15.4348 5.4427 16.6536 6.18417 17.395L7.72997 18.9408C8.47144 19.6823 9.69025 19.6857 10.4523 18.9237L10.9128 18.4631C11.3041 18.0718 11.9385 18.0718 12.3298 18.4631C12.7211 18.8544 12.7211 19.4888 12.3298 19.8801L11.8693 20.3406C10.3358 21.8742 7.8481 21.8929 6.31299 20.3578L4.76719 18.812C3.23207 17.2769 3.25085 14.7892 4.78436 13.2557L8.42129 9.6188C9.9548 8.08529 12.4425 8.06651 13.9776 9.60163L14.7505 10.3745C15.1418 10.7658 15.1418 11.4002 14.7505 11.7915C14.3592 12.1828 13.7248 12.1828 13.3335 11.7915L12.5606 11.0186Z"
		  fill="white"/>
</svg>
