<svg viewBox="0 0 24 25" fill="none" xmlns="http://www.w3.org/2000/svg">
  <path
    d="M10.08 3.35754H3.36002C2.78402 3.35754 2.40002 3.74154 2.40002 4.31754V11.0375C2.40002 11.6135 2.78402 11.9975 3.36002 11.9975H10.08C10.656 11.9975 11.04 11.6135 11.04 11.0375V4.31754C11.04 3.74154 10.656 3.35754 10.08 3.35754ZM10.08 13.9175H3.36002C2.78402 13.9175 2.40002 14.3015 2.40002 14.8775V21.5975C2.40002 22.1735 2.78402 22.5575 3.36002 22.5575H10.08C10.656 22.5575 11.04 22.1735 11.04 21.5975V14.8775C11.04 14.3015 10.656 13.9175 10.08 13.9175ZM20.64 3.35754H13.92C13.344 3.35754 12.96 3.74154 12.96 4.31754V11.0375C12.96 11.6135 13.344 11.9975 13.92 11.9975H20.64C21.216 11.9975 21.6 11.6135 21.6 11.0375V4.31754C21.6 3.74154 21.216 3.35754 20.64 3.35754ZM20.64 13.9175H13.92C13.344 13.9175 12.96 14.3015 12.96 14.8775V21.5975C12.96 22.1735 13.344 22.5575 13.92 22.5575H20.64C21.216 22.5575 21.6 22.1735 21.6 21.5975V14.8775C21.6 14.3015 21.216 13.9175 20.64 13.9175Z"
    fill="white"/>
</svg>
