<svg width="14" height="13" viewBox="0 0 14 13" fill="none" xmlns="http://www.w3.org/2000/svg">
<path d="M9.67735 0.569355C10.303 -0.0563216 11.3191 -0.0563216 11.9448 0.569355L12.9308 1.55625C13.5565 2.18173 13.5565 3.19691 12.9308 3.82264L11.7195 5.03404L8.46604 1.78076L9.67735 0.569355ZM11.1539 5.5997L5.31766 11.434C5.05738 11.6943 4.73453 11.887 4.38165 11.9896L1.37017 12.8757C1.15944 12.9382 0.931447 12.8807 0.77603 12.703C0.620613 12.5703 0.562501 12.3425 0.624517 12.1298L1.51032 9.11879C1.61443 8.76588 1.80539 8.443 2.06592 8.1827L7.90044 2.34692L11.1539 5.5997Z" fill="#B4ABD0"/>
</svg>
