<svg xmlns="http://www.w3.org/2000/svg" width="25" height="25" viewBox="0 0 25 25" fill="none">
	<path fill-rule="evenodd" clip-rule="evenodd" d="M17.375 12.5C17.375 11.3954 18.2704 10.5 19.375 10.5C20.4796 10.5 21.375 11.3954 21.375 12.5C21.375 13.6046 20.4796 14.5 19.375 14.5C18.2704 14.5 17.375 13.6046 17.375 12.5Z" fill="white"/>
	<path fill-rule="evenodd" clip-rule="evenodd" d="M10.375 12.5C10.375 11.3954 11.2704 10.5 12.375 10.5C13.4796 10.5 14.375 11.3954 14.375 12.5C14.375 13.6046 13.4796 14.5 12.375 14.5C11.2704 14.5 10.375 13.6046 10.375 12.5Z" fill="white"/>
	<path fill-rule="evenodd" clip-rule="evenodd" d="M3.375 12.5C3.375 11.3954 4.27043 10.5 5.375 10.5C6.47957 10.5 7.375 11.3954 7.375 12.5C7.375 13.6046 6.47957 14.5 5.375 14.5C4.27043 14.5 3.375 13.6046 3.375 12.5Z" fill="white"/>
</svg>
