<svg width="36" height="32" viewBox="0 0 36 32" fill="none" xmlns="http://www.w3.org/2000/svg">
	<g clip-path="url(#clip0_1_1283)">
		<path d="M9.30473 13.4949H1.65273C1.43059 13.4893 1.20985 13.5312 1.0056 13.6178C0.801346 13.7044 0.6184 13.8336 0.469272 13.9966C0.320144 14.1596 0.208351 14.3526 0.141538 14.5623C0.074725 14.772 0.054468 14.9935 0.0821523 15.2117L-2.90975e-05 30.0799C-0.00454759 30.1235 -0.00454759 30.1674 -2.90978e-05 30.211C0.0728298 30.7032 0.318788 31.1543 0.694577 31.4849C1.07037 31.8154 1.55191 32.0042 2.0545 32.0181H11.825C12.0422 32.0235 12.2581 31.9833 12.4584 31.9002C12.6588 31.817 12.8391 31.6928 12.9875 31.5358C13.1359 31.3787 13.2489 31.1923 13.3193 30.9889C13.3896 30.7855 13.4156 30.5696 13.3955 30.3555L11.2771 14.8502H11.2451C11.0925 14.4604 10.8269 14.1238 10.4817 13.8827C10.1365 13.6416 9.72708 13.5067 9.30473 13.4949Z" fill="#535E99"/>
		<path d="M35.9817 19.9147C35.9385 19.4166 35.7897 18.933 35.5451 18.4956C35.3004 18.0581 34.9654 17.6765 34.5618 17.3757C34.8414 17.1809 35.0737 16.927 35.2419 16.6324C35.4101 16.3379 35.51 16.0099 35.5343 15.6725C35.5912 15.0213 35.5145 14.3656 35.309 13.7445C35.1034 13.1234 34.7732 12.5498 34.3381 12.0582C33.959 11.6599 33.4989 11.3457 32.9882 11.1363C32.4775 10.9268 31.9277 10.8268 31.375 10.8429H24.4124C24.4124 9.84893 24.4124 8.28124 24.4718 6.89425C24.5768 4.89284 23.4445 2.44868 22.3259 1.16561C21.8948 0.58328 21.2601 0.180638 20.5454 0.0361429C20.353 0.0128908 20.1593 0.000822452 19.9655 0C18.678 0 17.1622 0.506 16.8655 1.62191C16.7772 2.13763 16.8195 2.66696 16.9887 3.1625C17.2556 4.09226 17.3101 5.0691 17.1485 6.02231C16.7696 8.13667 13.5371 13.2509 12.4916 14.1906L14.6694 30.1251C16.103 30.6763 19.4176 31.8735 21.1617 31.8735H29.8684C30.4619 31.8735 32.4434 31.747 33.0369 30.098C33.2916 29.3854 33.2556 28.6026 32.9365 27.9159C32.9365 27.8526 32.9365 27.7984 32.9365 27.7668C32.9365 27.7351 32.9365 27.7351 32.9365 27.7216C33.4383 27.6155 33.8958 27.3614 34.2487 26.9928C34.6016 26.6242 34.8334 26.1585 34.9134 25.6569C35.0154 25.1918 35.019 24.7109 34.9239 24.2443C34.8288 23.7778 34.6371 23.3358 34.361 22.9462C35.5024 22.4176 36.105 21.3514 35.9817 19.9147Z" fill="#535E99"/>
	</g>
	<defs>
		<clipPath id="clip0_1_1283">
			<rect width="36" height="32" fill="white"/>
		</clipPath>
	</defs>
</svg>
