<svg width="36" height="36" viewBox="0 0 36 36" fill="none" xmlns="http://www.w3.org/2000/svg">
	<g clip-path="url(#clip0_1_1274)">
		<path d="M2.39998 12.1861C1.98481 12.0913 1.55017 12.1344 1.16158 12.3089C0.773001 12.4834 0.451544 12.7797 0.245682 13.1533C0.0398208 13.5269 -0.0392853 13.9574 0.0202917 14.3799C0.0798687 14.8025 0.274899 15.1942 0.575976 15.496C0.575976 15.496 0.575976 15.496 0.599976 15.496L4.29118 19.2437L10.1184 13.3888L2.39998 12.1572C2.39773 12.1667 2.39773 12.1766 2.39998 12.1861Z" fill="#535E99"/>
		<path d="M23.664 33.2817H23.7024L22.5312 25.8826L16.7328 31.699L20.2848 35.259C20.2848 35.259 20.2848 35.259 20.3088 35.235C20.3531 35.3015 20.4029 35.3643 20.4576 35.4226C20.7781 35.7462 21.2008 35.9483 21.6535 35.9941C22.1062 36.04 22.5607 35.9268 22.9394 35.674C23.318 35.4212 23.5973 35.0444 23.7295 34.608C23.8616 34.1717 23.8385 33.7029 23.664 33.2817Z" fill="#535E99"/>
		<path d="M17.0784 20.5041L15.456 18.8828C15.3261 18.751 15.1714 18.6464 15.0008 18.575C14.8303 18.5036 14.6473 18.4668 14.4624 18.4668C14.2776 18.4668 14.0946 18.5036 13.924 18.575C13.7535 18.6464 13.5987 18.751 13.4688 18.8828L10.488 21.8704L10.0368 22.3226C9.77601 22.5886 9.62808 22.9455 9.62403 23.3185C9.62362 23.5043 9.65989 23.6884 9.73073 23.8601C9.80158 24.0318 9.9056 24.1878 10.0368 24.3191L11.6592 25.9404C11.7895 26.0716 11.9443 26.1756 12.1148 26.2466C12.2854 26.3176 12.4682 26.3542 12.6528 26.3541C12.8376 26.3552 13.0208 26.3192 13.1914 26.2481C13.3621 26.1771 13.5168 26.0724 13.6464 25.9404L17.0784 22.5054C17.2095 22.3745 17.3135 22.2189 17.3844 22.0476C17.4554 21.8763 17.4919 21.6926 17.4919 21.5072C17.4919 21.3217 17.4554 21.138 17.3844 20.9667C17.3135 20.7954 17.2095 20.6398 17.0784 20.5089V20.5041Z" fill="#535E99"/>
		<path d="M31.6032 15.3276L35.8224 2.69893C35.8837 2.56528 35.9288 2.42477 35.9568 2.28038C36.0207 1.96686 36.0046 1.64224 35.91 1.33661C35.8154 1.03098 35.6453 0.754258 35.4155 0.532097C35.1857 0.309936 34.9036 0.149535 34.5955 0.0657703C34.2873 -0.0179941 33.9631 -0.022409 33.6528 0.0529352C33.5593 0.0761381 33.4678 0.106702 33.3792 0.144342L21.0672 4.20956C20.6254 4.29181 20.2169 4.5007 19.8912 4.81092L11.1696 13.5523L4.89599 19.8354L3.83999 20.8986C3.40024 21.3482 3.15393 21.9528 3.15393 22.5824C3.15393 23.212 3.40024 23.8166 3.83999 24.2662L5.27999 25.7095L4.91999 26.4215L9.50879 31.0207L10.2144 30.6551L11.6976 32.1417C12.1462 32.5824 12.7494 32.8293 13.3776 32.8293C14.0058 32.8293 14.609 32.5824 15.0576 32.1417L16.1184 31.0785L22.3584 24.8243L31.1184 16.0636C31.3239 15.8503 31.4882 15.6008 31.6032 15.3276ZM14.088 26.3926C13.899 26.5823 13.6745 26.7328 13.4274 26.8355C13.1803 26.9381 12.9155 26.991 12.648 26.991C12.3805 26.991 12.1157 26.9381 11.8686 26.8355C11.6215 26.7328 11.397 26.5823 11.208 26.3926L9.59999 24.7521C9.41016 24.563 9.25951 24.3381 9.15671 24.0904C9.05392 23.8427 9.00099 23.5771 9.00099 23.3088C9.00099 23.0406 9.05392 22.775 9.15671 22.5273C9.25951 22.2796 9.41016 22.0547 9.59999 21.8656L10.0512 21.4133L13.0272 18.4306C13.2159 18.2403 13.4403 18.0893 13.6874 17.9863C13.9345 17.8833 14.1995 17.8302 14.4672 17.8302C14.7348 17.8302 14.9999 17.8833 15.247 17.9863C15.4941 18.0893 15.7185 18.2403 15.9072 18.4306L17.5248 20.0519C17.7152 20.2407 17.8664 20.4654 17.9695 20.7132C18.0727 20.9609 18.1258 21.2267 18.1258 21.4951C18.1258 21.7636 18.0727 22.0294 17.9695 22.2771C17.8664 22.5248 17.7152 22.7496 17.5248 22.9384L14.088 26.3926ZM20.2272 15.7221C19.7162 15.2101 19.3681 14.5578 19.2271 13.8475C19.086 13.1373 19.1583 12.4011 19.4347 11.732C19.7111 11.063 20.1793 10.4911 20.7801 10.0888C21.3808 9.6864 22.0871 9.47165 22.8096 9.47165C23.5321 9.47165 24.2384 9.6864 24.8391 10.0888C25.4399 10.4911 25.908 11.063 26.1845 11.732C26.4609 12.4011 26.5332 13.1373 26.3921 13.8475C26.251 14.5578 25.903 15.2101 25.392 15.7221C25.0531 16.0624 24.6506 16.3325 24.2075 16.5167C23.7644 16.701 23.2893 16.7958 22.8096 16.7958C22.3298 16.7958 21.8548 16.701 21.4117 16.5167C20.9686 16.3325 20.566 16.0624 20.2272 15.7221Z" fill="#535E99"/>
	</g>
	<defs>
		<clipPath id="clip0_1_1274">
			<rect width="36" height="36" fill="white"/>
		</clipPath>
	</defs>
</svg>
