<svg width="14" height="16" viewBox="0 0 14 16" fill="none" xmlns="http://www.w3.org/2000/svg">
<path d="M7.277 0.0839858C7.19494 0.0293785 7.09857 0.000244141 7 0.000244141C6.90143 0.000244141 6.80506 0.0293785 6.723 0.0839858C4.83513 1.35668 2.68312 2.18446 0.429 2.50499C0.3099 2.52207 0.200956 2.58153 0.122155 2.67245C0.043355 2.76338 -1.6039e-05 2.87967 4.44938e-09 2.99999V7.49999C4.44938e-09 11.391 2.307 14.23 6.82 15.967C6.93584 16.0117 7.06416 16.0117 7.18 15.967C11.693 14.23 14 11.39 14 7.49999V2.99999C14 2.87952 13.9565 2.76311 13.8775 2.67216C13.7985 2.58122 13.6893 2.52185 13.57 2.50499C11.3162 2.18431 9.16457 1.35654 7.277 0.0839858ZM8.5 6.99999C8.50016 7.31031 8.40407 7.61305 8.22497 7.86648C8.04587 8.1199 7.79258 8.31154 7.5 8.41499V10.5C7.5 10.6326 7.44732 10.7598 7.35355 10.8535C7.25979 10.9473 7.13261 11 7 11C6.86739 11 6.74021 10.9473 6.64645 10.8535C6.55268 10.7598 6.5 10.6326 6.5 10.5V8.41499C6.24076 8.32333 6.0117 8.16218 5.83786 7.94915C5.66401 7.73612 5.55206 7.4794 5.51425 7.20704C5.47644 6.93469 5.51422 6.65719 5.62345 6.40485C5.73269 6.15252 5.90919 5.93506 6.13365 5.77625C6.35812 5.61744 6.62192 5.52339 6.89623 5.50437C7.17053 5.48534 7.44479 5.54208 7.68903 5.66839C7.93327 5.7947 8.13809 5.98571 8.28111 6.22055C8.42414 6.45539 8.49986 6.72502 8.5 6.99999Z" fill="white"/>
</svg>
