<svg width="34" height="24" viewBox="0 0 34 24" fill="none" xmlns="http://www.w3.org/2000/svg">
	<path d="M33.6169 13.0152C33.2097 10.1621 31.221 3.4544 27.6713 0.929631C26.4429 0.056006 25.1401 -0.203728 23.799 0.158274C23.0666 0.356087 22.4601 0.632632 21.9449 1.00444C20.5004 2.0459 18.8441 2.59647 17.1553 2.59647H16.8448C15.1561 2.59647 13.4997 2.04618 12.0552 1.00444C11.5397 0.632632 10.9335 0.356087 10.2012 0.158274C8.86 -0.203728 7.55726 0.056006 6.32881 0.929631C2.77944 3.4544 0.790679 10.1621 0.38346 13.0152C0.0677798 15.2293 -0.0567136 17.2716 0.023841 18.921C0.12218 20.9238 0.507168 22.3578 1.16834 23.1824C1.60956 23.7324 2.17161 24 2.88719 24C4.35365 24 6.94055 21.9597 9.47802 18.802C10.1392 17.979 11.097 17.5069 12.1055 17.5069H21.8944C22.9032 17.5069 23.8609 17.979 24.5219 18.802C27.0593 21.9597 29.6462 24 31.1127 24C31.8283 24 32.3903 23.7327 32.8315 23.1824C33.4927 22.3575 33.8777 20.9238 33.976 18.921C34.0569 17.2719 33.9324 15.2293 33.6167 13.0152H33.6169ZM13.6867 11.043C13.6867 11.1797 13.5834 11.2904 13.4558 11.2904H10.9599V13.9642C10.9599 14.101 10.8563 14.2119 10.7287 14.2119H8.50953C8.3819 14.2119 8.27859 14.101 8.27859 13.9642V11.2904H5.78271C5.65508 11.2904 5.55151 11.1797 5.55151 11.043V8.66561C5.55151 8.52888 5.65508 8.41792 5.78271 8.41792H8.27859V5.74409C8.27859 5.60736 8.3819 5.49669 8.50953 5.49669H10.7287C10.8563 5.49669 10.9599 5.60736 10.9599 5.74409V8.41792H13.4558C13.5834 8.41792 13.6867 8.52888 13.6867 8.66561V11.043ZM24.2946 12.9357C23.7652 13.5028 22.9068 13.5028 22.3772 12.9357C21.8476 12.3683 21.8476 11.4487 22.3772 10.8813C22.9066 10.3142 23.765 10.3142 24.2946 10.8813C24.8242 11.4484 24.8242 12.368 24.2946 12.9357ZM24.2946 8.827C23.7652 9.3941 22.9068 9.3941 22.3772 8.827C21.8476 8.2599 21.8476 7.34004 22.3772 6.77266C22.9066 6.20556 23.765 6.20556 24.2946 6.77266C24.8242 7.33976 24.8242 8.25962 24.2946 8.827ZM28.1296 12.9357C27.6002 13.5028 26.7418 13.5028 26.2119 12.9357C25.6826 12.3683 25.6826 11.4487 26.2119 10.8813C26.7416 10.3142 27.5999 10.3142 28.1296 10.8813C28.6589 11.4484 28.6589 12.368 28.1296 12.9357ZM28.1296 8.827C27.6002 9.3941 26.7418 9.3941 26.2119 8.827C25.6826 8.2599 25.6826 7.34004 26.2119 6.77266C26.7416 6.20556 27.5999 6.20556 28.1296 6.77266C28.6589 7.33976 28.6589 8.25962 28.1296 8.827Z" fill="#535E99"/>
</svg>
