<svg width="18" height="13" viewBox="0 0 18 13" fill="none" xmlns="http://www.w3.org/2000/svg">
<path d="M7.21923 6.5C7.21923 7.08016 7.4497 7.63656 7.85993 8.0468C8.27017 8.45703 8.82657 8.6875 9.40673 8.6875C9.98689 8.6875 10.5433 8.45703 10.9535 8.0468C11.3638 7.63656 11.5942 7.08016 11.5942 6.5C11.5942 5.91984 11.3638 5.36344 10.9535 4.9532C10.5433 4.54297 9.98689 4.3125 9.40673 4.3125C8.82657 4.3125 8.27017 4.54297 7.85993 4.9532C7.4497 5.36344 7.21923 5.91984 7.21923 6.5ZM17.8872 5.99609C16.0356 2.0957 13.2368 0.132812 9.48485 0.132812C5.73095 0.132812 2.93407 2.0957 1.08251 5.99805C1.00824 6.15531 0.969727 6.32706 0.969727 6.50098C0.969727 6.67489 1.00824 6.84665 1.08251 7.00391C2.93407 10.9043 5.7329 12.8672 9.48485 12.8672C13.2388 12.8672 16.0356 10.9043 17.8872 7.00195C18.0376 6.68555 18.0376 6.31836 17.8872 5.99609ZM9.40673 9.9375C7.50829 9.9375 5.96923 8.39844 5.96923 6.5C5.96923 4.60156 7.50829 3.0625 9.40673 3.0625C11.3052 3.0625 12.8442 4.60156 12.8442 6.5C12.8442 8.39844 11.3052 9.9375 9.40673 9.9375Z" fill="white"/>
</svg>
