<svg width="57" height="30" viewBox="0 0 57 30" fill="none" xmlns="http://www.w3.org/2000/svg">
<path d="M51.3182 0.41596C51.1724 0.427347 51.0497 0.438734 50.989 0.442083L34.0758 1.63705C34.0758 1.63705 29.3734 1.99808 25.1289 2.32495C22.9269 2.49509 20.8544 2.65518 19.6277 2.75096C19.5199 2.75887 19.4129 2.77431 19.3074 2.79718L18.2347 2.88024C18.0568 2.8951 17.8884 2.96551 17.7542 3.08118L17.1783 3.57082L16.7401 3.23122C16.5726 3.10078 16.3607 3.03823 16.1479 3.0564L10.6426 3.52527L9.94742 3.57685C9.54091 3.60812 9.1557 3.76814 8.84959 4.03288C8.54349 4.29762 8.33301 4.6528 8.24976 5.0451L6.2386 14.6872L5.55027 15.2231C5.11751 15.558 4.79174 16.0563 4.75494 16.5995C4.71814 17.1428 4.97098 17.6887 5.35399 18.0832C5.46304 18.1951 5.49848 18.246 5.45281 18.4677L3.90509 25.8833L0 30L10.5335 29.2712L18.7117 28.7153C19.2004 28.6754 19.6539 28.4497 19.9759 28.0863C20.3447 28.4199 20.8304 28.6006 21.3315 28.5907C21.3867 28.5907 21.4439 28.5907 21.5025 28.5847L24.3983 28.4005L26.0537 28.2933C26.2021 28.2826 26.349 28.2566 26.4919 28.2156L34.2189 27.5364L46.6628 26.6502L46.7602 26.6442L46.8577 26.6254C47.8465 26.4392 48.4306 25.8216 48.5955 24.7794L48.6003 24.7479C48.6746 24.2924 48.7632 23.7995 48.8572 23.2743C48.9254 22.8764 49.0004 22.4772 49.0658 22.0914C49.5946 18.9707 50.437 15.1708 50.9979 12.8673C51.0851 12.5109 51.2296 11.9168 50.959 11.2798C50.6721 10.6053 50.1719 10.2081 49.4699 10.0915L50.6708 9.61329C51.5336 9.27838 51.7939 8.74252 51.9868 7.83424C52.1176 7.21934 52.3561 6.14964 52.5579 5.13352C52.626 4.80664 52.6771 4.63316 52.6771 4.63316L53.086 4.24064C53.086 4.24064 53.3178 4.0263 53.3587 3.98343C53.4793 3.8642 53.5597 3.78717 53.6994 3.63044C54.9636 2.264 57 0 57 0C57 0 52.5449 0.315486 51.3182 0.41596ZM20.7665 16.913C20.5143 18.2352 19.1608 24.695 18.938 25.9837C18.8773 26.3254 18.876 26.4031 18.7935 26.8204L18.7731 26.9148C18.7641 26.9558 18.742 26.9928 18.7099 27.0204C18.6779 27.0481 18.6377 27.0648 18.5952 27.0682L10.4327 27.6221L4.31809 28.0461L5.40851 26.9557L7.11231 18.8012C7.2636 18.0731 7.08914 17.4663 6.58209 16.9445C6.55345 16.9154 6.53136 16.8806 6.51724 16.8426C6.50312 16.8045 6.49728 16.764 6.50011 16.7236C6.50294 16.6832 6.51436 16.6438 6.53365 16.608C6.55294 16.5722 6.57965 16.5408 6.61207 16.5158L7.72022 15.645C7.75537 15.6163 7.77943 15.5766 7.78837 15.5325L9.90721 5.378C9.91611 5.33679 9.93842 5.29954 9.97075 5.27187C10.0031 5.2442 10.0437 5.22762 10.0864 5.22461L14.2941 4.91248C14.3241 4.91091 14.3541 4.91609 14.3817 4.92762C14.4094 4.93914 14.434 4.95671 14.4537 4.97899C14.4734 5.00127 14.4877 5.02767 14.4955 5.05619C14.5033 5.0847 14.5043 5.11459 14.4986 5.14357L10.5989 23.9214C11.947 23.8423 13.2569 23.776 14.6049 23.697C14.7153 23.1343 15.2748 21.0137 15.3873 20.451L14.395 20.514C14.3614 20.5179 14.3273 20.5133 14.296 20.5005C14.2647 20.4878 14.2373 20.4673 14.2164 20.4412C14.1954 20.415 14.1817 20.384 14.1764 20.3511C14.1712 20.3183 14.1747 20.2846 14.1864 20.2534L14.9286 17.0852C14.9414 17.0499 14.9644 17.019 14.9948 16.9964C15.0252 16.9738 15.0617 16.9604 15.0997 16.9579L20.5648 16.6839C20.5943 16.6829 20.6238 16.6883 20.6509 16.6999C20.678 16.7115 20.7022 16.7289 20.7215 16.7509C20.7409 16.7729 20.755 16.7989 20.7628 16.8269C20.7705 16.855 20.7718 16.8844 20.7665 16.913ZM29.1055 14.0207L29.8 14.6838C29.8415 14.7235 29.8746 14.7709 29.8974 14.8233C29.9202 14.8756 29.9322 14.9319 29.9327 14.9888C29.9332 15.0458 29.9222 15.1022 29.9004 15.155C29.8785 15.2077 29.8463 15.2557 29.8054 15.2961L29.6371 15.4595C29.631 15.4662 29.6221 15.4729 29.6153 15.4796C28.7975 16.1595 28.3027 16.8983 28.1419 17.6726L26.3502 26.3039C26.3315 26.3954 26.2827 26.4784 26.2115 26.5401C26.1402 26.6018 26.0503 26.6389 25.9556 26.6455L21.3996 26.9376C21.1107 26.959 21.0071 26.809 21.0643 26.5303L22.899 17.6833C22.9801 17.3579 22.9754 17.0176 22.8852 16.6945C22.795 16.3715 22.6224 16.0764 22.3837 15.8373L22.2979 15.7529C22.2547 15.7102 22.2211 15.6592 22.1993 15.603C22.1776 15.5468 22.168 15.4867 22.1714 15.4266C22.1747 15.3666 22.1908 15.3079 22.2187 15.2543C22.2466 15.2008 22.2857 15.1536 22.3333 15.1159L23.5266 14.1708C23.6054 14.1081 23.6597 14.0205 23.68 13.9229L25.0042 7.60985C24.201 7.64177 23.4025 7.74625 22.6189 7.92199C21.9694 8.06868 21.5393 8.18255 21.0323 8.37881C20.7283 8.49736 20.4584 8.48464 20.3746 8.17786C20.3746 8.17786 19.674 5.54747 19.4696 4.77181C19.4014 4.51259 19.505 4.42217 19.7769 4.40073C23.3603 4.11673 34.2189 3.28213 34.2189 3.28213L33.4924 6.98491C32.9547 6.95811 31.0894 7.16643 30.3391 7.22269L28.9808 13.6262C28.9661 13.697 28.9698 13.7702 28.9916 13.8392C29.0134 13.9082 29.0526 13.9706 29.1055 14.0207ZM51.8477 2.58551C51.663 2.75699 51.25 3.18835 51.25 3.18835L51.1137 3.84679C50.8411 5.23332 50.5242 6.73975 50.4138 7.61588C50.3668 7.98227 50.3314 7.97691 50.0124 8.10284L45.7461 9.80687C45.5049 9.90265 45.4054 9.90801 45.2691 9.82026C45.158 9.74591 45.128 9.61932 45.1798 9.37148L45.8517 6.12552L40.6375 6.4236L37.3662 22.0124L42.6364 21.646L43.8767 15.7087L42.1327 15.7911C41.9071 15.8058 41.7797 15.8212 41.6945 15.7241C41.6093 15.627 41.6154 15.5064 41.6604 15.2934L42.1981 12.6141C42.2602 12.314 42.2833 12.1834 42.5975 12.1606L49.0242 11.7065C49.2696 11.7212 49.3282 11.6998 49.4222 11.9195C49.4795 12.0535 49.429 12.2691 49.3766 12.4855C48.8245 14.7562 47.9665 18.6043 47.4206 21.8235C47.27 22.7076 47.0867 23.6628 46.9544 24.4914C46.9006 24.8263 46.8938 24.9402 46.553 25.0045L32.0013 26.04C31.8302 26.0681 31.5747 26.0132 31.5058 25.9027C31.392 25.7185 31.3886 25.5745 31.4336 25.3668L33.1374 17.1327C33.3037 16.4629 33.151 15.6772 32.6978 15.1728C32.5704 15.0255 32.4293 14.8989 32.4422 14.7086C32.4511 14.5619 32.6174 14.3737 32.7666 14.2565L33.9252 13.3509L35.9234 3.72287C35.9539 3.57472 36.0329 3.44046 36.1484 3.34056C36.2638 3.24067 36.4093 3.18062 36.5627 3.1696L51.1171 2.08918C51.3455 2.07645 52.3882 1.97865 52.4086 2.00009C52.4291 2.02152 52.0488 2.3993 51.8477 2.58551Z" fill="white"/>
</svg>
