<svg width="71" height="56" viewBox="0 0 71 56" fill="none" xmlns="http://www.w3.org/2000/svg">
<path d="M0 0V30.5001H7.1V7.59322H63.9V30.4982H7.1V56H63.9V30.5001H71V0H0ZM25.6221 50.886H11.9759V35.5477H16.4827V47.3361H25.6203V50.886H25.6221ZM39.8044 39.1412H34.2522V50.886H29.7454V39.1412H24.1933V35.5477H39.8061V39.1412H39.8044ZM58.8821 46.8654C58.6975 49.5382 57.0378 50.9182 54.1694 50.9182H46.6701C43.6792 50.9182 41.9379 49.5382 41.7533 46.8654C41.6308 45.0031 41.6096 44.1698 41.6096 43.2719C41.6096 42.4822 41.6309 41.7153 41.732 40.0732C41.8953 37.0929 43.6579 35.7337 46.6488 35.5818C47.3872 35.5382 48.8214 35.5154 50.4189 35.5154C51.7909 35.5154 53.266 35.5382 54.5582 35.5818C57.139 35.6919 58.9637 37.1384 58.9016 40.2934H54.6611C54.6203 39.4601 54.1286 39.1108 53.3086 39.1108H48.1451C47.0588 39.1108 46.4233 39.4828 46.26 40.4035C46.1163 41.2805 46.1163 42.2012 46.1163 43.2965C46.1163 44.2609 46.1376 45.2252 46.2796 46.0567C46.4234 46.9546 47.0588 47.3266 48.1433 47.3266H52.9181C53.9831 47.3266 54.6593 46.9755 54.7623 46.275C54.8244 45.9466 54.8653 45.4853 54.8653 44.9822H50.1739V42.1329H59.0258C59.0258 44.2153 59.0046 45.1778 58.8821 46.8654Z" fill="white"/>
</svg>
