<svg width="284" height="153" viewBox="0 0 284 153" fill="none" xmlns="http://www.w3.org/2000/svg">
<g clip-path="url(#clip0_89_52)">
<path d="M216.185 50.9511C216.555 51.2692 216.954 51.4079 217.077 51.2651C217.2 51.1224 216.999 50.7553 216.629 50.4494C216.259 50.1436 215.861 49.9927 215.737 50.1354C215.614 50.2781 215.799 50.637 216.185 50.9511Z" fill="url(#paint0_linear_89_52)"/>
<path d="M199.848 43.1002C199.647 43.2267 199.749 43.7446 200.078 44.2626C200.407 44.7805 200.839 45.1027 201.036 44.9763C201.233 44.8498 201.134 44.3278 200.806 43.8099C200.477 43.2919 200.049 42.9738 199.848 43.1002Z" fill="url(#paint1_linear_89_52)"/>
<path d="M211.064 50.69C211.175 50.6289 211.007 50.1313 210.69 49.5807C210.374 49.0301 210.029 48.6345 209.913 48.6998C209.798 48.765 209.971 49.2585 210.287 49.8091C210.604 50.3597 210.949 50.7553 211.064 50.69Z" fill="url(#paint2_linear_89_52)"/>
<path d="M209.338 46.4404C209.552 46.5586 209.47 46.0121 209.157 45.2168C208.845 44.4216 208.421 43.6834 208.212 43.561C208.002 43.4387 208.08 43.9893 208.393 44.7845C208.705 45.5798 209.128 46.318 209.338 46.4404Z" fill="url(#paint3_linear_89_52)"/>
<path d="M184.382 45.5635C183.659 44.8988 182.997 44.4379 182.911 44.5317C182.825 44.6255 183.322 45.2413 184.07 45.902C184.818 46.5627 185.455 47.0277 185.541 46.9339C185.628 46.8401 185.11 46.2283 184.382 45.5635Z" fill="url(#paint4_linear_89_52)"/>
<path d="M216.395 49.2096C216.395 49.2096 216.366 49.2096 216.362 49.2096H216.395Z" fill="url(#paint5_linear_89_52)"/>
<path d="M237.043 53.0514C234.458 53.6958 226.205 48.0146 226.308 48.2226C226.822 49.2749 227.541 50.3842 227.385 53.0677C224.044 49.5889 216.908 49.2626 216.395 49.2096C216.806 49.3727 220.747 52.4968 218.943 53.0637C216.267 53.9038 214.833 53.3491 213.6 53.0637C212.046 52.7088 210.497 51.9911 210.037 51.3426C209.215 50.1803 209.087 49.8825 208.993 49.4665C208.972 49.3279 208.878 48.7855 208.857 48.6509C208.85 48.5917 208.839 48.5331 208.824 48.4755L208.75 48.0677C208.59 47.0562 208.146 46.5954 207.468 45.8776C205.767 44.0774 203.453 42.9696 200.974 42.7699C200.974 42.7699 203.695 44.6908 202.569 45.9021C201.443 47.1133 198.393 45.7879 197.637 43.6997C195.972 39.1605 200.358 34.3195 200.239 34.1115C200.029 33.7771 193.695 37.0887 191.817 40.021C190.375 42.2805 184.177 34.1482 185.817 37.3701C186.519 38.7486 188.315 41.2609 186.836 41.0977C185.356 40.9346 185.126 39.9966 185.126 39.9966C185.126 39.9966 184.263 42.8514 186.667 43.6182C189.072 44.3849 191.188 47.1745 190.288 48.8466C189.388 50.5188 187.822 46.5546 187.769 46.4567C187.769 46.5505 187.313 49.8662 188.048 51.8483L192.29 53.4266L194.723 54.3157H194.768L195.911 54.7236L197.049 55.1314L197.744 55.3883L198.853 55.7962L198.911 55.8166H198.964L199.244 55.9185H199.281L199.396 55.9593L200.719 56.4446L201.718 56.8076L202.076 56.9381C202.192 57.8387 202.595 58.6789 203.226 59.3362C205.244 61.6242 207.871 63.0801 210.777 64.0508C213.682 65.0214 218.425 65.7841 221.898 65.9391C223.461 66.0072 225.026 65.9963 226.588 65.9064L228.306 66.5345C228.219 66.2898 228.133 66.0369 228.043 65.7882C229.634 65.6661 231.198 65.3144 232.687 64.7441C235.362 63.5777 238.248 62.2726 238.03 60.5026C237.812 58.7326 239.67 52.403 237.043 53.0514Z" fill="url(#paint6_linear_89_52)"/>
<path d="M107.488 115.985L104.122 115.948L101.919 115.928H89.4908L87.3002 115.907H79.3022L72.1919 115.83C70.7945 117.42 70.0218 120.679 70.0013 120.769C70.0711 120.691 72.9605 117.563 73.2071 119.427C73.355 120.544 72.3851 121.637 71.0164 122.327L71.1356 121.784L69.804 121.323L68.9245 121.021L68.123 120.744L67.6257 120.573L67.0955 120.389L66.8941 120.316L66.8284 120.296C67.5928 119.973 68.1436 119.655 68.0984 119.549C68.0531 119.443 67.2764 119.627 66.3557 119.99L66.1667 120.067L65.4885 119.831L64.6665 119.549L64.5473 119.504H64.5268L64.2802 119.419L64.1774 119.382L64.0295 119.333L62.4307 118.778L62.1553 118.685L61.4813 118.452L61.2223 118.362L61.0662 118.305L60.6552 118.167L58.9166 117.563L58.6207 117.461L58.1892 117.314L58.0207 117.253L55.7109 116.437L55.5917 116.397L55.156 116.25L52.5544 115.348L52.427 115.304H52.3818L52.0694 115.198L52.0078 115.173L51.942 115.153L50.709 114.72L49.924 114.451L48.6211 113.786L47.3388 113.342H47.2854L44.5564 112.396L39.7764 110.764C37.7214 111.951 35.7445 115.12 35.6665 115.21C35.7692 115.153 39.945 112.865 39.5422 114.92C39.1394 116.976 35.3459 117.865 32.7155 116.833C30.0851 115.801 28.7946 118.872 28.7946 118.872C28.7946 118.872 29.6659 118.22 31.055 119.125C32.4442 120.03 29.1028 120.92 27.5122 121.621C26.5225 122.067 25.6469 122.728 24.9509 123.557C24.2549 124.385 23.7564 125.359 23.4927 126.405C26.197 126.332 30.2783 126.193 36.2706 125.964C38.7654 125.871 46.7634 124.957 46.8662 126.78C46.9689 128.603 44.4331 127.62 44.4331 127.62C44.4331 127.62 48.4115 130.3 53.0024 129.558C54.9916 129.235 57.3466 126.613 58.3782 127.926C59.4098 129.239 55.5382 132.172 55.4437 132.245C55.5423 132.245 59.5126 132.31 60.5812 129.855C61.3333 128.134 63.9678 127.624 65.4022 127.894C65.2131 128.049 65.0364 128.199 64.8885 128.334C64.1393 129.028 63.5669 129.889 63.2182 130.845C62.8695 131.802 62.7546 132.827 62.8828 133.836C63.2784 133.048 63.8019 132.33 64.4322 131.711C65.2573 130.976 66.2233 130.415 67.2722 130.059C68.2605 129.764 69.2899 129.626 70.3219 129.651C72.3768 129.651 72.9276 130.169 74.4031 129.79C75.0483 129.623 75.9443 129.382 76.4581 128.628C76.9718 127.873 76.6101 127.343 77.2102 126.254C77.4697 125.738 77.8384 125.283 78.2911 124.92C79.1391 124.525 80.081 124.371 81.0119 124.476C81.4819 124.534 81.9233 124.731 82.2778 125.043C82.4751 125.272 82.6226 125.539 82.711 125.828C82.7994 126.116 82.8268 126.42 82.7915 126.719C82.5614 127.975 80.9544 128.289 81.0571 128.717C81.201 129.313 84.4314 129.386 87.0618 128.252C87.6824 128.008 88.2661 127.68 88.7962 127.278C90.0292 126.332 89.8936 125.736 90.8142 125.275C91.3183 124.964 91.9134 124.83 92.5034 124.896L92.9145 124.965C94.1474 125.781 91.7267 129.378 91.6814 129.451C91.7678 129.427 95.1585 128.35 95.3599 125.964C95.5613 123.579 99.8316 122.155 99.9096 123.322C99.9877 124.488 97.9862 125.634 97.9862 125.634C97.9862 125.634 102.203 125.226 102.598 121.988C102.992 118.75 107.028 118.75 106.93 119.541C106.831 120.332 105.536 121.123 105.536 121.123C105.536 121.123 108.989 121.768 112.494 118.774C113.428 117.934 114.294 117.021 115.084 116.046L112.79 116.017L107.488 115.985Z" fill="url(#paint7_linear_89_52)"/>
<path d="M104.139 121.825C104.057 121.825 103.978 121.849 103.91 121.894C103.843 121.939 103.79 122.002 103.759 122.077C103.728 122.151 103.72 122.233 103.736 122.312C103.752 122.391 103.791 122.464 103.848 122.521C103.906 122.578 103.979 122.617 104.059 122.633C104.138 122.649 104.221 122.64 104.296 122.61C104.371 122.579 104.435 122.526 104.481 122.459C104.526 122.392 104.55 122.313 104.55 122.233C104.55 122.125 104.506 122.021 104.429 121.944C104.352 121.868 104.248 121.825 104.139 121.825Z" fill="url(#paint8_linear_89_52)"/>
<path d="M99.6014 128.032C99.0959 128.407 98.8041 128.872 98.9521 129.064C99.1 129.256 99.6261 129.109 100.136 128.73C100.645 128.35 100.933 127.89 100.785 127.698C100.637 127.506 100.111 127.653 99.6014 128.032Z" fill="url(#paint9_linear_89_52)"/>
<path d="M63.0471 129.362C62.9485 129.276 62.3361 129.798 61.6785 130.524C61.0209 131.25 60.5647 131.915 60.6592 132.001C60.7538 132.086 61.3662 131.564 62.0238 130.834C62.6814 130.104 63.1417 129.447 63.0471 129.362Z" fill="url(#paint10_linear_89_52)"/>
<path d="M112.055 120.626C111.488 121.181 111.101 121.703 111.192 121.796C111.282 121.89 111.816 121.511 112.383 120.956C112.951 120.402 113.337 119.88 113.247 119.786C113.156 119.692 112.614 120.071 112.055 120.626Z" fill="url(#paint11_linear_89_52)"/>
<path d="M23.468 124.871C17.2701 121.56 20.1143 124.076 22.0912 125.667C23.1762 125.426 23.99 125.149 23.468 124.871Z" fill="url(#paint12_linear_89_52)"/>
<path d="M23.0159 126.429C22.7734 126.242 22.4405 125.981 22.0747 125.683C19.5964 126.226 15.6631 126.601 23.0159 126.429Z" fill="url(#paint13_linear_89_52)"/>
<path d="M23.4269 126.715C23.4269 126.715 23.4269 126.597 23.4926 126.401L23.0159 126.429L23.4269 126.715Z" fill="url(#paint14_linear_89_52)"/>
<path d="M64.3254 133.534C63.6554 133.758 63.1787 134.146 63.265 134.399C63.3513 134.651 63.9637 134.684 64.6336 134.464C65.3035 134.244 65.7803 133.856 65.694 133.599C65.6077 133.342 64.9953 133.314 64.3254 133.534Z" fill="url(#paint15_linear_89_52)"/>
<path d="M54.2518 133.391C53.586 133.64 53.0887 133.954 53.138 134.084C53.1873 134.215 53.771 134.125 54.4368 133.872C55.1026 133.62 55.5999 133.31 55.5506 133.179C55.5013 133.049 54.93 133.138 54.2518 133.391Z" fill="url(#paint16_linear_89_52)"/>
<path d="M45.6209 130.422C44.5235 130.483 43.6358 130.646 43.644 130.789C43.6522 130.932 44.5482 130.997 45.6497 130.936C46.7511 130.875 47.6307 130.712 47.6266 130.569C47.6224 130.426 46.7059 130.361 45.6209 130.422Z" fill="url(#paint17_linear_89_52)"/>
<path d="M39.7641 127.535C38.6174 127.824 37.3228 128.232 37.3228 128.232C37.3228 128.232 39.0942 129.019 40.5779 128.11C41.0423 127.828 40.9067 127.245 39.7641 127.535Z" fill="url(#paint18_linear_89_52)"/>
<path d="M74.4523 131.923C74.7533 131.894 75.0452 131.805 75.3107 131.661C75.5762 131.517 75.8098 131.322 75.9977 131.087C76.1785 130.879 76.4087 130.63 76.3265 130.528C76.1908 130.324 75.0688 130.895 74.4523 131.27C73.9345 131.589 73.8646 131.711 73.8892 131.784C73.9303 131.935 74.3907 131.923 74.4523 131.923Z" fill="url(#paint19_linear_89_52)"/>
<path d="M81.3449 126.756C81.4805 126.927 81.1353 127.571 80.5969 127.779C80.3503 127.877 79.9804 127.922 79.8941 127.779C79.8078 127.637 80.1283 127.172 80.5023 126.943C80.7736 126.776 81.2339 126.613 81.3449 126.756Z" fill="url(#paint20_linear_89_52)"/>
<path d="M89.1333 128.852C89.31 128.917 89.3717 129.48 89.0881 129.876C88.8045 130.271 88.2209 130.394 88.1017 130.247C87.9003 129.994 88.8291 128.734 89.1333 128.852Z" fill="url(#paint21_linear_89_52)"/>
<path d="M209.881 74.8992L210.489 58.9773L191.92 50.6982L190.231 57.2073L196.046 64.9358L194.131 89.5161H205.618L209.881 74.8992Z" fill="url(#paint22_linear_89_52)"/>
<path d="M107.197 116.792H98.915L103.054 78.9939H76.6101L77.5472 68.7531L101.015 67.3542L107.76 85.8823L107.197 116.792Z" fill="url(#paint23_linear_89_52)"/>
<path d="M126.97 8.45857C125.537 8.56862 124.153 9.02812 122.942 9.79627C121.626 9.21541 120.186 8.96739 118.75 9.0744L89.9183 11.2359C88.4112 11.3475 86.9593 11.8465 85.7055 12.6838C84.2829 11.8811 82.6524 11.515 81.0201 11.6315L63.0102 12.9815C61.2243 13.1212 59.5326 13.8333 58.19 15.0103C56.8475 16.1873 55.9269 17.7654 55.567 19.5069L46.9648 61.1062L43.9768 64.1691L40.7135 67.8111C40.3864 68.1733 40.1735 68.6228 40.1011 69.1039L40.0765 69.2589C39.9991 69.7733 40.0838 70.2989 40.319 70.7638C40.6231 71.3633 41.067 72.2157 41.4451 72.8478L43.2083 76.0167C43.4836 76.6652 43.6193 76.7468 43.5823 77.5013L37.5653 106.617L0 128.432L43.0644 125.5L94.9941 121.829C96.7655 121.68 98.4414 120.969 99.7737 119.801C101.106 118.633 102.024 117.07 102.392 115.344L102.495 114.851L102.68 113.876C102.742 115.998 103.635 118.013 105.17 119.492C106.705 120.971 108.76 121.797 110.9 121.796C111.101 121.796 111.311 121.796 111.508 121.772L121.006 121.062C122.795 120.93 124.491 120.221 125.836 119.042C127.18 117.864 128.1 116.282 128.453 114.537L128.926 112.237C129.073 114.299 130.003 116.229 131.529 117.636C133.055 119.044 135.063 119.824 137.146 119.818C137.352 119.818 137.557 119.818 137.758 119.798L147.248 119.084C149.235 118.926 151.096 118.056 152.485 116.637C154.086 117.834 156.071 118.414 158.07 118.269L167.556 117.559C168.765 117.46 169.937 117.096 170.988 116.495C171.931 116.86 172.934 117.05 173.947 117.053C174.148 117.053 174.358 117.053 174.555 117.033L202.417 114.945C203.457 114.865 204.473 114.588 205.409 114.129C206.207 114.379 207.038 114.507 207.875 114.508C208.08 114.508 208.286 114.508 208.487 114.484L237.705 112.294C239.541 112.159 241.277 111.417 242.637 110.187C243.997 108.956 244.902 107.309 245.206 105.507L245.235 105.336L245.391 104.349C245.444 104.031 245.489 103.721 245.535 103.48C245.67 102.706 245.794 101.882 245.946 101.013C246.326 98.8784 246.876 96.777 247.59 94.7283C248.329 92.6891 248.905 91.0211 248.666 89.0961L248.597 88.5455C248.365 86.6623 247.479 84.9182 246.091 83.6134C244.703 82.3085 242.901 81.5244 240.993 81.3961L240.968 81.2452L248.428 78.268C250.264 77.5294 251.771 76.1615 252.677 74.4131C253.582 72.6646 253.824 70.6519 253.36 68.7409L253.315 68.5615C253.236 68.0678 253.223 67.566 253.274 67.0688L284 49.2749L216.144 54.7358C214.367 54.8874 212.687 55.6045 211.354 56.7804C210.021 57.9562 209.106 59.5278 208.746 61.2612L205.323 77.8969L204.722 78.37C203.814 79.0866 203.07 79.9859 202.537 81.0086C202.004 82.0314 201.696 83.1545 201.632 84.304C201.578 85.249 201.692 86.196 201.969 87.1018L197.962 85.8986C197.475 85.752 196.975 85.651 196.47 85.5968L200.419 66.3755C200.66 65.234 200.651 64.0545 200.394 62.9167C200.136 61.7788 199.635 60.709 198.926 59.7794C198.216 58.8498 197.314 58.0821 196.279 57.5279C195.245 56.9737 194.104 56.6461 192.931 56.567C193.02 56.1953 193.081 55.8177 193.116 55.4373C193.252 53.9609 193.441 52.4315 193.683 50.8695C194.558 45.0535 196.074 39.3504 198.204 33.8627C198.981 31.8626 198.981 29.6474 198.204 27.6473C199.274 26.6187 200.063 25.3362 200.494 23.921C200.926 22.5058 200.986 21.0048 200.67 19.5599C200.645 19.4498 200.448 18.4057 200.933 15.8894L201.003 15.559C201.077 15.2001 201.163 14.8208 201.266 14.4252C201.615 13.0932 201.64 11.6981 201.339 10.3547C201.038 9.01124 200.42 7.75793 199.535 6.6979C198.651 5.63787 197.525 4.80141 196.251 4.25737C194.977 3.71333 193.591 3.47726 192.208 3.5686L163.886 5.70975C162.447 5.8153 161.057 6.27505 159.841 7.04745C158.526 6.46528 157.085 6.2172 155.649 6.32558L147.298 6.93326C145.389 7.07494 143.578 7.83264 142.144 9.09071C141.949 9.25797 141.762 9.43493 141.585 9.6209C139.861 8.2829 137.692 7.6379 135.51 7.81418L126.97 8.45857ZM99.8727 75.2337L87.9537 75.6986L86.2234 75.7802L81.538 76.0657C80.4432 76.1349 79.3731 76.4191 78.3898 76.9017L79.6474 70.7475C80.3676 70.9368 81.1095 71.0327 81.8545 71.033H82.2367L99.3507 69.7401C99.1514 70.8916 99.2018 72.0721 99.4986 73.2027L100.033 75.2419L99.8727 75.2337ZM104.574 103.534C105.035 101.229 105.536 98.7292 106.021 96.3148C106.032 96.3302 106.042 96.3466 106.05 96.3637L104.574 103.534Z" fill="url(#paint24_linear_89_52)"/>
<path d="M108.216 25.3226L98.9478 26.02L92.9473 55.217L102.211 54.5237L108.216 25.3226Z" fill="url(#paint25_linear_89_52)"/>
<path d="M152.069 88.6841L161.859 84.6058L164.017 74.108L154.926 74.7891L152.069 88.6841Z" fill="url(#paint26_linear_89_52)"/>
<path fill-rule="evenodd" clip-rule="evenodd" d="M240.105 13.2465C240.397 13.1323 240.886 12.4594 240.664 12.3574C240.005 12.2474 239.333 12.22 238.667 12.2759C238.281 12.4526 237.942 12.7182 237.68 13.0507C237.248 13.6391 236.849 14.2504 236.484 14.8819C236.375 14.9763 236.25 15.0509 236.115 15.1022C236.16 14.625 235.925 14.5516 235.925 14.5516C235.83 14.6634 235.715 14.7562 235.584 14.8248C235.477 14.8697 234.446 14.8779 233.431 14.9513C232.876 14.9758 232.326 15.0537 231.787 15.1837C230.743 15.4978 228.852 15.9994 227.677 15.9382C226.577 15.9216 225.477 15.9925 224.389 16.1503C225.544 15.0899 226.209 13.532 226.148 12.8224C226.07 12.0067 225.515 11.3501 225.042 10.5997C225.075 10.2163 225.285 7.33696 224.631 5.65667C224.089 4.45559 223.238 3.41647 222.165 2.64275C222.165 2.64275 221.076 1.41924 220.069 1.3703C219.657 1.36974 219.254 1.48884 218.91 1.71289C218.31 2.04323 217.763 2.52856 217.398 2.61828C217.102 2.7191 216.812 2.83759 216.53 2.9731C216.376 2.89988 216.204 2.87029 216.034 2.88755C215.863 2.90482 215.701 2.96828 215.565 3.07098C215.46 3.19138 215.378 3.32953 215.322 3.47882C214.22 3.84816 213.206 4.43645 212.341 5.20778C211.476 5.97911 210.779 6.91729 210.291 7.96502C210.004 8.7807 209.987 9.93896 210.065 11.5254C210.119 12.6998 210.05 13.8766 209.86 15.0369C209.835 15.1674 209.811 15.2857 209.782 15.3877C209.585 16.1218 209.071 18.5525 210.296 20.5917C210.521 20.9655 210.774 21.3226 211.052 21.6602C211.146 22.7613 211.241 23.5444 211.241 23.5444L211.697 22.3617C212.1 22.7653 212.558 23.1112 213.058 23.3894C212.931 23.2246 212.816 23.0516 212.712 22.8715C212.419 22.3881 212.215 21.8562 212.112 21.3013L213.119 18.6911C213.119 18.6911 213.062 19.205 214.43 20.0941C214.831 20.3425 215.265 20.5321 215.721 20.6569L215.778 20.7548L215.737 20.661C216.007 20.7379 216.282 20.7992 216.559 20.8445C216.447 20.9749 216.341 21.111 216.243 21.2523C215.367 22.3244 214.764 23.5906 214.488 24.9433L214.447 24.9881C214.447 24.9881 214.389 25.3756 214.336 26.0077C214.13 27.4678 213.83 28.8626 213.275 29.6987C212.652 30.6321 212.196 31.6656 211.927 32.7533C211.727 33.4894 211.634 34.2504 211.652 35.0128C211.652 35.0128 211.081 34.9026 211.081 35.2697C211.081 35.3235 211.093 35.3766 211.118 35.4247C211.141 35.4696 211.173 35.5097 211.212 35.543L210.916 35.7591C210.237 36.2422 209.641 36.8318 209.153 37.5046C208.919 37.9818 208.66 38.7771 208.898 38.7282C209.137 38.6792 209.334 38.3203 209.441 38.1327C209.564 37.9738 209.712 37.836 209.88 37.7249C209.723 38.0042 209.585 38.2945 209.469 38.5936C209.385 38.9557 209.354 39.3278 209.375 39.6988C209.385 39.7402 209.405 39.7787 209.433 39.8112C209.461 39.8438 209.496 39.8695 209.535 39.8864C209.517 39.949 209.517 40.0155 209.535 40.0781C209.568 40.1637 209.728 40.282 210.008 40.176C210.171 40.1056 210.312 39.9946 210.419 39.8538C210.42 39.8701 210.42 39.8864 210.419 39.9027C210.37 40.0708 210.351 40.246 210.361 40.4207C210.415 40.4737 210.809 40.5267 211.142 40.123C211.414 39.7098 211.653 39.2762 211.857 38.826C212.102 38.4865 212.432 38.2165 212.815 38.043C212.815 38.043 212.815 38.096 212.716 38.3203C212.618 38.5446 212.441 38.5079 212.334 38.9565C212.288 39.1274 212.299 39.3086 212.366 39.4726C212.433 39.6367 212.551 39.7747 212.704 39.866C212.864 39.866 212.84 39.6091 213.115 38.9321C213.39 38.2551 213.777 38.0104 213.847 37.5862C213.857 37.4271 213.842 37.2674 213.801 37.1131C213.752 36.8399 213.67 36.5422 213.633 36.3301C213.614 36.2112 213.614 36.0901 213.633 35.9712C213.631 35.9481 213.631 35.9249 213.633 35.9018C213.744 35.8326 213.846 35.7504 213.937 35.6571C214.065 34.9625 214.253 34.2802 214.5 33.618C214.936 32.4312 216.703 28.2182 217.159 27.5657C217.334 27.2836 217.544 27.0246 217.784 26.7948C217.784 27.4637 217.722 28.7933 217.722 28.834C217.7 29.0867 217.654 29.3367 217.583 29.5804C217.357 30.2859 216.761 31.2444 216.045 32.733C215.672 33.3914 215.377 34.0908 215.166 34.817C215.092 35.0372 215.026 35.2248 214.977 35.4206C214.928 35.6164 214.891 35.7306 214.862 35.8611V35.91C214.817 36.1098 214.788 36.2526 214.78 36.3178V36.3464C214.672 36.4112 214.584 36.5031 214.524 36.6127C214.464 36.7223 214.435 36.8457 214.438 36.9704C214.438 37.0968 214.57 37.3293 214.849 37.6229C214.381 39.7437 213.945 42.2723 213.736 42.9248C213.586 43.3191 213.38 43.69 213.123 44.026V44.0504C212.868 44.4093 212.589 44.7845 212.342 45.172L212.322 45.2005C212.142 45.4796 211.992 45.7762 211.874 46.0855C211.709 46.5865 211.619 47.1086 211.607 47.6353C211.571 48.3363 211.571 49.0387 211.607 49.7398C211.606 49.8767 211.592 50.0132 211.566 50.1476C211.474 50.4489 211.319 50.7271 211.109 50.9633C210.887 51.2569 210.67 51.5098 210.698 51.7259C210.727 52.1338 211.298 54.438 212.125 54.7806C212.951 55.1232 215.688 54.9764 215.688 54.9764C215.573 54.1281 214.891 54.1281 214.455 53.5653C214.019 53.0024 213.797 51.783 213.797 51.2447C213.797 51.1509 213.797 51.053 213.797 50.951C213.797 50.8491 213.875 50.3515 213.933 50.0701C214.074 49.5061 214.255 48.9527 214.475 48.4143C214.599 48.1043 214.738 47.8066 214.886 47.513H214.936L215.552 46.318C216.033 45.5023 216.576 44.7193 217.159 43.8098C217.513 43.231 217.834 42.6333 218.121 42.0194C218.417 41.4076 218.705 40.7673 218.943 40.1882C219.21 40.2902 219.486 40.384 219.765 40.4655C220.176 40.5838 220.566 40.6776 220.94 40.751C221.146 41.855 221.283 42.9705 221.351 44.0912C221.258 44.641 221.136 45.1855 220.986 45.7226C220.899 46.0774 220.817 46.4567 220.751 46.84C220.654 47.3657 220.622 47.9013 220.657 48.4347C220.657 48.6386 220.714 48.8425 220.756 49.0831V49.1525C220.842 49.5848 220.961 50.0456 221.088 50.5024L221.113 50.6003L221.249 51.0775C221.487 51.9421 221.693 52.7088 221.623 53.1574C221.54 53.7582 221.54 54.3674 221.623 54.9682L227.496 55.1966C227.496 54.8681 227.384 54.5492 227.179 54.2912C226.867 53.9813 226.411 53.8834 225.729 53.4755C225.128 53.096 224.634 52.5711 224.294 51.9502C224.196 51.7314 224.132 51.499 224.105 51.261C224.105 51.1753 224.048 50.5391 223.994 50.0375C223.994 49.7071 223.965 49.3482 223.961 48.9567C223.957 48.5652 223.961 48.1818 224.002 47.7332L224.15 46.2079C224.27 45.2087 224.417 44.1932 224.528 43.3775C224.587 42.8792 224.618 42.3782 224.623 41.8767C224.623 41.5259 224.623 41.1548 224.623 40.7837C225.034 40.6858 225.268 40.5553 225.293 40.4329C225.316 40.3154 225.313 40.1941 225.284 40.0778C225.255 39.9615 225.201 39.853 225.124 39.76C225.124 39.76 225.124 38.9933 225.124 37.835L225.17 35.6571C225.198 34.7191 225.244 33.7118 225.313 32.7166C225.421 30.879 225.392 29.0361 225.227 27.2027C225.199 26.2725 225.076 25.3475 224.861 24.4416C224.824 24.2581 224.787 24.0827 224.75 23.9278C224.614 23.4125 224.428 22.9113 224.196 22.431V22.4065C224.085 22.1781 223.97 21.9579 223.854 21.7418V21.701C223.826 21.6479 223.797 21.5909 223.768 21.5419C225.071 20.9791 226.546 20.3755 227.796 19.9554C230.821 18.9277 233.057 18.1324 233.057 18.1324C233.057 18.1324 233.344 18.6667 233.792 18.4464C234.277 18.0868 234.703 17.6548 235.054 17.1658L236.287 16.8763C236.468 17.0557 240.512 17.6634 241.523 17.1577C244.836 15.5263 239.419 13.7441 239.67 13.6462C239.92 13.5483 239.814 13.3648 240.105 13.2465ZM224.594 6.39893C224.813 7.68112 224.906 8.98152 224.87 10.2815L224.508 9.19669C224.494 8.99132 224.454 8.78852 224.389 8.59309C224.359 8.50556 224.325 8.41978 224.286 8.33616C224.175 7.64283 223.978 6.48866 223.822 5.7831C223.668 5.12741 223.451 4.48815 223.172 3.87442C223.86 4.57875 224.35 5.44895 224.594 6.39893Z" fill="url(#paint27_linear_89_52)"/>
<path d="M246.55 16.4358L246.632 14.7515L245.202 12.7123L259.057 5.85654L261.695 0L254.864 0.852379L243.722 10.6038L242.403 8.71955L240.759 8.40552L240.932 10.0573L242.132 11.7294L241.795 11.97C241.771 11.9826 241.749 11.9976 241.729 12.0149C240.582 12.8305 239.025 13.9317 238.441 14.4007C237.668 15.0084 237.327 15.2449 237.508 15.7833C237.508 15.8118 237.533 15.8485 237.549 15.8812C237.564 15.9244 237.582 15.9667 237.602 16.0076C237.654 16.1096 237.71 16.2089 237.771 16.3053C238.383 17.276 239.094 17.3616 240.648 16.2605C241.593 15.5916 242.892 14.6699 243.772 14.0377L245.087 15.9056L246.55 16.4358Z" fill="url(#paint28_linear_89_52)"/>
<path d="M262.628 42.5251C262.628 42.5251 262.686 42.4966 262.394 42.4558C262.316 42.2478 261.983 42.1051 261.896 42.048C261.678 42.0148 261.455 42.0302 261.243 42.0928C260.906 42.1993 260.576 42.3232 260.252 42.464C259.27 42.3333 258.306 42.0967 257.375 41.7584L258.362 41.3995C258.587 41.3105 258.821 41.2476 259.061 41.2119C259.23 41.3139 259.422 41.3714 259.62 41.3791C259.882 41.3544 260.139 41.2869 260.38 41.1793C260.454 41.1793 260.639 40.9917 260.614 40.9591C260.721 40.9649 260.826 40.9315 260.91 40.8652C261.018 40.8608 261.123 40.8284 261.214 40.7715C261.175 40.7329 261.129 40.7023 261.079 40.6817C261.078 40.6528 261.066 40.6252 261.046 40.6042C261.081 40.6074 261.117 40.6028 261.15 40.5909C261.183 40.5789 261.214 40.5598 261.239 40.5349C261.293 40.5293 261.347 40.5184 261.399 40.5023C261.369 40.4553 261.328 40.4161 261.28 40.3881C261.249 40.2801 261.191 40.1814 261.113 40.101C261.034 40.0205 260.936 39.9608 260.828 39.9272C260.568 39.8729 260.302 39.8619 260.039 39.8946C259.754 39.9486 259.477 40.0405 259.217 40.1679C258.395 40.3228 257.03 40.3962 256.175 40.4574L255.797 40.486C255.497 40.4831 255.2 40.4307 254.918 40.331C254.747 40.2106 254.589 40.074 254.445 39.9231C254.47 39.8864 254.494 39.8497 254.519 39.8049C254.544 39.76 255.144 39.2747 255.222 39.2013C255.362 39.0993 255.51 38.9933 255.633 38.9076C255.732 38.8504 255.841 38.8104 255.953 38.7894C256.301 38.9057 256.661 38.981 257.026 39.0137C257.666 39.0002 258.3 38.9001 258.913 38.716C259.049 38.6672 259.169 38.5809 259.258 38.4672C259.624 38.2755 259.813 37.7779 259.739 37.7168C259.665 37.6556 259.772 37.6882 259.804 37.6556C259.903 37.5577 259.874 37.4802 259.903 37.1662C259.903 37.1662 259.287 36.7583 259.233 36.689C259.18 36.6197 258.995 35.804 258.715 35.4369C258.452 35.1062 258.127 34.8293 257.758 34.6213C257.906 34.2144 257.96 33.7792 257.914 33.3488C257.233 33.4938 256.608 33.8325 256.118 34.3235C255.89 34.3488 255.669 34.4137 255.464 34.5152C255.434 34.527 255.405 34.542 255.378 34.5601C255.214 34.6448 255.059 34.7474 254.918 34.866C254.663 35.0413 254.124 35.4125 254.038 35.4655C253.733 35.6781 253.414 35.8716 253.085 36.0446L252.974 35.8815L252.411 36.2037V36.2281C251.815 36.3285 251.231 36.4884 250.668 36.7053L246.209 38.7445C244.363 39.5194 241.914 38.9933 240.183 39.6907C240.003 39.7641 239.793 39.8661 239.575 39.9762C239.119 40.1475 238.342 40.6002 238.022 40.7307C236.963 41.077 235.841 41.1897 234.734 41.061C234.412 41.057 234.091 41.0365 233.772 40.9998C233.15 40.9312 232.544 40.7589 231.98 40.49C231.341 40.1888 230.77 39.7614 230.303 39.2339C230.114 38.9674 229.894 38.725 229.645 38.512C229.589 38.4656 229.522 38.4338 229.45 38.4195C229.379 38.4053 229.304 38.409 229.234 38.4305C229.165 38.4589 229.108 38.509 229.07 38.5732C229.034 38.6623 229.034 38.7615 229.07 38.8505C229.135 39.0619 229.253 39.2539 229.411 39.4093C229.726 39.8447 230.111 40.2263 230.55 40.539C231.364 41.1854 232.306 41.6538 233.316 41.9134C234.011 42.1152 234.733 42.2114 235.457 42.1989C235.819 42.1989 236.378 42.101 236.525 42.3131C236.616 42.4436 236.291 42.7209 236.176 42.9207L234.845 44.2707C234.581 44.6785 233.821 45.017 233.201 45.2495C232.938 45.2407 232.679 45.3213 232.469 45.4779L230.48 48.3694C230.48 48.3939 230.48 48.4184 230.451 48.4469C230.307 48.6427 230.126 49.0424 229.941 49.2626C229.797 49.475 229.685 49.7072 229.608 49.9519C229.608 49.9926 229.608 50.0253 229.608 50.0538C229.554 50.1298 229.52 50.2182 229.51 50.3108C229.549 50.2916 229.586 50.2683 229.621 50.2414C229.621 50.2904 229.674 50.2985 229.699 50.2944C229.65 50.3427 229.612 50.4007 229.587 50.4647C229.562 50.5287 229.551 50.5971 229.555 50.6656L229.428 50.9062C229.495 50.9089 229.562 50.8856 229.613 50.8409C229.637 50.856 229.666 50.8644 229.695 50.8654C229.674 50.8948 229.66 50.9282 229.654 50.9634C229.647 50.9986 229.649 51.0347 229.658 51.0693C229.611 51.1459 229.584 51.2328 229.58 51.3222C229.58 51.3222 229.58 51.3834 229.789 51.1998C230.004 51.2242 230.221 51.186 230.414 51.0897C230.589 50.9491 230.73 50.7705 230.825 50.5677C230.974 50.2511 231.103 49.9256 231.211 49.593C231.211 49.593 231.269 49.3931 231.314 49.1607C231.37 49.0514 231.436 48.9477 231.511 48.8507C231.954 48.2406 232.476 47.6919 233.065 47.2193C233.184 47.1437 233.315 47.0859 233.451 47.0481C233.792 47.0481 234.483 47.0807 235.177 47.0481C234.971 47.3762 234.735 47.6859 234.475 47.9738C234.369 47.9802 234.266 48.0103 234.173 48.0619C234.081 48.1134 234.001 48.1851 233.94 48.2716C233.94 48.2716 233.529 51.8524 233.496 52.0155C233.5 52.0302 233.5 52.0457 233.496 52.0604C233.422 52.2276 233.496 52.7211 233.431 53.0677C233.403 53.3218 233.411 53.5786 233.455 53.8304C233.455 53.8671 233.48 53.8997 233.488 53.9323C233.474 54.0224 233.487 54.1145 233.525 54.1974C233.549 54.1639 233.569 54.1284 233.587 54.0914C233.6 54.1031 233.617 54.1097 233.634 54.1097C233.652 54.1097 233.669 54.1031 233.681 54.0914C233.658 54.1587 233.651 54.2303 233.659 54.3009C233.668 54.3715 233.692 54.4393 233.731 54.4992V54.7725C233.793 54.7437 233.843 54.6928 233.87 54.6297C233.895 54.6399 233.924 54.6399 233.949 54.6297C233.943 54.6655 233.946 54.702 233.957 54.7365C233.967 54.7711 233.986 54.8029 234.01 54.8296C234.01 54.9189 234.026 55.0076 234.06 55.0906C234.06 55.0906 234.06 55.1477 234.187 54.8826C234.405 54.8541 234.631 54.5645 234.688 54.4992C234.774 54.2955 234.814 54.0755 234.803 53.8549C234.785 53.5048 234.745 53.1561 234.684 52.8108C234.684 52.8108 234.643 52.6273 234.581 52.403C234.572 52.2663 234.582 52.1291 234.61 51.9951C234.716 51.2546 234.922 50.5317 235.223 49.8458C235.296 49.7251 235.384 49.6141 235.486 49.5155C236.269 49.1597 237.027 48.7509 237.754 48.292C238.969 47.4864 240.111 46.579 241.17 45.5798C241.581 45.172 242.045 44.7642 242.403 44.3115C242.662 44.1477 242.937 44.011 243.225 43.9036C244.708 43.3816 245.152 43.9893 246.994 43.7854H247.117C247.631 43.6712 249.994 43.3245 251.1 42.8514C251.621 42.6133 252.108 42.3059 252.546 41.9379C253.28 42.3173 254.036 42.6524 254.811 42.9411C255.005 43.0238 255.217 43.0575 255.427 43.039C255.497 43.039 259.603 43.4469 259.603 43.4469C259.614 43.451 259.625 43.451 259.636 43.4469C259.755 43.5465 259.895 43.6165 260.047 43.6508C260.195 43.7201 260.396 43.6508 260.647 43.61C260.966 43.546 261.28 43.4615 261.588 43.3571C261.62 43.3405 261.65 43.3214 261.679 43.3C261.77 43.2915 261.858 43.2591 261.933 43.2062C261.895 43.1922 261.855 43.1813 261.814 43.1736C261.835 43.1206 261.814 43.092 261.814 43.0757C261.884 43.0815 261.954 43.0716 262.02 43.0469C262.085 43.0222 262.144 42.9833 262.192 42.933L262.455 42.8718C262.423 42.8439 262.385 42.8247 262.343 42.8161C262.301 42.8075 262.258 42.8099 262.217 42.8229C262.216 42.8088 262.212 42.7951 262.206 42.7825C262.2 42.7699 262.191 42.7586 262.18 42.7495C262.216 42.7453 262.251 42.7337 262.282 42.7155C262.313 42.6972 262.34 42.6726 262.361 42.6434C262.459 42.6275 262.551 42.5868 262.628 42.5251Z" fill="url(#paint29_linear_89_52)"/>
<path d="M106.658 139.798L104.805 147.082L102.018 147.274L104.776 136.458L113.337 135.863L115.162 133.008L115.852 130.312L101.969 131.283C101.153 131.345 100.378 131.657 99.749 132.176C99.1202 132.695 98.6694 133.394 98.4589 134.178L94.2996 150.492C93.8886 152.074 94.764 153.11 96.4326 152.992L110.444 152.013L113.686 139.309L106.658 139.798ZM121.043 129.965L113.025 149.183L112.334 151.878L119.321 151.389L120.883 146.989L123.961 146.772L123.3 151.116L130.287 150.622L130.977 147.927L132.683 129.166L121.043 129.965ZM124.866 141.385L122.811 141.532L125.096 135.039L125.864 134.986L124.866 141.385ZM151.141 127.861L147.257 136.536L146.776 136.568L147.261 128.134L139.452 128.681L132.292 147.849L131.606 150.545L138.465 150.068L141.125 139.656L141.667 139.615L140.742 149.909L146.607 149.501L150.997 138.966L151.576 138.926L148.917 149.342L155.719 148.86L156.41 146.165L158.983 127.327L151.141 127.861ZM166.023 142.8L166.779 139.827L173.672 139.342L175.057 133.921L168.164 134.403L168.781 131.984L175.673 131.503L177.502 128.648L178.188 125.952L163.166 127.021L157.626 148.714L172.632 147.661L174.017 142.241L166.023 142.8ZM182.286 125.671C181.471 125.733 180.695 126.045 180.066 126.564C179.438 127.083 178.987 127.782 178.776 128.567L177.617 133.122C177.173 134.855 177.288 135.761 178.567 136.674L183.659 140.153L183.297 141.581L175.311 142.139L173.931 147.564L186.141 146.707C186.952 146.641 187.721 146.328 188.345 145.81C188.968 145.292 189.414 144.595 189.622 143.816L190.88 138.889C191.32 137.151 191.213 136.218 189.927 135.333L184.843 131.825L185.093 130.83L191.986 130.349L193.79 127.494L194.468 124.827L182.286 125.671Z" fill="url(#paint30_linear_89_52)"/>
<path d="M156.508 35.8896C156.494 36.0755 156.516 36.2624 156.575 36.4395C156.633 36.6166 156.727 36.7805 156.85 36.9214C157.285 37.4166 157.594 38.009 157.749 38.6481C157.905 39.2872 157.902 39.9541 157.741 40.592L154.429 56.7382C154.385 56.944 154.391 57.157 154.445 57.3602C154.499 57.5634 154.601 57.7512 154.741 57.9087C154.87 58.0532 155.028 58.1689 155.205 58.2483C155.382 58.3278 155.574 58.3691 155.769 58.3696H155.871L184.452 56.2284C184.775 56.2065 185.079 56.0714 185.31 55.8472C185.541 55.623 185.684 55.3244 185.714 55.0049C185.862 53.3736 186.067 51.7055 186.33 50.0089C187.287 43.674 188.941 37.4622 191.262 31.485C191.351 31.2729 191.384 31.0418 191.359 30.8135C191.333 30.5851 191.249 30.3671 191.114 30.1799C190.973 29.9921 190.785 29.8436 190.569 29.7486C190.354 29.6536 190.117 29.6154 189.881 29.6375L176.347 30.653C176.052 30.679 175.772 30.7984 175.551 30.9937C175.329 31.189 175.176 31.4498 175.114 31.7378L174.046 36.9663C174.002 37.1727 174.007 37.3864 174.062 37.5903C174.116 37.7942 174.217 37.9828 174.358 38.1409C174.499 38.2997 174.675 38.424 174.873 38.504C175.07 38.5839 175.284 38.6174 175.497 38.6017L178.193 38.3937L176.014 48.9975L166.923 49.6786L172.924 20.4775L182.019 19.7964L180.885 25.2859C180.834 25.5271 180.851 25.7774 180.933 26.01C181.014 26.2426 181.159 26.4487 181.349 26.6062C181.54 26.7638 181.771 26.8668 182.016 26.9044C182.262 26.9419 182.513 26.9125 182.742 26.8193L192.606 22.8715C192.905 22.7503 193.151 22.5285 193.302 22.245C193.452 21.9616 193.497 21.6347 193.428 21.3217C193.058 19.6292 193.141 17.3942 193.663 14.6821L193.745 14.2743C193.848 13.7645 193.967 13.2669 194.09 12.7897C194.145 12.5801 194.149 12.3606 194.101 12.1493C194.053 11.9379 193.955 11.741 193.815 11.5747C193.675 11.4084 193.498 11.2777 193.297 11.1932C193.096 11.1087 192.877 11.073 192.66 11.0891L164.4 13.2343C164.104 13.259 163.824 13.3779 163.601 13.5735C163.379 13.769 163.227 14.0305 163.167 14.3191L159.287 33.1897L157.002 34.9679C156.862 35.0817 156.747 35.2217 156.662 35.3799C156.578 35.5381 156.525 35.7113 156.508 35.8896Z" fill="white"/>
<path d="M82.5864 42.0806L82.6686 42.2519L82.8043 42.3865C83.2663 42.8549 83.6002 43.4327 83.7743 44.0651C83.9483 44.6974 83.9568 45.3634 83.7989 45.9999L80.4533 62.3134C80.4132 62.511 80.4177 62.715 80.4667 62.9106C80.5156 63.1062 80.6076 63.2887 80.7362 63.4447C80.8648 63.6008 81.0266 63.7266 81.2101 63.813C81.3936 63.8995 81.5942 63.9445 81.7973 63.9447H81.9001L110.748 61.7832C111.044 61.7585 111.324 61.6395 111.546 61.444C111.768 61.2485 111.921 60.9869 111.981 60.6983L115.368 44.2258C115.676 42.7087 116.642 41.2649 118.245 39.9354C118.427 39.8066 118.572 39.6327 118.666 39.431C118.76 39.2292 118.799 39.0066 118.779 38.7853C118.746 38.4223 118.717 38.1123 116.921 36.7012L120.715 18.2425C120.757 18.0359 120.751 17.8222 120.696 17.6184C120.642 17.4146 120.54 17.2261 120.399 17.068C120.259 16.9098 120.083 16.7862 119.886 16.7069C119.689 16.6277 119.476 16.5949 119.264 16.6112L90.4201 18.7605C90.1249 18.7856 89.8457 18.9042 89.6237 19.0988C89.4016 19.2934 89.2486 19.5537 89.1871 19.8413L85.3278 38.6221C83.4577 39.5398 82.4919 40.4737 82.4508 41.4036C82.4407 41.6368 82.4872 41.869 82.5864 42.0806ZM98.9483 26.02L108.216 25.3226L102.212 54.5237L92.9477 55.217L98.9483 26.02Z" fill="white"/>
<path d="M119.601 38.6711C119.583 38.8571 119.604 39.0448 119.663 39.2223C119.722 39.3999 119.817 39.5635 119.942 39.7029C120.378 40.1981 120.686 40.7905 120.842 41.4296C120.997 42.0687 120.994 42.7356 120.834 43.3734L117.513 59.5197C117.472 59.7258 117.479 59.9385 117.534 60.1414C117.589 60.3443 117.69 60.5321 117.829 60.6902C117.958 60.8353 118.117 60.9515 118.295 61.031C118.473 61.1105 118.666 61.1514 118.861 61.1511H118.964L127.332 60.523C127.628 60.4983 127.908 60.3793 128.13 60.1838C128.352 59.9883 128.505 59.7267 128.565 59.4381L134.939 28.4425L135.704 30.3675C139.041 38.9321 139.752 48.2512 137.808 58.0311C137.768 58.2375 137.776 58.4504 137.831 58.6533C137.887 58.8563 137.988 59.0438 138.129 59.2016C138.268 59.3591 138.443 59.4818 138.64 59.5597C138.836 59.6376 139.048 59.6686 139.259 59.6502L147.631 59.0222C147.927 58.9975 148.207 58.8785 148.429 58.683C148.651 58.4875 148.804 58.2259 148.864 57.9373L152.218 41.6238C152.534 40.0822 153.484 38.6099 155.041 37.2518C155.183 37.1257 155.298 36.9719 155.378 36.8C155.458 36.6282 155.501 36.4418 155.506 36.2526C155.511 36.0651 155.477 35.8785 155.406 35.7044C155.336 35.5304 155.229 35.3727 155.095 35.2412L153.796 34.0177L157.61 15.4978C157.652 15.2929 157.646 15.0812 157.592 14.879C157.539 14.6769 157.439 14.4897 157.3 14.3319C157.162 14.1742 156.989 14.0502 156.795 13.9694C156.6 13.8887 156.39 13.8535 156.18 13.8665L147.795 14.4782C147.491 14.4955 147.201 14.6148 146.973 14.8167C146.748 15.0111 146.594 15.2733 146.534 15.5631L143.357 31.1139L137.418 16.2156C137.312 15.9444 137.121 15.7145 136.873 15.5601C136.625 15.4057 136.333 15.3352 136.041 15.3591L127.488 15.9994C127.192 16.0241 126.912 16.1431 126.69 16.3386C126.468 16.5341 126.315 16.7957 126.255 17.0843L122.371 35.9508L120.127 37.7331C119.979 37.8454 119.856 37.9866 119.766 38.148C119.675 38.3093 119.619 38.4873 119.601 38.6711Z" fill="white"/>
<path d="M205.5 96.0701L195.771 93.1459C195.659 93.109 195.54 93.0965 195.422 93.1095C195.305 93.1224 195.191 93.1603 195.09 93.2207C194.989 93.2812 194.901 93.3626 194.835 93.4595C194.768 93.5563 194.723 93.6664 194.703 93.7821L193.388 100.165C193.358 100.308 193.282 100.437 193.171 100.533C193.061 100.63 192.922 100.688 192.775 100.699L186.594 101.144C186.488 101.152 186.382 101.135 186.284 101.095C186.186 101.056 186.099 100.994 186.029 100.914C185.96 100.835 185.91 100.741 185.884 100.639C185.858 100.537 185.856 100.431 185.879 100.328L193.125 65.0785C193.156 64.9509 193.156 64.8177 193.124 64.6902C193.092 64.5626 193.03 64.4446 192.942 64.3461C192.855 64.2476 192.744 64.1715 192.621 64.1244C192.497 64.0772 192.364 64.0604 192.233 64.0753L182.78 64.7849C182.595 64.7948 182.419 64.8662 182.28 64.9876C182.142 65.1089 182.048 65.2732 182.015 65.4538L178.098 84.5201C178.074 84.6444 178.014 84.759 177.926 84.8505L175.419 87.4443C175.351 87.5145 175.3 87.5983 175.268 87.69C175.237 87.7817 175.225 87.8791 175.235 87.9755C175.245 88.0719 175.276 88.1651 175.325 88.2487C175.374 88.3323 175.441 88.4043 175.521 88.4598L175.571 88.4925C175.613 88.5206 175.651 88.5534 175.686 88.5903C176.648 89.5773 176.865 90.7478 176.537 92.1263L173.076 108.954C173.05 109.081 173.053 109.213 173.087 109.338C173.12 109.464 173.183 109.58 173.269 109.678C173.356 109.775 173.464 109.852 173.585 109.901C173.706 109.95 173.837 109.971 173.968 109.961L201.838 107.873C202.033 107.862 202.218 107.783 202.36 107.649C202.501 107.515 202.59 107.336 202.61 107.143L202.635 106.976C202.717 106.36 202.824 105.732 202.956 105.1C203.589 102.029 204.546 99.4796 205.808 97.5261L205.96 97.2895C206.023 97.1818 206.062 97.0615 206.072 96.9373C206.083 96.8131 206.066 96.6881 206.022 96.5713C205.978 96.4546 205.908 96.349 205.818 96.2623C205.727 96.1756 205.619 96.11 205.5 96.0701Z" fill="white"/>
<path d="M174.136 88.5006L174.169 88.472C174.291 88.3573 174.365 88.2015 174.376 88.0353C174.388 87.8692 174.336 87.7048 174.231 87.5748L172.887 85.8823C172.826 85.8056 172.782 85.7166 172.76 85.6215C172.737 85.5264 172.735 85.4274 172.755 85.3317L176.652 66.3673C176.678 66.2405 176.674 66.1094 176.641 65.9843C176.608 65.8591 176.546 65.7434 176.46 65.6461C176.374 65.5489 176.266 65.4728 176.145 65.4238C176.024 65.3748 175.894 65.3544 175.764 65.364L145.991 67.5908C145.807 67.6057 145.634 67.6793 145.496 67.8007C145.358 67.922 145.263 68.0845 145.227 68.2637L141.322 87.2771C141.288 87.4299 141.203 87.5667 141.08 87.6645L138.568 89.6507C138.476 89.7244 138.399 89.8168 138.345 89.9219C138.291 90.0269 138.259 90.1421 138.253 90.26C138.247 90.3779 138.266 90.4958 138.309 90.6059C138.352 90.7159 138.418 90.8157 138.503 90.8987L138.667 91.0618C139.165 91.5612 139.525 92.1786 139.715 92.8554C139.904 93.5321 139.915 94.2457 139.748 94.9281L136.287 111.747C136.257 111.875 136.258 112.007 136.29 112.134C136.322 112.261 136.384 112.379 136.472 112.477C136.559 112.575 136.669 112.65 136.792 112.697C136.915 112.744 137.048 112.761 137.179 112.747L146.632 112.041C146.816 112.028 146.99 111.955 147.128 111.834C147.266 111.713 147.36 111.551 147.397 111.372L148.704 105.014C149.296 102.159 150.759 99.4102 153.077 96.8816C154.844 94.9698 156.905 93.3483 159.184 92.0773C159.297 92.0153 159.426 91.9867 159.554 91.995C159.683 92.0033 159.807 92.0481 159.911 92.1241C160.015 92.2002 160.094 92.3042 160.14 92.4239C160.187 92.5435 160.197 92.6738 160.171 92.7992L156.591 110.226C156.559 110.354 156.56 110.487 156.591 110.614C156.623 110.742 156.685 110.86 156.773 110.959C156.861 111.057 156.971 111.133 157.094 111.18C157.218 111.227 157.351 111.244 157.483 111.229L166.936 110.52C167.119 110.505 167.292 110.432 167.43 110.311C167.568 110.191 167.662 110.029 167.7 109.851L171.185 92.8726C171.514 91.3555 172.579 89.7241 174.136 88.5006ZM161.86 84.6221L152.07 88.7004L154.947 74.7891L164.038 74.108L161.86 84.6221Z" fill="white"/>
<path d="M216.699 62.2726C216.517 62.2868 216.343 62.3598 216.206 62.4805C216.069 62.6012 215.975 62.7631 215.939 62.9415L211.981 82.1995L209.281 84.3366C209.188 84.4101 209.112 84.5022 209.057 84.6069C209.002 84.7116 208.97 84.8265 208.963 84.9442C208.956 85.0619 208.974 85.1798 209.016 85.2901C209.058 85.4004 209.123 85.5008 209.207 85.5846L209.375 85.7518C209.874 86.2503 210.236 86.8677 210.425 87.5447C210.614 88.2218 210.625 88.9357 210.456 89.6181L207 106.445C206.969 106.573 206.969 106.706 207 106.833C207.032 106.96 207.094 107.078 207.181 107.176C207.268 107.274 207.378 107.351 207.501 107.398C207.624 107.446 207.756 107.463 207.888 107.449L237.11 105.259C237.298 105.244 237.475 105.167 237.615 105.041C237.754 104.915 237.847 104.746 237.878 104.561L237.907 104.398C238.01 103.774 238.125 102.991 238.215 102.481C238.811 99.137 239.292 93.5496 241.092 90.8497C241.209 90.6773 241.262 90.4694 241.24 90.2625L241.17 89.716C241.155 89.5859 241.108 89.4613 241.035 89.3522C240.962 89.2431 240.864 89.1526 240.75 89.0879C240.635 89.0232 240.506 88.9862 240.375 88.9798C240.243 88.9734 240.111 88.9979 239.991 89.0512L229.416 93.672C229.277 93.7294 229.158 93.8232 229.069 93.9432C228.981 94.0633 228.927 94.205 228.914 94.3531L228.536 98.0236L219.634 98.6965L221.779 88.2559C223.634 88.2395 225.484 88.4588 227.283 88.9084L227.43 88.9533C227.606 89.0038 227.794 88.9966 227.965 88.9326C228.136 88.8687 228.281 88.7514 228.38 88.5985L233.464 80.7028C233.549 80.5716 233.595 80.4196 233.597 80.2639C233.599 80.1082 233.558 79.9549 233.477 79.8213C233.396 79.6877 233.28 79.5792 233.14 79.508C233.001 79.4367 232.844 79.4056 232.687 79.4181L223.452 80.1073L225.634 69.5036L234.553 68.8347L233.226 75.2908C233.196 75.439 233.206 75.5926 233.257 75.7352C233.308 75.8778 233.396 76.0043 233.513 76.1012C233.63 76.1981 233.771 76.2618 233.922 76.2857C234.072 76.3096 234.227 76.2928 234.368 76.2369L245.588 71.7507C245.777 71.6751 245.932 71.5346 246.025 71.3548C246.118 71.1751 246.142 70.9681 246.094 70.7719L246.049 70.5966C245.601 68.798 245.691 66.3551 246.312 63.333L246.394 62.9252C246.394 62.8273 246.423 62.7702 246.431 62.7376C246.439 62.7049 246.431 62.6601 246.472 62.5703L252.534 59.3851L216.699 62.2726Z" fill="white"/>
<path d="M137.048 77.6725L142.51 69.2425C142.594 69.1114 142.64 68.9597 142.642 68.8043C142.644 68.6489 142.603 68.4959 142.523 68.3624C142.443 68.2288 142.327 68.1199 142.189 68.0478C142.05 67.9756 141.894 67.9431 141.737 67.9538L107.357 70.5313C107.234 70.5404 107.114 70.5763 107.006 70.6366C106.898 70.6969 106.805 70.7801 106.733 70.8801C106.662 70.9802 106.613 71.0947 106.591 71.2156C106.569 71.3365 106.574 71.4607 106.605 71.5794L108.796 79.883L109.902 79.4466C112.332 78.5653 114.864 77.9898 117.439 77.7337L115.08 89.2673C115.042 89.4596 114.936 89.6319 114.78 89.7526L112.47 91.5961C112.382 91.6701 112.31 91.7613 112.258 91.8641C112.206 91.9669 112.177 92.079 112.17 92.1937C112.164 92.3084 112.182 92.423 112.222 92.5307C112.262 92.6383 112.324 92.7367 112.404 92.8196L112.569 92.9868C113.032 93.4532 113.366 94.0293 113.541 94.6604C113.716 95.2915 113.725 95.9565 113.568 96.5921L110.054 113.689C110.027 113.816 110.031 113.947 110.064 114.073C110.098 114.198 110.16 114.314 110.247 114.412C110.333 114.509 110.441 114.585 110.563 114.634C110.684 114.682 110.815 114.702 110.945 114.692L120.423 114.003C120.606 113.988 120.779 113.915 120.916 113.795C121.054 113.674 121.147 113.512 121.183 113.334L124.652 96.4738C124.961 94.9607 125.922 93.517 127.505 92.1874L127.542 92.1507L127.866 91.8285C127.948 91.7522 128.014 91.66 128.059 91.5576C128.103 91.4552 128.126 91.3447 128.126 91.2331C128.126 91.1215 128.103 91.011 128.059 90.9086C128.014 90.8062 127.948 90.714 127.866 90.6377L126.522 89.3407C126.421 89.2422 126.346 89.12 126.304 88.9854C126.263 88.8508 126.256 88.7079 126.284 88.5699L128.696 76.8364C131.964 76.7263 134.516 76.9303 136.288 77.4482L137.048 77.6725Z" fill="white"/>
<path d="M100.136 82.7909L88.1883 83.2558L86.5032 83.3333L81.9411 83.6147C81.7782 83.6247 81.6217 83.6813 81.4905 83.7775C81.3592 83.8738 81.2588 84.0056 81.2013 84.1571L77.0009 95.3074C76.9497 95.4418 76.9343 95.5869 76.9562 95.7289C76.978 95.8709 77.0363 96.005 77.1255 96.1181C77.2148 96.2312 77.3318 96.3196 77.4655 96.3748C77.5992 96.4299 77.7449 96.45 77.8886 96.433L84.0536 95.7234C83.5741 98.1541 83.0946 100.585 82.6151 103.016L65.3038 104.039L82.4219 20.1757C82.4484 20.0484 82.4447 19.9168 82.4111 19.7911C82.3776 19.6655 82.3152 19.5493 82.2288 19.4517C82.1423 19.354 82.0342 19.2776 81.913 19.2285C81.7918 19.1793 81.6607 19.1587 81.5301 19.1683L63.5242 20.5183C63.3378 20.5327 63.1615 20.6082 63.0231 20.733C62.8847 20.8578 62.792 21.0247 62.7598 21.2075L53.6849 65.0908C53.644 65.284 53.5365 65.4571 53.3808 65.5802L48.2762 69.6137C48.1863 69.6862 48.1123 69.7763 48.0589 69.8783C48.0055 69.9803 47.9738 70.0922 47.9657 70.2068C47.9576 70.3215 47.9734 70.4367 48.0119 70.5451C48.0505 70.6535 48.111 70.7529 48.1899 70.8372L48.5104 71.1675C50.6846 73.4269 51.4285 76.0616 50.7833 79.1937L43.488 114.447L33.4062 119.602L42.5715 118.88L94.3573 114.773C94.54 114.762 94.7135 114.69 94.8505 114.57C94.9875 114.45 95.0801 114.287 95.1136 114.109L95.1999 113.701C95.5533 111.894 95.5657 111.56 95.8205 110.083C96.7781 104.512 99.9305 89.4916 100.991 83.7778C101.018 83.6546 101.016 83.5268 100.984 83.4046C100.953 83.2823 100.894 83.1689 100.811 83.0733C100.728 82.9776 100.624 82.9023 100.507 82.8533C100.39 82.8043 100.263 82.783 100.136 82.7909Z" fill="white"/>
</g>
<defs>
<linearGradient id="paint0_linear_89_52" x1="284" y1="-2.77904e-06" x2="23.1524" y2="185.549" gradientUnits="userSpaceOnUse">
<stop stop-color="#A857FF"/>
<stop offset="1" stop-color="#8576FD"/>
</linearGradient>
<linearGradient id="paint1_linear_89_52" x1="284" y1="-2.77904e-06" x2="23.1524" y2="185.549" gradientUnits="userSpaceOnUse">
<stop stop-color="#A857FF"/>
<stop offset="1" stop-color="#8576FD"/>
</linearGradient>
<linearGradient id="paint2_linear_89_52" x1="284" y1="-2.77904e-06" x2="23.1524" y2="185.549" gradientUnits="userSpaceOnUse">
<stop stop-color="#A857FF"/>
<stop offset="1" stop-color="#8576FD"/>
</linearGradient>
<linearGradient id="paint3_linear_89_52" x1="284" y1="-2.77904e-06" x2="23.1524" y2="185.549" gradientUnits="userSpaceOnUse">
<stop stop-color="#A857FF"/>
<stop offset="1" stop-color="#8576FD"/>
</linearGradient>
<linearGradient id="paint4_linear_89_52" x1="284" y1="-2.77904e-06" x2="23.1524" y2="185.549" gradientUnits="userSpaceOnUse">
<stop stop-color="#A857FF"/>
<stop offset="1" stop-color="#8576FD"/>
</linearGradient>
<linearGradient id="paint5_linear_89_52" x1="284" y1="-2.77904e-06" x2="23.1524" y2="185.549" gradientUnits="userSpaceOnUse">
<stop stop-color="#A857FF"/>
<stop offset="1" stop-color="#8576FD"/>
</linearGradient>
<linearGradient id="paint6_linear_89_52" x1="284" y1="-2.77904e-06" x2="23.1524" y2="185.549" gradientUnits="userSpaceOnUse">
<stop stop-color="#A857FF"/>
<stop offset="1" stop-color="#8576FD"/>
</linearGradient>
<linearGradient id="paint7_linear_89_52" x1="284" y1="-2.77904e-06" x2="23.1524" y2="185.549" gradientUnits="userSpaceOnUse">
<stop stop-color="#A857FF"/>
<stop offset="1" stop-color="#8576FD"/>
</linearGradient>
<linearGradient id="paint8_linear_89_52" x1="284" y1="-2.77904e-06" x2="23.1524" y2="185.549" gradientUnits="userSpaceOnUse">
<stop stop-color="#A857FF"/>
<stop offset="1" stop-color="#8576FD"/>
</linearGradient>
<linearGradient id="paint9_linear_89_52" x1="284" y1="-2.77904e-06" x2="23.1524" y2="185.549" gradientUnits="userSpaceOnUse">
<stop stop-color="#A857FF"/>
<stop offset="1" stop-color="#8576FD"/>
</linearGradient>
<linearGradient id="paint10_linear_89_52" x1="284" y1="-2.77904e-06" x2="23.1524" y2="185.549" gradientUnits="userSpaceOnUse">
<stop stop-color="#A857FF"/>
<stop offset="1" stop-color="#8576FD"/>
</linearGradient>
<linearGradient id="paint11_linear_89_52" x1="284" y1="-2.77904e-06" x2="23.1524" y2="185.549" gradientUnits="userSpaceOnUse">
<stop stop-color="#A857FF"/>
<stop offset="1" stop-color="#8576FD"/>
</linearGradient>
<linearGradient id="paint12_linear_89_52" x1="284" y1="-2.77904e-06" x2="23.1524" y2="185.549" gradientUnits="userSpaceOnUse">
<stop stop-color="#A857FF"/>
<stop offset="1" stop-color="#8576FD"/>
</linearGradient>
<linearGradient id="paint13_linear_89_52" x1="284" y1="-2.77904e-06" x2="23.1524" y2="185.549" gradientUnits="userSpaceOnUse">
<stop stop-color="#A857FF"/>
<stop offset="1" stop-color="#8576FD"/>
</linearGradient>
<linearGradient id="paint14_linear_89_52" x1="284" y1="-2.77904e-06" x2="23.1524" y2="185.549" gradientUnits="userSpaceOnUse">
<stop stop-color="#A857FF"/>
<stop offset="1" stop-color="#8576FD"/>
</linearGradient>
<linearGradient id="paint15_linear_89_52" x1="284" y1="-2.77904e-06" x2="23.1524" y2="185.549" gradientUnits="userSpaceOnUse">
<stop stop-color="#A857FF"/>
<stop offset="1" stop-color="#8576FD"/>
</linearGradient>
<linearGradient id="paint16_linear_89_52" x1="284" y1="-2.77904e-06" x2="23.1524" y2="185.549" gradientUnits="userSpaceOnUse">
<stop stop-color="#A857FF"/>
<stop offset="1" stop-color="#8576FD"/>
</linearGradient>
<linearGradient id="paint17_linear_89_52" x1="284" y1="-2.77904e-06" x2="23.1524" y2="185.549" gradientUnits="userSpaceOnUse">
<stop stop-color="#A857FF"/>
<stop offset="1" stop-color="#8576FD"/>
</linearGradient>
<linearGradient id="paint18_linear_89_52" x1="284" y1="-2.77904e-06" x2="23.1524" y2="185.549" gradientUnits="userSpaceOnUse">
<stop stop-color="#A857FF"/>
<stop offset="1" stop-color="#8576FD"/>
</linearGradient>
<linearGradient id="paint19_linear_89_52" x1="284" y1="-2.77904e-06" x2="23.1524" y2="185.549" gradientUnits="userSpaceOnUse">
<stop stop-color="#A857FF"/>
<stop offset="1" stop-color="#8576FD"/>
</linearGradient>
<linearGradient id="paint20_linear_89_52" x1="284" y1="-2.77904e-06" x2="23.1524" y2="185.549" gradientUnits="userSpaceOnUse">
<stop stop-color="#A857FF"/>
<stop offset="1" stop-color="#8576FD"/>
</linearGradient>
<linearGradient id="paint21_linear_89_52" x1="284" y1="-2.77904e-06" x2="23.1524" y2="185.549" gradientUnits="userSpaceOnUse">
<stop stop-color="#A857FF"/>
<stop offset="1" stop-color="#8576FD"/>
</linearGradient>
<linearGradient id="paint22_linear_89_52" x1="284" y1="-2.77904e-06" x2="23.1524" y2="185.549" gradientUnits="userSpaceOnUse">
<stop stop-color="#A857FF"/>
<stop offset="1" stop-color="#8576FD"/>
</linearGradient>
<linearGradient id="paint23_linear_89_52" x1="284" y1="-2.77904e-06" x2="23.1524" y2="185.549" gradientUnits="userSpaceOnUse">
<stop stop-color="#A857FF"/>
<stop offset="1" stop-color="#8576FD"/>
</linearGradient>
<linearGradient id="paint24_linear_89_52" x1="284" y1="-2.77904e-06" x2="23.1524" y2="185.549" gradientUnits="userSpaceOnUse">
<stop stop-color="#A857FF"/>
<stop offset="1" stop-color="#8576FD"/>
</linearGradient>
<linearGradient id="paint25_linear_89_52" x1="284" y1="-2.77904e-06" x2="23.1524" y2="185.549" gradientUnits="userSpaceOnUse">
<stop stop-color="#A857FF"/>
<stop offset="1" stop-color="#8576FD"/>
</linearGradient>
<linearGradient id="paint26_linear_89_52" x1="284" y1="-2.77904e-06" x2="23.1524" y2="185.549" gradientUnits="userSpaceOnUse">
<stop stop-color="#A857FF"/>
<stop offset="1" stop-color="#8576FD"/>
</linearGradient>
<linearGradient id="paint27_linear_89_52" x1="284" y1="-2.77904e-06" x2="23.1524" y2="185.549" gradientUnits="userSpaceOnUse">
<stop stop-color="#A857FF"/>
<stop offset="1" stop-color="#8576FD"/>
</linearGradient>
<linearGradient id="paint28_linear_89_52" x1="284" y1="-2.77904e-06" x2="23.1524" y2="185.549" gradientUnits="userSpaceOnUse">
<stop stop-color="#A857FF"/>
<stop offset="1" stop-color="#8576FD"/>
</linearGradient>
<linearGradient id="paint29_linear_89_52" x1="284" y1="-2.77904e-06" x2="23.1524" y2="185.549" gradientUnits="userSpaceOnUse">
<stop stop-color="#A857FF"/>
<stop offset="1" stop-color="#8576FD"/>
</linearGradient>
<linearGradient id="paint30_linear_89_52" x1="284" y1="-2.77904e-06" x2="23.1524" y2="185.549" gradientUnits="userSpaceOnUse">
<stop stop-color="#A857FF"/>
<stop offset="1" stop-color="#8576FD"/>
</linearGradient>
<clipPath id="clip0_89_52">
<rect width="284" height="153" fill="white"/>
</clipPath>
</defs>
</svg>
