<svg width="82" height="62" viewBox="0 0 82 62" fill="none" xmlns="http://www.w3.org/2000/svg">
<path d="M41.6339 18.8949C41.6339 18.8949 32.2212 21.589 32.2212 28.4334C32.2212 35.2778 40.1134 44.6618 50.9742 44.5978C63.2832 44.525 66.469 34.5496 66.469 29.6712C66.469 26.613 63.5004 15.3635 51.6621 15.3635C51.6621 15.3635 47.4988 10.303 40.765 6.07987C40.765 6.07987 49.6347 0.218445 58.6854 0.218445C68.2857 0.218445 82 9.138 82 31.091C82 49.9859 70.5281 61.7452 57.0563 61.7452C44.9646 61.7452 23.3515 44.525 23.3515 30.5813C23.3515 21.589 30.2662 15.6911 30.2662 15.6911C30.2662 15.6911 36.4207 15.2543 41.6339 18.8949Z" fill="url(#paint0_linear_1106_500)"/>
<mask id="mask0_1106_500" style="mask-type:luminance" maskUnits="userSpaceOnUse" x="23" y="0" width="59" height="62">
<path d="M41.6339 18.8949C41.6339 18.8949 32.2212 21.589 32.2212 28.4334C32.2212 35.2778 40.1134 44.6618 50.9742 44.5978C63.2832 44.525 66.469 34.5496 66.469 29.6712C66.469 26.613 63.5004 15.3635 51.6621 15.3635C51.6621 15.3635 47.4988 10.303 40.765 6.07987C40.765 6.07987 49.6347 0.218445 58.6854 0.218445C68.2857 0.218445 82 9.138 82 31.091C82 49.9859 70.5281 61.7452 57.0563 61.7452C44.9646 61.7452 23.3515 44.525 23.3515 30.5813C23.3515 21.589 30.2662 15.6911 30.2662 15.6911C30.2662 15.6911 36.4207 15.2543 41.6339 18.8949Z" fill="white"/>
</mask>
<g mask="url(#mask0_1106_500)">
<path d="M82 38.5667C82 67.4668 57.0903 33.1298 24.9929 33.1298C-7.10443 33.1298 -28.6842 80.4762 -28.6842 51.5761C-28.6842 22.6761 1.52414 -34.8285 33.6215 -34.8285C65.7189 -34.8285 82 9.66661 82 38.5667Z" fill="url(#paint1_radial_1106_500)"/>
</g>
<mask id="mask1_1106_500" style="mask-type:luminance" maskUnits="userSpaceOnUse" x="23" y="0" width="59" height="62">
<path d="M41.6339 18.8949C41.6339 18.8949 32.2212 21.589 32.2212 28.4334C32.2212 35.2778 40.1134 44.6618 50.9742 44.5978C63.2832 44.525 66.469 34.5496 66.469 29.6712C66.469 26.613 63.5004 15.3635 51.6621 15.3635C51.6621 15.3635 47.4988 10.303 40.765 6.07987C40.765 6.07987 49.6347 0.218445 58.6854 0.218445C68.2857 0.218445 82 9.138 82 31.091C82 49.9859 70.5281 61.7452 57.0563 61.7452C44.9646 61.7452 23.3515 44.525 23.3515 30.5813C23.3515 21.589 30.2662 15.6911 30.2662 15.6911C30.2662 15.6911 36.4207 15.2543 41.6339 18.8949Z" fill="white"/>
</mask>
<g mask="url(#mask1_1106_500)">
<path d="M74.7399 42.7338C78.4529 54.9372 79.9111 73.5372 64.8616 72.2105C49.8121 70.8839 17.701 51.073 18.8139 38.3082C19.9267 25.5434 32.8424 12.0206 39.4031 24.9871C44.0935 34.2576 70.9828 30.384 74.7406 42.7338H74.7399Z" fill="url(#paint2_linear_1106_500)"/>
</g>
<path d="M22.7361 0.0364075C39.1721 0.0364075 58.7216 18.2396 58.7216 30.108C58.7216 38.9912 51.1661 44.5956 51.1661 44.5956C51.1661 44.5956 47.2692 44.8228 43.2152 42.9529C43.2152 42.9529 50.757 38.6271 50.757 32.438C50.757 26.249 42.4304 15.6817 31.2053 15.6817C20.9259 15.6817 16.4368 23.5549 16.4368 31.2002C16.4368 38.8456 23.8323 44.9553 29.4799 44.9553C29.4799 44.9553 34.1131 50.9973 42.2226 56.3126C42.2226 56.3126 32.9445 62 24.2559 62C15.5672 62 0 53.1169 0 31.273C0 9.42924 15.1328 0.0364075 22.7353 0.0364075H22.7361Z" fill="url(#paint3_linear_1106_500)"/>
<mask id="mask2_1106_500" style="mask-type:luminance" maskUnits="userSpaceOnUse" x="0" y="0" width="59" height="62">
<path d="M22.7361 0.0364075C39.1721 0.0364075 58.7216 18.2396 58.7216 30.108C58.7216 38.9912 51.1661 44.5956 51.1661 44.5956C51.1661 44.5956 47.2692 44.8228 43.2152 42.9529C43.2152 42.9529 50.757 38.6271 50.757 32.438C50.757 26.249 42.4304 15.6817 31.2053 15.6817C20.9259 15.6817 16.4368 23.5549 16.4368 31.2002C16.4368 38.8456 23.8323 44.9553 29.4799 44.9553C29.4799 44.9553 34.1131 50.9973 42.2226 56.3126C42.2226 56.3126 32.9445 62 24.2559 62C15.5672 62 0 53.1169 0 31.273C0 9.42924 15.1328 0.0364075 22.7353 0.0364075H22.7361Z" fill="white"/>
</mask>
<g mask="url(#mask2_1106_500)">
<path d="M43.0936 50.6048C63.8344 50.6048 80.6482 36.3263 80.6482 18.7129C80.6482 1.09941 63.8344 -13.1791 43.0936 -13.1791C22.3528 -13.1791 5.53902 1.09941 5.53902 18.7129C5.53902 36.3263 22.3528 50.6048 43.0936 50.6048Z" fill="url(#paint4_radial_1106_500)"/>
</g>
<mask id="mask3_1106_500" style="mask-type:luminance" maskUnits="userSpaceOnUse" x="0" y="0" width="59" height="62">
<path d="M22.7361 0C39.1721 0 58.7216 18.2032 58.7216 30.0716C58.7216 38.9548 51.1661 44.5592 51.1661 44.5592C51.1661 44.5592 47.2692 44.7864 43.2152 42.9165C43.2152 42.9165 50.757 38.5907 50.757 32.4016C50.757 26.2126 42.4304 15.6453 31.2053 15.6453C20.9259 15.6453 16.4368 23.5185 16.4368 31.1638C16.4368 38.8092 23.8323 44.9189 29.4799 44.9189C29.4799 44.9189 34.1131 50.9609 42.2226 56.2762C42.2226 56.2762 32.9445 61.9636 24.2559 61.9636C15.5672 61.9636 0 53.0804 0 31.2366C0 9.39284 15.1328 0 22.7353 0H22.7361Z" fill="white"/>
</mask>
<g mask="url(#mask3_1106_500)">
<path d="M57.4343 70.9319C79.1504 70.9319 96.7548 54.6867 96.7548 34.6472C96.7548 14.6077 79.1504 -1.63754 57.4343 -1.63754C35.7181 -1.63754 18.1137 14.6077 18.1137 34.6472C18.1137 54.6867 35.7181 70.9319 57.4343 70.9319Z" fill="url(#paint5_radial_1106_500)"/>
</g>
<mask id="mask4_1106_500" style="mask-type:luminance" maskUnits="userSpaceOnUse" x="0" y="0" width="59" height="62">
<path d="M22.7361 0.0364075C39.1721 0.0364075 58.7216 18.2396 58.7216 30.108C58.7216 38.9912 51.1661 44.5956 51.1661 44.5956C51.1661 44.5956 47.2692 44.8228 43.2152 42.9529C43.2152 42.9529 50.757 38.6271 50.757 32.438C50.757 26.249 42.4304 15.6817 31.2053 15.6817C20.9259 15.6817 16.4368 23.5549 16.4368 31.2002C16.4368 38.8456 23.8323 44.9553 29.4799 44.9553C29.4799 44.9553 34.1131 50.9973 42.2226 56.3126C42.2226 56.3126 32.9445 62 24.2559 62C15.5672 62 0 53.1169 0 31.273C0 9.42924 15.1328 0.0364075 22.7353 0.0364075H22.7361Z" fill="white"/>
</mask>
<g mask="url(#mask4_1106_500)">
<path d="M45.0427 60.7568C48.2669 57.8395 46.614 50.7061 41.351 44.8239C36.0879 38.9417 29.2077 36.5382 25.9836 39.4555C22.7594 42.3728 24.4123 49.5062 29.6753 55.3884C34.9384 61.2706 41.8186 63.6741 45.0427 60.7568Z" fill="url(#paint6_radial_1106_500)"/>
</g>
<path d="M52.8039 1.29024C53.394 1.14607 53.9928 1.05142 54.5945 0.984428C55.1969 0.918896 55.8015 0.875209 56.4075 0.859919C56.5589 0.851909 56.7109 0.855548 56.8622 0.853364C57.0136 0.853364 57.1656 0.849723 57.3169 0.853364L57.7717 0.866472L57.999 0.873751L58.2264 0.888315C58.529 0.908702 58.8324 0.923993 59.1343 0.958943L59.5876 1.00482C59.7389 1.02083 59.8888 1.04486 60.0394 1.06525C61.242 1.23345 62.4331 1.4963 63.5967 1.85454L64.0311 1.99507C64.1752 2.04385 64.3222 2.08463 64.4634 2.14142L65.3185 2.46325C65.5994 2.58048 65.8782 2.70426 66.1577 2.8244L66.3676 2.91542L66.5725 3.0159L66.9824 3.21832L67.3914 3.42147L67.7904 3.645L68.1886 3.86926C68.3211 3.94426 68.4558 4.01635 68.5825 4.10081L69.3551 4.59011C69.4861 4.66875 69.6078 4.76049 69.7323 4.8486L70.1052 5.11363L70.4781 5.37867C70.6005 5.46969 70.717 5.56798 70.8365 5.66264L71.5497 6.23495L72.2318 6.84439L72.5706 7.15093L72.8928 7.47568C74.6226 9.19406 76.1076 11.1513 77.3103 13.2606L77.2487 13.2992C77.0728 13.0524 76.8954 12.8078 76.7216 12.5595L76.4602 12.1888C76.3719 12.0665 76.2901 11.9391 76.1952 11.8219L75.6406 11.1061L75.3655 10.7472L75.2967 10.6576L75.2236 10.5717L75.0773 10.3998C74.6834 9.94403 74.3098 9.47147 73.8877 9.04115C73.6813 8.82271 73.4786 8.59991 73.2708 8.38293L72.6249 7.75455L72.302 7.44073L71.9631 7.14438L71.2883 6.54877L70.5831 5.9903C70.4651 5.89855 70.3499 5.80171 70.229 5.71361L69.8634 5.45222L69.4977 5.19082C69.3754 5.10417 69.2559 5.01315 69.1277 4.93597L68.3704 4.45249C68.2458 4.36876 68.1141 4.29741 67.9837 4.22387L67.5927 4.00251L67.2017 3.78189L66.8006 3.58093L66.3995 3.37924L66.1989 3.27803L65.994 3.18701C65.7203 3.06614 65.4474 2.94236 65.1729 2.82367L64.3359 2.49893C64.1976 2.44141 64.0536 2.3999 63.9124 2.35039L63.4866 2.20768C62.347 1.83998 61.1791 1.55819 59.9945 1.37033C58.8107 1.17956 57.6116 1.08054 56.4104 1.07108C55.8095 1.06598 55.2085 1.08928 54.609 1.13369C54.0102 1.18321 53.4099 1.24728 52.8213 1.36378L52.8039 1.29315V1.29024Z" fill="url(#paint7_radial_1106_500)"/>
<path d="M4.22051 14.6171C4.62816 13.9313 5.07273 13.2701 5.53322 12.6192C5.99155 11.9668 6.47595 11.3333 6.97265 10.7093C7.4679 10.0838 7.98922 9.47875 8.52213 8.8846C8.79003 8.58826 9.06155 8.29555 9.33669 8.00576C9.614 7.71815 9.89638 7.4349 10.1831 7.15603C10.758 6.59974 11.3488 6.05947 11.9636 5.54396C12.5783 5.02917 13.2184 4.54351 13.8772 4.08333C14.5398 3.62825 15.2204 3.19575 15.9336 2.8164C16.6446 2.43413 17.3824 2.09846 18.1419 1.81522C18.9029 1.53708 19.6885 1.30917 20.4879 1.165C21.2836 1.01865 22.0873 0.926905 22.8925 0.887586C23.295 0.868655 23.6976 0.860646 24.1002 0.863559C24.5028 0.867927 24.9039 0.886129 25.305 0.912342C26.1065 0.964767 26.9037 1.05943 27.6944 1.18758C28.4836 1.32228 29.2663 1.48902 30.0411 1.68489C30.8151 1.88148 31.5789 2.11666 32.3341 2.37151C33.0893 2.62781 33.8308 2.91979 34.5628 3.23215C35.2919 3.55107 36.0123 3.88965 36.706 4.28212L36.6727 4.34692C36.3107 4.18964 35.9428 4.04183 35.5743 3.9013C35.2057 3.75932 34.8343 3.62461 34.4614 3.49646C33.7171 3.23507 32.9633 3.00352 32.206 2.78946C31.4486 2.57393 30.684 2.39117 29.9165 2.22661C29.149 2.06278 28.3764 1.92881 27.6003 1.82687C26.8248 1.72275 26.0464 1.64629 25.2674 1.61353C24.4883 1.58076 23.7092 1.58368 22.9337 1.62882C22.1583 1.67833 21.3864 1.76352 20.6254 1.90842C19.8659 2.04531 19.1237 2.25282 18.3961 2.51422C17.6698 2.78072 16.9603 3.09745 16.2731 3.46151C15.5838 3.82194 14.9141 4.22387 14.2624 4.65564C13.613 5.09034 12.9809 5.55488 12.3683 6.04491C11.7521 6.53057 11.1555 7.0439 10.5734 7.57397C9.99341 8.10696 9.42719 8.65524 8.87402 9.21809C8.32156 9.78166 7.78721 10.3642 7.26082 10.9547C6.21384 12.1393 5.21102 13.3706 4.28278 14.6572L4.22196 14.6179L4.22051 14.6171Z" fill="url(#paint8_radial_1106_500)"/>
<g opacity="0.4">
<path d="M4.25093 14.6368C4.63685 13.94 5.05753 13.2628 5.49848 12.5988C5.93798 11.934 6.39558 11.2809 6.86911 10.6387C7.10515 10.3168 7.34844 10.0008 7.59679 9.68845C7.84441 9.37536 8.09566 9.0659 8.3527 8.76009C8.86461 8.14701 9.39679 7.55067 9.95069 6.97472C10.5031 6.39659 11.0752 5.83739 11.6696 5.30003C12.2677 4.76777 12.8838 4.25444 13.5282 3.77533C14.8106 2.81129 16.2058 1.98196 17.7039 1.3747C18.0775 1.22033 18.4605 1.08927 18.8464 0.966946C19.2331 0.846805 19.627 0.749965 20.0245 0.667687C20.813 0.508227 21.6102 0.397553 22.4117 0.334206C24.014 0.207512 25.6272 0.273042 27.2143 0.497305C28.8015 0.722296 30.364 1.10238 31.8816 1.60697C33.4 2.11011 34.8763 2.73265 36.3063 3.44403C37.7363 4.15469 39.1214 4.95344 40.4617 5.81846C41.8019 6.6842 43.0943 7.62203 44.3448 8.61082C46.8442 10.5913 49.1764 12.7808 51.3095 15.1516C51.8424 15.7443 52.363 16.3479 52.8698 16.9639C53.3766 17.5784 53.8683 18.209 54.3338 18.8578L54.6807 19.3463L55.013 19.8451L55.1788 20.0948L55.3374 20.349C55.4424 20.5193 55.5503 20.6868 55.6524 20.8586C56.0614 21.5453 56.4401 22.2501 56.7862 22.9702C57.4748 24.4126 58.0113 25.93 58.348 27.4926C58.5182 28.2732 58.626 29.0675 58.6767 29.8641C58.6999 30.2624 58.7064 30.6621 58.6934 31.0604C58.6789 31.4587 58.6492 31.8577 58.5746 32.2495C58.6398 31.8563 58.6594 31.4573 58.6644 31.0597C58.668 30.6621 58.6514 30.2639 58.6195 29.8678C58.5493 29.0756 58.4233 28.2892 58.2401 27.5166C57.8759 25.9701 57.309 24.4782 56.6052 23.059C56.2497 22.3506 55.8638 21.6589 55.4467 20.9853C55.3424 20.8171 55.2324 20.6526 55.126 20.4858L54.9645 20.2368L54.7965 19.9922L54.4591 19.5036L54.1072 19.0252C53.6344 18.391 53.1421 17.7707 52.6287 17.1663C52.1175 16.5612 51.5926 15.9678 51.0546 15.3853C49.9801 14.221 48.8542 13.1048 47.6899 12.0323C46.5249 10.9605 45.3172 9.93601 44.0682 8.96615C42.8192 7.99628 41.5289 7.08176 40.1967 6.23422C38.8651 5.38595 37.4923 4.60467 36.0775 3.91149C34.6634 3.21759 33.2059 2.61397 31.7115 2.12758C30.2177 1.64265 28.6878 1.26985 27.1361 1.05432C25.5852 0.83734 24.0133 0.777633 22.4566 0.903599C21.6782 0.966218 20.9035 1.07544 20.1389 1.23198C19.7602 1.31208 19.3859 1.41038 19.0144 1.52105C18.6444 1.6361 18.2759 1.75988 17.9153 1.90696C16.4686 2.48218 15.1132 3.28749 13.8403 4.2042C13.2031 4.66219 12.5899 5.15659 11.9933 5.67065C11.3974 6.18616 10.8167 6.72061 10.257 7.27762C9.97603 7.55504 9.70017 7.83828 9.42865 8.12516C9.15568 8.41131 8.88705 8.70111 8.62205 8.99527C8.09059 9.58214 7.58086 10.1887 7.07692 10.801C6.0712 12.0272 5.12848 13.308 4.25165 14.6353L4.25093 14.6368Z" fill="#F2F2F2"/>
</g>
<g opacity="0.7">
<path d="M23.6947 29.7673C23.7389 30.7532 23.8765 31.7318 24.0604 32.6987C24.2472 33.6649 24.4868 34.6202 24.7909 35.5537C24.943 36.0204 25.111 36.4813 25.2942 36.935C25.4752 37.39 25.675 37.8371 25.8915 38.2747C25.9972 38.4946 26.1138 38.7101 26.2275 38.9249C26.3426 39.1368 26.4707 39.3443 26.5989 39.5511C26.8596 39.9632 27.1376 40.3659 27.4229 40.7635C28.572 42.3493 29.834 43.8551 31.1539 45.3033C32.479 46.7472 33.859 48.1401 35.3035 49.4609C36.7458 50.7839 38.2518 52.0341 39.8115 53.2079C41.3725 54.3794 42.9973 55.4636 44.688 56.4255C46.3794 57.3844 48.1338 58.2276 49.9526 58.8873C51.77 59.5462 53.6518 60.0202 55.5611 60.2307C59.3769 60.6515 63.3085 60.0464 66.7789 58.3812C67.6471 57.9669 68.4862 57.49 69.2936 56.9599C70.1002 56.4291 70.8705 55.8415 71.6062 55.2102C73.0767 53.9462 74.3938 52.495 75.5516 50.923C76.7072 49.3488 77.7093 47.6552 78.5506 45.8836C79.3956 44.1128 80.0827 42.2641 80.6178 40.3717C81.1529 38.4793 81.5373 36.541 81.7538 34.5824C81.9696 32.6245 82.0109 30.6432 81.8371 28.6765C82.0427 30.6396 82.0275 32.6244 81.8516 34.5918C81.672 36.56 81.3223 38.5135 80.8205 40.4271C80.3173 42.3406 79.6591 44.214 78.8525 46.0242C78.0416 47.8314 77.0844 49.5774 75.9556 51.2135C74.8304 52.8504 73.5343 54.378 72.0638 55.7294C71.3296 56.4051 70.5491 57.0334 69.7294 57.6079C69.3196 57.8948 68.8997 58.1686 68.4703 58.4264C68.0402 58.6827 67.6007 58.9244 67.1525 59.1501C65.3634 60.0566 63.4302 60.6828 61.452 61.0185C59.4703 61.344 57.4509 61.3978 55.4569 61.1619C53.4643 60.9282 51.5165 60.4229 49.6478 59.7312C48.713 59.3853 47.7964 58.9928 46.9 58.5625C46.0029 58.1322 45.1282 57.6589 44.2709 57.1587C40.844 55.1483 37.7168 52.6771 34.851 49.9524C33.4173 48.5901 32.046 47.1622 30.7477 45.671C30.099 44.9247 29.4662 44.1645 28.8551 43.3869C28.2447 42.6085 27.651 41.8163 27.0963 40.995C26.819 40.5843 26.5497 40.1678 26.2955 39.739C26.1703 39.5234 26.0457 39.3072 25.9328 39.0829C25.822 38.8594 25.7105 38.6373 25.6091 38.4101C25.1921 37.5073 24.8561 36.5702 24.5802 35.6185C24.3058 34.6661 24.0944 33.6963 23.9438 32.7191C23.7983 31.7412 23.6998 30.7546 23.6954 29.7673H23.6947Z" fill="#F2F2F2"/>
</g>
<g opacity="0.7">
<path d="M52.8119 1.32592C53.9877 0.973507 55.2114 0.794389 56.4372 0.696091C57.6652 0.603619 58.9034 0.615269 60.1335 0.729585C61.363 0.851182 62.5874 1.06452 63.7813 1.39873C64.9753 1.73222 66.141 2.17201 67.2539 2.72174C67.8107 2.99624 68.3588 3.28822 68.8866 3.61442C69.0206 3.69306 69.1495 3.77971 69.2798 3.86344C69.4101 3.94791 69.5412 4.03091 69.6679 4.12047L70.0509 4.38478L70.426 4.66074C70.552 4.75103 70.6729 4.8486 70.7952 4.94398C70.9169 5.04009 71.0407 5.1333 71.1587 5.23378L71.5157 5.53158C71.633 5.63279 71.7467 5.73837 71.8625 5.84103L72.0356 5.99612L72.2035 6.15631L72.5388 6.47742C72.7545 6.69949 72.9775 6.91502 73.1846 7.14511C74.0289 8.0509 74.792 9.02877 75.4712 10.0583C76.1525 11.0865 76.7564 12.1641 77.2777 13.2774C76.6579 12.2165 75.9889 11.1884 75.2583 10.2098C74.8948 9.71904 74.5104 9.24575 74.1179 8.78048L73.8153 8.43899L73.664 8.26861L73.5076 8.1026L73.1962 7.76984L72.8769 7.4451C72.6669 7.22593 72.441 7.02279 72.2231 6.81236L71.8842 6.50872L71.7148 6.35728L71.541 6.21092C71.0812 5.81701 70.6034 5.44493 70.1132 5.09106L69.7425 4.82966L69.3645 4.57992C69.24 4.49473 69.1104 4.41755 68.9822 4.33745C68.8533 4.25809 68.7266 4.17726 68.5948 4.103C68.0779 3.79136 67.5442 3.50884 67.0012 3.24672C66.4582 2.98459 65.9035 2.74577 65.338 2.53606C64.7733 2.32491 64.2013 2.13196 63.6213 1.96667C62.4628 1.63173 61.2768 1.38708 60.0763 1.23563C58.8773 1.07617 57.6645 1.01283 56.4495 1.02229C55.8428 1.03321 55.2338 1.05214 54.6271 1.10384C54.3237 1.12714 54.0196 1.15627 53.717 1.19267C53.4143 1.22908 53.1109 1.26985 52.8097 1.32446L52.8119 1.32592Z" fill="#F2F2F2"/>
</g>
<g opacity="0.5">
<path d="M1.16862 24.3456C0.876826 25.8296 0.717536 27.3346 0.636442 28.8418C0.554624 30.349 0.557519 31.8592 0.642958 33.3642C0.732741 34.8685 0.90072 36.3685 1.16645 37.8502C1.42421 39.3334 1.78335 40.7984 2.22936 42.2343C2.45454 42.9522 2.70217 43.6621 2.97224 44.364C3.24376 45.0652 3.5457 45.754 3.86066 46.437C4.18069 47.1171 4.52607 47.7855 4.88954 48.443C5.07852 48.7677 5.26026 49.0969 5.45937 49.4158C5.55785 49.576 5.6527 49.7383 5.75406 49.8963L6.05962 50.3703C6.15954 50.5298 6.26814 50.6827 6.37386 50.8385C6.48102 50.9929 6.58311 51.1509 6.69461 51.3024C6.91545 51.6067 7.13267 51.914 7.36292 52.2111C7.814 52.8132 8.29695 53.3899 8.78858 53.96L9.16364 54.3816C9.22663 54.4515 9.28818 54.5229 9.3519 54.592L9.54522 54.7974L9.93259 55.2088L10.3308 55.6092C10.8616 56.1437 11.4155 56.6541 11.9751 57.1601L11.5414 56.7975C11.3974 56.6759 11.2504 56.558 11.1106 56.4313C10.8297 56.1793 10.5444 55.9325 10.2736 55.6697L9.86235 55.2801L9.46123 54.8796L9.26066 54.6794C9.19405 54.6124 9.13033 54.5425 9.06517 54.4748L8.6749 54.0634C8.16662 53.5042 7.66847 52.9334 7.20145 52.3385C6.72647 51.7487 6.2848 51.1327 5.85688 50.508C5.42896 49.8825 5.03146 49.2359 4.65061 48.5806C4.27699 47.9202 3.9222 47.2496 3.59276 46.5659C3.26621 45.8807 2.96428 45.1839 2.68624 44.4776C2.4111 43.7699 2.15841 43.0534 1.9296 42.3297C1.48214 40.8785 1.12446 39.3989 0.87176 37.9019C0.621961 36.4042 0.4576 34.8926 0.39678 33.3766C0.331615 31.8606 0.362748 30.3418 0.482218 28.8309C0.546659 28.0758 0.631372 27.323 0.741428 26.5737C0.852209 25.8252 0.985436 25.0789 1.17007 24.3456H1.16862Z" fill="#F2F2F2"/>
</g>
<path d="M33.2197 22.3455C33.8351 22.3455 34.4324 22.4212 35.0037 22.5632C35.4693 22.1212 36.0138 21.6865 36.6473 21.2839C35.8067 20.5346 34.6584 19.8822 33.0864 19.7432C28.3953 19.3281 24.3268 24.7636 24.3268 24.7636C23.8272 26.083 23.5557 27.9084 23.5557 27.9084C23.5557 27.9084 24.5925 28.5943 25.8089 29.3938C26.024 25.4648 29.2598 22.3455 33.2204 22.3455H33.2197Z" fill="url(#paint9_radial_1106_500)"/>
<g opacity="0.4">
<path d="M20.9252 19.2058C21.217 18.8279 21.5602 18.4886 21.9251 18.1777C22.2893 17.8653 22.6774 17.5806 23.0807 17.3185C23.484 17.0578 23.9018 16.8176 24.3304 16.5991C24.7612 16.3858 25.1993 16.1848 25.6482 16.0086C25.7597 15.962 25.8741 15.9241 25.9871 15.8826C26.1007 15.8426 26.2137 15.7996 26.3281 15.7625C26.5584 15.6904 26.7857 15.611 27.0188 15.5492L27.3671 15.4509L27.719 15.3649C27.9529 15.3038 28.1904 15.2601 28.4271 15.212C29.3757 15.0278 30.343 14.9404 31.3103 14.9332C31.5522 14.9332 31.794 14.931 32.0358 14.9455L32.3986 14.9608C32.5195 14.9667 32.6397 14.979 32.7606 14.9892L33.1219 15.0205C33.2421 15.0336 33.3616 15.0504 33.4818 15.0657L33.8416 15.1123C33.9611 15.1305 34.0798 15.1523 34.1993 15.1727C35.1529 15.3365 36.0913 15.5819 37.0057 15.8936C37.9217 16.2023 38.8094 16.5875 39.6695 17.0207C40.5312 17.4525 41.3631 17.9411 42.1646 18.4733C42.565 18.7405 42.9582 19.018 43.3441 19.3056C43.7293 19.5939 44.1058 19.8939 44.4751 20.2033C44.8451 20.5121 45.2028 20.8346 45.5532 21.1645C45.7292 21.329 45.9 21.4987 46.0709 21.6683C46.2389 21.8409 46.4076 22.0135 46.5698 22.1911C47.2258 22.8974 47.834 23.6496 48.3857 24.4425C48.9324 25.2383 49.4262 26.075 49.8208 26.9596C50.0192 27.4009 50.1988 27.8516 50.3486 28.3125C50.4985 28.7734 50.6223 29.243 50.7172 29.7178C50.9098 30.668 50.9626 31.6466 50.8815 32.6099C50.8048 33.5747 50.5651 34.5205 50.214 35.4139C50.0344 35.8595 49.8259 36.292 49.592 36.7092C49.3552 37.1257 49.0924 37.5247 48.8144 37.9114C49.0728 37.5102 49.3147 37.0995 49.5283 36.675C49.7383 36.2483 49.9265 35.8115 50.0858 35.3651C50.2415 34.9173 50.3653 34.4593 50.458 33.9962C50.479 33.8797 50.5043 33.7647 50.5217 33.6475L50.5731 33.2972L50.61 32.9456C50.6223 32.8283 50.6259 32.7104 50.6339 32.5924C50.6817 31.651 50.5919 30.7058 50.3812 29.7899C50.277 29.3319 50.1445 28.8797 49.9873 28.437C49.8295 27.9943 49.6441 27.5618 49.4399 27.1387C49.0309 26.2927 48.5385 25.4881 47.9904 24.7236C47.4387 23.9619 46.8312 23.2404 46.1774 22.5639C44.8726 21.2082 43.4057 20.0089 41.8287 18.9874C41.4348 18.7311 41.0322 18.4893 40.6253 18.2549C40.2191 18.0197 39.8049 17.7983 39.3857 17.5894C38.5465 17.1707 37.6842 16.8008 36.7979 16.5066C35.0283 15.9089 33.1711 15.587 31.3082 15.5674C30.377 15.5594 29.443 15.6212 28.5213 15.7698C27.5995 15.9161 26.6851 16.1287 25.7981 16.4309C25.3521 16.5758 24.9147 16.7462 24.4825 16.929C24.0538 17.1197 23.6288 17.3229 23.2147 17.5471C22.3943 18.0066 21.5964 18.5287 20.9245 19.2065L20.9252 19.2058Z" fill="#F2F2F2"/>
</g>
<defs>
<linearGradient id="paint0_linear_1106_500" x1="64.3591" y1="2.64238" x2="42.5271" y2="58.7051" gradientUnits="userSpaceOnUse">
<stop offset="0.04" stop-color="#28C8F8"/>
<stop offset="0.1" stop-color="#3498F9"/>
<stop offset="0.16" stop-color="#3F70FA"/>
<stop offset="0.23" stop-color="#4850FA"/>
<stop offset="0.29" stop-color="#4E3AFB"/>
<stop offset="0.34" stop-color="#512CFB"/>
<stop offset="0.39" stop-color="#5328FC"/>
<stop offset="0.81" stop-color="#F91CC1"/>
</linearGradient>
<radialGradient id="paint1_radial_1106_500" cx="0" cy="0" r="1" gradientUnits="userSpaceOnUse" gradientTransform="translate(27.191 13.1682) scale(54.3497 48.9687)">
<stop offset="0.12" stop-color="#0121A8"/>
<stop offset="0.26" stop-color="#003FB3" stop-opacity="0.86"/>
<stop offset="0.57" stop-color="#008DD1" stop-opacity="0.48"/>
<stop offset="0.92" stop-color="#00F2F9" stop-opacity="0"/>
</radialGradient>
<linearGradient id="paint2_linear_1106_500" x1="28.0104" y1="24.4904" x2="59.2623" y2="57.0258" gradientUnits="userSpaceOnUse">
<stop stop-color="#FF8256"/>
<stop offset="0.15" stop-color="#F15A24"/>
<stop offset="0.43" stop-color="#F25B29" stop-opacity="0.96"/>
<stop offset="0.57" stop-color="#F76861" stop-opacity="0.54"/>
<stop offset="0.76" stop-color="#FF7BAC" stop-opacity="0"/>
</linearGradient>
<linearGradient id="paint3_linear_1106_500" x1="39.461" y1="58.3441" x2="16.287" y2="1.31353" gradientUnits="userSpaceOnUse">
<stop offset="0.03" stop-color="#0ED7DF"/>
<stop offset="0.28" stop-color="#06B7B1"/>
<stop offset="0.4" stop-color="#5B948F"/>
<stop offset="0.51" stop-color="#A47671"/>
<stop offset="0.59" stop-color="#D2645F"/>
<stop offset="0.63" stop-color="#E45D59"/>
<stop offset="0.75" stop-color="#F17247"/>
<stop offset="0.81" stop-color="#F9803D"/>
<stop offset="0.84" stop-color="#FA884E"/>
<stop offset="0.89" stop-color="#FC986C"/>
<stop offset="0.94" stop-color="#FEA17E"/>
<stop offset="0.98" stop-color="#FFA585"/>
</linearGradient>
<radialGradient id="paint4_radial_1106_500" cx="0" cy="0" r="1" gradientUnits="userSpaceOnUse" gradientTransform="translate(41.9143 18.6626) scale(35.8991 30.5017)">
<stop stop-color="#E91785"/>
<stop offset="0.19" stop-color="#E91885" stop-opacity="0.99"/>
<stop offset="0.33" stop-color="#EA1C87" stop-opacity="0.95"/>
<stop offset="0.45" stop-color="#EB2289" stop-opacity="0.88"/>
<stop offset="0.56" stop-color="#ED2C8D" stop-opacity="0.78"/>
<stop offset="0.67" stop-color="#F03892" stop-opacity="0.66"/>
<stop offset="0.76" stop-color="#F34798" stop-opacity="0.51"/>
<stop offset="0.86" stop-color="#F7599F" stop-opacity="0.33"/>
<stop offset="0.95" stop-color="#FC6EA7" stop-opacity="0.13"/>
<stop offset="1" stop-color="#FF7BAC" stop-opacity="0"/>
</radialGradient>
<radialGradient id="paint5_radial_1106_500" cx="0" cy="0" r="1" gradientUnits="userSpaceOnUse" gradientTransform="translate(56.1368 34.5586) scale(40.8156 34.9361)">
<stop stop-color="#3D2AF8"/>
<stop offset="0.2" stop-color="#3D2AF8" stop-opacity="0.78"/>
<stop offset="0.59" stop-color="#3D2AF8" stop-opacity="0.37"/>
<stop offset="0.87" stop-color="#3D2AF8" stop-opacity="0.1"/>
<stop offset="1" stop-color="#3D2AF8" stop-opacity="0"/>
</radialGradient>
<radialGradient id="paint6_radial_1106_500" cx="0" cy="0" r="1" gradientUnits="userSpaceOnUse" gradientTransform="translate(39.1168 46.8455) rotate(137.86) scale(6.95225 16.5625)">
<stop stop-color="#052DAA"/>
<stop offset="0.43" stop-color="#053CB4" stop-opacity="0.53"/>
<stop offset="0.82" stop-color="#0649BC" stop-opacity="0.15"/>
<stop offset="1" stop-color="#074EC0" stop-opacity="0"/>
</radialGradient>
<radialGradient id="paint7_radial_1106_500" cx="0" cy="0" r="1" gradientUnits="userSpaceOnUse" gradientTransform="translate(65.1092 7.07448) scale(9.7943 9.84937)">
<stop offset="0.12" stop-color="#0121A8"/>
<stop offset="0.26" stop-color="#003FB3" stop-opacity="0.86"/>
<stop offset="0.57" stop-color="#008DD1" stop-opacity="0.48"/>
<stop offset="0.92" stop-color="#00F2F9" stop-opacity="0"/>
</radialGradient>
<radialGradient id="paint8_radial_1106_500" cx="0" cy="0" r="1" gradientUnits="userSpaceOnUse" gradientTransform="translate(20.3974 7.84484) scale(12.6377 12.7087)">
<stop offset="0.12" stop-color="#E3262F"/>
<stop offset="0.23" stop-color="#E42C2F" stop-opacity="0.89"/>
<stop offset="0.46" stop-color="#E93E30" stop-opacity="0.62"/>
<stop offset="0.8" stop-color="#F15A32" stop-opacity="0.18"/>
<stop offset="0.92" stop-color="#F56633" stop-opacity="0"/>
</radialGradient>
<radialGradient id="paint9_radial_1106_500" cx="0" cy="0" r="1" gradientUnits="userSpaceOnUse" gradientTransform="translate(32.2972 18.6146) scale(11.1454 11.2081)">
<stop offset="0.28" stop-color="#F2A183"/>
<stop offset="0.33" stop-color="#F29F80" stop-opacity="0.97"/>
<stop offset="0.39" stop-color="#F29B7B" stop-opacity="0.9"/>
<stop offset="0.46" stop-color="#F29471" stop-opacity="0.78"/>
<stop offset="0.53" stop-color="#F38A64" stop-opacity="0.61"/>
<stop offset="0.62" stop-color="#F37D53" stop-opacity="0.4"/>
<stop offset="0.7" stop-color="#F46E3E" stop-opacity="0.14"/>
<stop offset="0.75" stop-color="#F56633" stop-opacity="0"/>
</radialGradient>
</defs>
</svg>
