<?xml version="1.0" standalone="no"?>
<!DOCTYPE svg PUBLIC "-//W3C//DTD SVG 20010904//EN"
 "http://www.w3.org/TR/2001/REC-SVG-20010904/DTD/svg10.dtd">
<svg version="1.0" xmlns="http://www.w3.org/2000/svg"
 width="1136.000000pt" height="1136.000000pt" viewBox="0 0 1136.000000 1136.000000"
 preserveAspectRatio="xMidYMid meet">
<metadata>
Created by potrace 1.14, written by Peter Selinger 2001-2017
</metadata>
<g transform="translate(0.000000,1136.000000) scale(0.100000,-0.100000)"
fill="#000000" stroke="none">
<path d="M0 7721 c0 -2430 0 -2439 20 -2444 11 -3 22 -1 25 4 3 4 16 4 29 -1
12 -4 29 -4 36 0 8 5 18 6 23 3 12 -7 147 -10 147 -3 0 7 87 3 99 -5 5 -3 12
-1 16 4 3 7 15 7 30 1 15 -6 27 -6 30 0 3 6 15 6 30 0 15 -6 27 -6 30 0 3 6
15 6 30 0 15 -6 27 -6 30 0 4 6 13 7 24 1 9 -5 23 -6 31 -1 7 4 24 4 36 0 14
-6 26 -5 29 0 3 6 15 6 30 0 15 -6 27 -6 30 0 3 6 15 6 30 0 15 -6 27 -6 30 0
4 6 13 7 24 1 9 -5 23 -6 31 -1 7 4 19 6 26 3 20 -7 184 -9 184 -1 0 3 12 3
28 -1 l27 -7 0 -2035 1 -2034 4542 -3 c2498 -1 4542 1 4543 5 0 5 1 919 2
2032 2 2115 3 2075 -37 2042 -7 -6 -17 -6 -26 -1 -8 5 -21 5 -31 -1 -11 -6
-20 -5 -24 1 -4 6 -15 6 -30 0 -14 -5 -25 -6 -25 -2 0 4 -16 7 -35 7 -19 0
-35 -4 -35 -8 0 -5 -5 -5 -11 -1 -16 10 -99 11 -99 1 0 -4 -8 -4 -17 2 -10 5
-26 5 -39 1 -12 -5 -24 -7 -27 -4 -8 9 -77 10 -77 2 0 -5 -8 -5 -17 1 -10 5
-26 5 -41 0 -13 -5 -21 -5 -18 0 4 5 -9 6 -28 1 -19 -4 -40 -4 -47 1 -7 4 -21
3 -30 -2 -11 -6 -20 -5 -24 1 -4 6 -15 6 -30 0 -14 -5 -25 -6 -25 -2 0 4 -11
7 -25 7 -14 0 -25 -3 -25 -7 0 -4 -11 -3 -25 2 -15 6 -26 6 -30 0 -4 -6 -13
-7 -23 -1 -11 6 -24 6 -34 0 -10 -6 -19 -6 -23 0 -4 7 -15 7 -30 1 -14 -5 -25
-6 -25 -2 0 8 -85 6 -107 -3 -7 -2 -13 -1 -13 3 0 8 -146 6 -167 -2 -7 -3 -13
-1 -13 4 0 5 -13 5 -30 0 -16 -5 -30 -6 -30 -2 0 8 -103 8 -116 -1 -6 -3 -16
-2 -24 3 -7 4 -24 4 -37 -1 -12 -5 -23 -5 -23 -1 0 4 -11 7 -25 7 -14 0 -25
-3 -25 -7 0 -4 -11 -3 -25 2 -15 6 -26 6 -30 -1 -4 -6 -13 -6 -23 0 -9 5 -26
5 -39 0 -13 -5 -23 -5 -23 -1 0 4 -13 7 -30 7 -16 0 -30 -4 -30 -8 0 -4 -7 -4
-15 1 -9 4 -38 5 -65 2 -28 -4 -50 -3 -50 1 0 4 -14 4 -30 -1 -16 -5 -30 -6
-30 -2 0 8 -103 8 -116 -1 -6 -3 -16 -2 -24 3 -7 4 -24 4 -37 -1 -12 -5 -23
-5 -23 -1 0 4 -11 7 -25 7 -14 0 -25 -3 -25 -7 0 -4 -11 -3 -25 2 -15 6 -26 6
-30 -1 -4 -6 -13 -6 -23 0 -9 5 -26 5 -39 0 -13 -5 -23 -5 -23 -1 0 4 -13 7
-30 7 -16 0 -30 -4 -30 -8 0 -4 -7 -4 -16 1 -9 5 -33 6 -54 2 -21 -4 -44 -4
-51 1 -7 4 -21 3 -30 -2 -11 -6 -20 -5 -24 1 -4 6 -15 6 -30 0 -14 -5 -25 -6
-25 -2 0 4 -11 7 -25 7 -14 0 -25 -3 -25 -7 0 -4 -11 -3 -25 2 -15 6 -26 6
-30 0 -4 -6 -13 -7 -23 -1 -11 6 -24 6 -34 0 -10 -6 -19 -6 -23 0 -4 7 -15 7
-30 1 -14 -5 -25 -6 -25 -2 0 8 -85 6 -107 -3 -7 -2 -13 -1 -13 3 0 4 -41 7
-90 7 -50 0 -90 -4 -90 -8 0 -4 -8 -4 -17 2 -10 5 -26 5 -39 1 -12 -5 -24 -7
-27 -4 -8 9 -77 10 -77 2 0 -5 -8 -5 -17 1 -10 5 -26 5 -41 0 -13 -5 -21 -5
-18 0 4 5 -9 6 -28 1 -19 -4 -40 -4 -47 1 -7 4 -20 4 -29 -1 -9 -5 -22 -5 -30
0 -8 5 -21 5 -31 -1 -11 -6 -20 -5 -24 1 -4 6 -15 6 -30 0 -14 -5 -25 -6 -25
-2 0 4 -25 7 -55 7 -30 0 -55 -4 -55 -8 0 -4 -8 -3 -18 2 -11 6 -24 6 -34 0
-10 -6 -19 -6 -23 0 -4 7 -15 7 -30 1 -14 -5 -25 -6 -25 -2 0 4 -25 7 -55 7
-30 0 -55 -4 -55 -8 0 -5 -5 -5 -11 -1 -16 9 -119 11 -119 1 0 -4 -8 -4 -17 2
-10 5 -26 5 -39 1 -12 -5 -24 -7 -27 -4 -8 9 -77 10 -77 2 0 -5 -8 -5 -17 1
-10 5 -26 5 -41 0 -13 -5 -21 -5 -18 0 4 5 -9 6 -28 1 -19 -4 -40 -4 -47 1 -7
4 -21 3 -30 -2 -11 -6 -20 -5 -24 1 -4 6 -15 6 -30 0 -14 -5 -25 -6 -25 -2 0
4 -11 7 -25 7 -14 0 -25 -3 -25 -7 0 -4 -11 -3 -25 2 -15 6 -26 6 -30 0 -4 -6
-13 -7 -23 -1 -11 6 -24 6 -34 0 -10 -6 -19 -6 -23 0 -4 7 -15 7 -30 1 -14 -5
-25 -6 -25 -2 0 8 -85 6 -107 -3 -7 -2 -13 -1 -13 3 0 4 -41 7 -90 7 -50 0
-90 -4 -90 -8 0 -4 -8 -4 -17 2 -10 5 -26 5 -39 1 -12 -5 -24 -7 -27 -4 -8 9
-77 10 -77 2 0 -5 -8 -5 -17 1 -10 5 -26 5 -41 0 -13 -5 -21 -5 -18 0 4 5 -9
6 -28 1 -19 -4 -40 -4 -47 1 -7 4 -20 4 -29 -1 -9 -5 -22 -5 -30 0 -8 5 -21 5
-31 -1 -11 -6 -20 -5 -24 1 -4 6 -15 6 -30 0 -14 -5 -25 -6 -25 -2 0 4 -25 7
-55 7 -30 0 -55 -4 -55 -8 0 -4 -8 -3 -18 2 -11 6 -24 6 -34 0 -10 -6 -19 -6
-23 0 -4 7 -15 7 -30 1 -14 -5 -25 -6 -25 -2 0 4 -25 7 -55 7 -30 0 -55 -4
-55 -8 0 -5 -5 -5 -11 -1 -16 9 -119 11 -119 1 0 -4 -8 -4 -17 2 -10 5 -26 5
-39 1 -12 -5 -24 -7 -27 -4 -8 9 -77 10 -77 2 0 -5 -8 -5 -17 1 -10 5 -26 5
-39 1 -12 -5 -24 -7 -27 -4 -8 9 -77 10 -77 2 0 -5 -8 -5 -17 1 -10 5 -26 5
-39 1 -12 -5 -24 -7 -27 -4 -8 9 -77 10 -77 2 0 -5 -8 -5 -17 1 -10 5 -26 5
-41 0 -13 -5 -21 -5 -18 0 4 5 -9 6 -28 1 -19 -4 -40 -4 -47 1 -7 4 -20 4 -29
-1 -9 -5 -22 -5 -30 0 -8 5 -21 5 -31 -1 -11 -6 -20 -5 -24 1 -4 6 -15 6 -30
0 -14 -5 -25 -6 -25 -2 0 4 -25 7 -55 7 -30 0 -55 -4 -55 -8 0 -4 -8 -3 -18 2
-11 6 -24 6 -34 0 -10 -6 -19 -6 -23 0 -4 7 -15 7 -30 1 -14 -5 -25 -6 -25 -2
0 4 -25 7 -55 7 -30 0 -55 -4 -55 -8 0 -5 -5 -5 -11 -1 -16 9 -119 11 -119 1
0 -4 -8 -4 -17 2 -10 5 -26 5 -39 1 -12 -5 -24 -7 -27 -4 -8 9 -77 10 -77 2 0
-5 -8 -5 -17 1 -10 5 -26 5 -39 1 -12 -5 -24 -7 -27 -4 -8 9 -77 10 -77 2 0
-5 -8 -5 -17 1 -10 5 -26 5 -39 1 -12 -5 -24 -7 -27 -4 -8 9 -77 10 -77 2 0
-5 -8 -5 -17 1 -10 5 -26 5 -41 0 -13 -5 -21 -5 -18 0 4 5 -9 6 -28 1 -19 -4
-40 -4 -47 1 -7 4 -20 4 -29 -1 -9 -5 -22 -5 -30 0 -8 5 -21 5 -31 -1 -11 -6
-20 -5 -24 1 -4 6 -15 6 -30 0 -14 -5 -25 -6 -25 -2 0 4 -25 7 -55 7 -30 0
-55 -4 -55 -8 0 -4 -8 -3 -18 2 -11 6 -24 6 -34 0 -10 -6 -19 -6 -23 0 -4 7
-15 7 -30 1 -14 -5 -25 -6 -25 -2 0 4 -25 7 -55 7 -30 0 -55 -4 -55 -8 0 -5
-5 -5 -11 -1 -16 9 -119 11 -119 1 0 -4 -8 -4 -17 2 -10 5 -26 5 -39 1 -12 -5
-24 -7 -27 -4 -8 9 -77 10 -77 2 0 -5 -8 -5 -17 1 -10 5 -26 5 -39 1 -12 -5
-24 -6 -27 -3 -8 8 -131 8 -144 0 -6 -4 -15 -2 -19 5 -12 20 -11 3658 1 3659
6 1 2050 2 4542 3 3016 1 4533 -2 4534 -9 0 -5 1 -827 2 -1825 1 -998 4 -1816
7 -1817 3 -1 17 -6 32 -12 17 -6 30 -7 33 -1 3 6 15 6 30 0 15 -6 27 -6 30 0
3 6 15 6 30 0 15 -6 27 -6 30 0 4 6 13 7 24 1 10 -6 23 -6 31 -1 8 5 18 6 22
3 13 -7 107 -8 114 0 3 3 16 2 28 -3 13 -4 29 -4 36 0 8 5 18 6 23 3 12 -7
147 -10 147 -3 0 7 89 4 96 -3 4 -3 17 -2 30 3 14 6 26 6 29 0 3 -6 15 -6 30
0 14 5 27 5 30 0 3 -5 18 -5 35 0 17 5 30 6 30 2 0 -4 14 -7 30 -7 17 0 30 4
30 8 0 5 4 6 10 2 8 -5 79 -8 143 -6 l27 1 0 2440 0 2440 -5680 0 -5680 0 0
-2439z m2634 -3250 c13 -1 16 -5 9 -13 -8 -11 -10 -181 -3 -198 1 -3 1 -9 0
-15 -8 -26 -4 -235 4 -235 5 0 2 -8 -5 -17 -12 -15 -12 -16 1 -8 12 7 13 6 4
-6 -11 -15 -12 -184 -1 -195 3 -4 3 -14 -1 -23 -10 -21 -8 -1158 2 -1168 4 -4
332 -8 729 -8 l722 0 1 -282 c1 -205 -1 -283 -10 -284 -65 -4 -407 0 -415 5
-6 4 -11 4 -11 -1 0 -4 -70 -8 -155 -8 -85 0 -155 4 -155 8 0 5 -5 5 -12 1
-14 -9 -534 -8 -548 1 -5 3 -10 3 -10 -2 0 -9 -203 -8 -226 1 -8 3 -14 2 -14
-2 0 -7 -594 -7 -614 1 -8 3 -11 315 -10 1213 1 665 2 1214 3 1221 1 6 11 13
24 15 17 2 600 1 691 -1z m3731 -287 l0 -288 -442 0 -443 0 -1 -40 c-1 -23 0
-45 1 -51 1 -5 2 -21 1 -35 0 -14 -1 -34 -1 -45 0 -11 0 -49 0 -84 0 -35 -2
-66 -4 -69 -3 -2 0 -15 5 -29 6 -17 6 -30 -1 -38 -5 -6 -7 -14 -4 -18 3 -3 5
-34 4 -69 -1 -34 -1 -70 -1 -78 0 -8 0 -44 0 -80 -1 -81 -1 -65 2 -198 1 -62
0 -115 -3 -117 -3 -3 -2 -22 1 -43 3 -20 4 -59 1 -87 -3 -27 -2 -60 2 -72 4
-12 3 -25 -2 -28 -5 -3 -5 -18 -1 -33 5 -15 6 -36 4 -47 -2 -11 -4 -27 -4 -35
2 -86 0 -144 -3 -148 -3 -2 -1 -15 4 -28 5 -13 5 -26 1 -29 -5 -3 -5 -20 -1
-39 4 -19 6 -37 4 -39 -4 -3 -5 -93 -3 -147 1 -8 0 -46 -1 -85 l-2 -70 -104 0
c-57 0 -104 4 -104 8 0 5 -5 5 -12 1 -14 -9 -213 -8 -227 1 -6 3 -11 3 -11 -2
0 -9 -203 -8 -226 1 -8 3 -14 0 -14 -6 0 -9 -3 -9 -11 -1 -7 7 -10 53 -9 119
0 60 1 114 1 119 0 13 -1 94 -1 118 0 9 0 23 -1 30 -1 6 -1 35 0 62 1 28 1 69
1 93 0 23 0 48 1 55 0 6 -1 137 -1 289 -1 152 1 282 5 288 3 5 1 10 -5 10 -6
0 -9 4 -6 9 6 9 7 53 5 198 -1 50 2 96 5 102 4 6 2 11 -4 11 -6 0 -9 4 -6 8 3
5 5 28 6 53 0 24 1 73 1 109 1 36 1 72 0 80 -1 8 -1 40 -1 71 l0 55 -428 -1
c-235 0 -435 1 -444 4 -17 3 -18 25 -18 287 l0 283 28 3 c15 2 576 2 1247 2
l1220 -2 0 -288z m2375 282 c41 -3 89 -8 105 -11 17 -3 39 -6 50 -8 84 -15
218 -74 288 -128 50 -38 110 -109 140 -164 12 -22 26 -43 30 -46 5 -3 8 -8 7
-10 -1 -2 4 -17 10 -34 37 -97 69 -314 51 -343 -4 -6 -131 -9 -341 -8 l-334 1
-8 42 c-11 68 -66 124 -138 140 -29 7 -926 6 -980 -1 -78 -10 -148 -51 -182
-106 -46 -77 -53 -143 -53 -535 0 -352 5 -427 36 -522 21 -66 97 -121 191
-139 62 -11 920 -7 973 6 89 20 158 73 171 131 2 10 6 29 9 42 9 40 15 187 7
188 -45 5 -265 2 -269 -3 -2 -5 -9 -6 -14 -2 -18 11 -169 10 -169 -1 0 -7 -3
-7 -8 0 -4 6 -62 10 -144 10 -76 -1 -138 1 -139 4 -1 9 -1 361 0 408 l1 42
278 0 c152 -1 282 0 287 1 6 1 15 2 20 1 6 -1 195 -3 420 -4 l410 -2 -3 -150
c-1 -82 -2 -154 -2 -160 -1 -5 0 -35 0 -65 0 -80 -14 -339 -26 -444 -14 -140
-94 -311 -183 -394 -75 -70 -183 -130 -276 -153 -22 -5 -49 -12 -60 -15 -11
-2 -38 -7 -60 -11 -60 -9 -1482 -8 -1545 1 -71 10 -172 36 -186 47 -6 5 -14 6
-17 2 -4 -3 -16 2 -27 12 -11 10 -20 15 -20 12 0 -8 -104 54 -108 65 -2 4 -8
8 -13 8 -11 0 -92 83 -125 127 -27 37 -81 161 -87 200 -3 18 -8 36 -11 41 -5
8 -8 38 -21 207 -16 215 -21 555 -11 775 16 333 30 421 82 540 1 3 5 15 9 28
4 12 11 22 15 22 4 0 10 10 14 23 3 12 25 45 50 72 25 28 45 54 46 58 0 5 5 5
10 2 6 -3 10 0 10 7 0 22 147 105 240 137 76 25 146 41 205 46 11 1 22 3 25 4
3 2 61 5 130 8 69 3 126 6 127 7 5 5 1039 -3 1113 -8z"/>
</g>
</svg>
