<svg width="20" height="20" viewBox="0 0 20 20" fill="none" xmlns="http://www.w3.org/2000/svg">
<path d="M18.5439 9.63717C17.7927 6.36867 16.6621 4.62415 14.985 4.14763C14.6325 4.04812 14.2668 3.9984 13.8995 4.00004C13.4139 4.00004 12.991 4.11389 12.5436 4.23455C12.0046 4.3801 11.3922 4.54541 10.4993 4.54541C9.60636 4.54541 8.99362 4.38044 8.45349 4.23489C8.00579 4.11389 7.58325 4.00004 7.09907 4.00004C6.71918 3.99877 6.34095 4.04833 5.97524 4.14729C4.30702 4.62177 3.17716 6.3656 2.41495 9.63513C1.59536 13.1535 1.99878 15.3749 3.54622 15.8902C3.75834 15.9622 3.98152 15.9993 4.20643 16C5.26651 16 6.11656 15.1502 6.69743 14.4545C7.35374 13.6672 8.12197 13.2677 10.4993 13.2677C12.6226 13.2677 13.5014 13.5448 14.2604 14.4545C14.7375 15.0265 15.1884 15.4267 15.6382 15.6786C16.2364 16.0133 16.8343 16.0876 17.4148 15.8957C18.3293 15.5954 18.8535 14.8015 18.9732 13.5356C19.0642 12.5648 18.924 11.2897 18.5439 9.63717ZM8.79917 9.45379H7.66577V10.5445C7.66577 10.6892 7.60607 10.8279 7.49979 10.9302C7.39351 11.0325 7.24937 11.0899 7.09907 11.0899C6.94878 11.0899 6.80463 11.0325 6.69836 10.9302C6.59208 10.8279 6.53238 10.6892 6.53238 10.5445V9.45379H5.39898C5.24868 9.45379 5.10454 9.39633 4.99826 9.29405C4.89198 9.19178 4.83228 9.05306 4.83228 8.90842C4.83228 8.76377 4.89198 8.62506 4.99826 8.52278C5.10454 8.4205 5.24868 8.36304 5.39898 8.36304H6.53238V7.27229C6.53238 7.12765 6.59208 6.98893 6.69836 6.88665C6.80463 6.78437 6.94878 6.72692 7.09907 6.72692C7.24937 6.72692 7.39351 6.78437 7.49979 6.88665C7.60607 6.98893 7.66577 7.12765 7.66577 7.27229V8.36304H8.79917C8.94947 8.36304 9.09361 8.4205 9.19989 8.52278C9.30617 8.62506 9.36587 8.76377 9.36587 8.90842C9.36587 9.05306 9.30617 9.19178 9.19989 9.29405C9.09361 9.39633 8.94947 9.45379 8.79917 9.45379ZM11.7743 9.59014C11.6342 9.59014 11.4973 9.55015 11.3808 9.47525C11.2643 9.40034 11.1735 9.29387 11.1199 9.1693C11.0663 9.04473 11.0522 8.90766 11.0796 8.77542C11.1069 8.64318 11.1744 8.52171 11.2734 8.42637C11.3725 8.33103 11.4987 8.2661 11.6361 8.2398C11.7736 8.21349 11.916 8.22699 12.0454 8.27859C12.1749 8.33019 12.2855 8.41757 12.3633 8.52967C12.4412 8.64178 12.4827 8.77359 12.4827 8.90842C12.4827 9.08922 12.4081 9.26262 12.2752 9.39046C12.1424 9.51831 11.9622 9.59014 11.7743 9.59014ZM13.3328 11.0899C13.1926 11.0899 13.0556 11.0499 12.939 10.9749C12.8225 10.8999 12.7317 10.7934 12.6781 10.6687C12.6246 10.544 12.6107 10.4069 12.6381 10.2746C12.6656 10.1423 12.7333 10.0208 12.8325 9.92555C12.9317 9.83028 13.0581 9.76548 13.1957 9.73937C13.3332 9.71326 13.4757 9.727 13.6051 9.77886C13.7345 9.83072 13.845 9.91837 13.9226 10.0307C14.0002 10.143 14.0415 10.275 14.0411 10.4099C14.0407 10.5904 13.9658 10.7634 13.833 10.8908C13.7002 11.0183 13.5203 11.0899 13.3328 11.0899ZM13.3328 8.09035C13.1927 8.09035 13.0557 8.05037 12.9392 7.97546C12.8227 7.90056 12.7319 7.79409 12.6783 7.66952C12.6247 7.54495 12.6107 7.40788 12.638 7.27564C12.6653 7.1434 12.7328 7.02193 12.8319 6.92659C12.9309 6.83125 13.0572 6.76632 13.1946 6.74001C13.332 6.71371 13.4744 6.72721 13.6038 6.77881C13.7333 6.83041 13.8439 6.91778 13.9218 7.02989C13.9996 7.142 14.0411 7.2738 14.0411 7.40863C14.0411 7.58944 13.9665 7.76284 13.8337 7.89068C13.7008 8.01853 13.5206 8.09035 13.3328 8.09035ZM14.8912 9.59014C14.7511 9.59014 14.6141 9.55015 14.4976 9.47525C14.3811 9.40034 14.2904 9.29387 14.2367 9.1693C14.1831 9.04473 14.1691 8.90766 14.1964 8.77542C14.2238 8.64318 14.2912 8.52171 14.3903 8.42637C14.4894 8.33103 14.6156 8.2661 14.753 8.2398C14.8904 8.21349 15.0328 8.22699 15.1623 8.27859C15.2917 8.33019 15.4023 8.41757 15.4802 8.52967C15.558 8.64178 15.5996 8.77359 15.5996 8.90842C15.5996 9.08922 15.5249 9.26262 15.3921 9.39046C15.2592 9.51831 15.0791 9.59014 14.8912 9.59014Z" fill="#8576FD"/>
</svg>
