<svg width="18" height="18" viewBox="0 0 18 18" fill="none" xmlns="http://www.w3.org/2000/svg">
<path fill-rule="evenodd" clip-rule="evenodd" d="M6.99333 1.66665C6.86227 1.78524 6.72454 1.89626 6.58083 1.99915C6.33249 2.16582 6.05333 2.28082 5.76 2.33915C5.6325 2.36415 5.49916 2.37499 5.23333 2.39582C4.56583 2.44915 4.23166 2.47582 3.95333 2.57415C3.63508 2.68652 3.34602 2.86871 3.10737 3.10736C2.86872 3.34601 2.68653 3.63507 2.57416 3.95332C2.47583 4.23165 2.44916 4.56582 2.39583 5.23332C2.38674 5.40979 2.36782 5.58562 2.33916 5.75999C2.28083 6.05332 2.16583 6.33249 1.99916 6.58082C1.92666 6.68915 1.84 6.79082 1.66666 6.99332C1.2325 7.50332 1.015 7.75832 0.887495 8.02499C0.593328 8.64165 0.593328 9.35832 0.887495 9.97499C1.015 10.2417 1.2325 10.4967 1.66666 11.0067C1.84 11.2092 1.92666 11.3108 1.99916 11.4192C2.16583 11.6675 2.28083 11.9467 2.33916 12.24C2.36416 12.3675 2.37499 12.5008 2.39583 12.7667C2.44916 13.4342 2.47583 13.7683 2.57416 14.0467C2.68653 14.3649 2.86872 14.654 3.10737 14.8926C3.34602 15.1313 3.63508 15.3135 3.95333 15.4258C4.23166 15.5242 4.56583 15.5508 5.23333 15.6042C5.49916 15.625 5.6325 15.6358 5.76 15.6608C6.05333 15.7192 6.33249 15.835 6.58083 16.0008C6.68916 16.0733 6.79083 16.16 6.99333 16.3333C7.50333 16.7675 7.75833 16.985 8.02499 17.1125C8.64166 17.4067 9.35833 17.4067 9.975 17.1125C10.2417 16.985 10.4967 16.7675 11.0067 16.3333C11.2092 16.16 11.3108 16.0733 11.4192 16.0008C11.6675 15.8342 11.9467 15.7192 12.24 15.6608C12.3675 15.6358 12.5008 15.625 12.7667 15.6042C13.4342 15.5508 13.7683 15.5242 14.0467 15.4258C14.3649 15.3135 14.654 15.1313 14.8926 14.8926C15.1313 14.654 15.3135 14.3649 15.4258 14.0467C15.5242 13.7683 15.5508 13.4342 15.6042 12.7667C15.625 12.5008 15.6358 12.3675 15.6608 12.24C15.7192 11.9467 15.835 11.6675 16.0008 11.4192C16.0733 11.3108 16.16 11.2092 16.3333 11.0067C16.7675 10.4967 16.985 10.2417 17.1125 9.97499C17.4067 9.35832 17.4067 8.64165 17.1125 8.02499C16.985 7.75832 16.7675 7.50332 16.3333 6.99332C16.2147 6.86226 16.1037 6.72453 16.0008 6.58082C15.8343 6.33239 15.7188 6.05339 15.6608 5.75999C15.6322 5.58562 15.6133 5.40979 15.6042 5.23332C15.5508 4.56582 15.5242 4.23165 15.4258 3.95332C15.3135 3.63507 15.1313 3.34601 14.8926 3.10736C14.654 2.86871 14.3649 2.68652 14.0467 2.57415C13.7683 2.47582 13.4342 2.44915 12.7667 2.39582C12.5902 2.38673 12.4144 2.36781 12.24 2.33915C11.9466 2.28123 11.6676 2.16566 11.4192 1.99915C11.2756 1.89604 11.1379 1.78504 11.0067 1.66665C10.4967 1.23249 10.2417 1.01499 9.975 0.887486C9.67056 0.741971 9.33742 0.666443 9 0.666443C8.66257 0.666443 8.32943 0.741971 8.02499 0.887486C7.75833 1.01499 7.50333 1.23249 6.99333 1.66665ZM12.1925 5.80832C12.3194 5.93549 12.3907 6.10782 12.3907 6.28749C12.3907 6.46715 12.3194 6.63948 12.1925 6.76665L6.76666 12.1933C6.70484 12.261 6.62995 12.3154 6.5465 12.3533C6.46306 12.3913 6.3728 12.4119 6.28117 12.4139C6.18954 12.416 6.09844 12.3995 6.01337 12.3654C5.9283 12.3312 5.85103 12.2802 5.78622 12.2154C5.72141 12.1506 5.67041 12.0733 5.63629 11.9883C5.60217 11.9032 5.58565 11.8121 5.58772 11.7205C5.58978 11.6289 5.6104 11.5386 5.64831 11.4551C5.68623 11.3717 5.74066 11.2968 5.80833 11.235L11.2333 5.80915C11.3605 5.68224 11.5328 5.61096 11.7125 5.61096C11.8922 5.61096 12.0645 5.68224 12.1917 5.80915L12.1925 5.80832ZM12.165 11.2608C12.165 11.5006 12.0697 11.7306 11.9002 11.9002C11.7306 12.0697 11.5006 12.165 11.2608 12.165C11.021 12.165 10.7911 12.0697 10.6215 11.9002C10.4519 11.7306 10.3567 11.5006 10.3567 11.2608C10.3567 11.021 10.4519 10.791 10.6215 10.6215C10.7911 10.4519 11.021 10.3567 11.2608 10.3567C11.5006 10.3567 11.7306 10.4519 11.9002 10.6215C12.0697 10.791 12.165 11.021 12.165 11.2608ZM6.73999 7.64415C6.85873 7.64415 6.97631 7.62077 7.086 7.57533C7.1957 7.52989 7.29538 7.46329 7.37934 7.37933C7.4633 7.29537 7.5299 7.19569 7.57534 7.086C7.62077 6.9763 7.64416 6.85872 7.64416 6.73999C7.64416 6.62125 7.62077 6.50368 7.57534 6.39398C7.5299 6.28428 7.4633 6.1846 7.37934 6.10064C7.29538 6.01668 7.1957 5.95008 7.086 5.90465C6.97631 5.85921 6.85873 5.83582 6.73999 5.83582C6.50019 5.83582 6.27022 5.93108 6.10065 6.10064C5.93109 6.27021 5.83583 6.50019 5.83583 6.73999C5.83583 6.97979 5.93109 7.20977 6.10065 7.37933C6.27022 7.54889 6.50019 7.64415 6.73999 7.64415Z" fill="#8576FD"/>
</svg>
