<svg width="21" height="20" viewBox="0 0 21 20" fill="none" xmlns="http://www.w3.org/2000/svg">
<path d="M10.4411 2.08399C10.359 2.02938 10.2626 2.00024 10.1641 2.00024C10.0655 2.00024 9.96912 2.02938 9.88706 2.08399C7.9992 3.35668 5.84718 4.18446 3.59306 4.50499C3.47396 4.52207 3.36502 4.58153 3.28622 4.67245C3.20742 4.76338 3.16405 4.87967 3.16406 4.99999V9.49999C3.16406 13.391 5.47106 16.23 9.98406 17.967C10.0999 18.0117 10.2282 18.0117 10.3441 17.967C14.8571 16.23 17.1641 13.39 17.1641 9.49999V4.99999C17.164 4.87952 17.1205 4.76311 17.0415 4.67216C16.9625 4.58122 16.8533 4.52185 16.7341 4.50499C14.4803 4.18431 12.3286 3.35654 10.4411 2.08399V2.08399ZM11.6641 8.99999C11.6642 9.31031 11.5681 9.61305 11.389 9.86648C11.2099 10.1199 10.9566 10.3115 10.6641 10.415V12.5C10.6641 12.6326 10.6114 12.7598 10.5176 12.8535C10.4238 12.9473 10.2967 13 10.1641 13C10.0315 13 9.90428 12.9473 9.81051 12.8535C9.71674 12.7598 9.66406 12.6326 9.66406 12.5V10.415C9.40482 10.3233 9.17576 10.1622 9.00192 9.94915C8.82807 9.73612 8.71613 9.4794 8.67831 9.20704C8.6405 8.93469 8.67828 8.65719 8.78752 8.40485C8.89675 8.15252 9.07325 7.93506 9.29772 7.77625C9.52218 7.61744 9.78598 7.52339 10.0603 7.50437C10.3346 7.48534 10.6089 7.54208 10.8531 7.66839C11.0973 7.7947 11.3022 7.98571 11.4452 8.22055C11.5882 8.45539 11.6639 8.72502 11.6641 8.99999V8.99999Z" fill="#8576FD"/>
</svg>
